<?xml version="1.0" encoding="utf-8" ?>
<svg baseProfile="full" height="200mm" version="1.1" viewBox="0,0,200,200" width="200mm" xmlns="http://www.w3.org/2000/svg" xmlns:ev="http://www.w3.org/2001/xml-events" xmlns:xlink="http://www.w3.org/1999/xlink"><defs /><rect fill="#1a1a1a" height="200" width="200" x="0" y="0" /><rect fill="#1a1a1a" height="200" width="180" x="10" y="0" /><text alignment-baseline="middle" fill="#e1ed5e" style="dominant-baseline: central; font-size:9.0px; font-family:Arial;" text-anchor="middle" x="100.0" y="100.0">2026</text><line stroke="#e1ed5e" stroke-width="0.3" x1="100.0" x2="100.0" y1="15.0" y2="10.0" /><path d="M 100.0 14.0 a86.0,86.0 0 0,1 42.46469731375804,11.215312516191453" fill="none" id="id49" stroke="none" /><text fill="#e1ed5e" style="font-size:6.75px; font-family:Arial;" text-anchor="middle"><textPath startOffset="22.20632615414155" xlink:href="#id49">January</textPath></text><path d="M 100.36148047927253 79.00311137660856 l 0.5368893287955422 -31.185654789697267 a52.19027596565222,52.19027596565222 0 0,0 0.8981036017055316,0.02319536636833543 l -1.0736195656959415 31.17179263118657" fill="#7eff26" stroke="none" /><path d="M 100.72285384407766 79.0124445844662 l 0.06680481565791307 -1.9396310639171725 a22.940781169402555,22.940781169402555 0 0,0 0.3945368300704726,0.016989585833102453 l -0.1001824781177172 1.9381937515598753" fill="#ff1302" stroke="none" /><path d="M 102.16513564639614 79.11191278185805 l 0.1400650340294235 -1.3512736035215296 a22.358513365901022,22.358513365901022 0 0,0 0.38247249814545203,0.04297524161092487 l -0.16330423568460078 1.3486624084400038" fill="#ff0a01" stroke="none" /><path d="M 102.88285421437855 79.19881850522331 l 0.203257098499279 -1.4665978511496132 a22.48061565069636,22.48061565069636 0 0,0 0.382845975988098,0.056421544964235536 l -0.22847205491603276 1.4628818220244086" fill="#ff0c01" stroke="none" /><path d="M 103.59715602781102 79.31037775812273 l 5.4370407049057015 -31.272015288884376 a52.7411460387778,52.7411460387778 0 0,0 0.8930956595244666,0.16320752325430374 l -5.97453148553307 31.173792284279333" fill="#78ff26" stroke="none" /><path d="M 105.01212808612495 79.60689891045804 l 0.3259282399665183 -1.3261208475445168 a22.365586218405802,22.365586218405802 0 0,0 0.37306981198363126,0.09510380182049996 l -0.3487069406351746 1.3203140495551489" fill="#ff0a01" stroke="none" /><path d="M 105.36241919743992 79.69619591428918 l 0.36183760268673876 -1.3700308620598323 a22.417007767697303,22.417007767697303 0 0,0 0.37223132980402474,0.10174488355538455 l -0.38536682171447434 1.3635994376781542" fill="#ff0b01" stroke="none" /><path d="M 106.0581310904928 79.89281104454417 l 3.763092582614959 -12.489860731844674 a34.04444275874624,34.04444275874624 0 0,0 0.5596495056300891,0.17388582563347005 l -3.9775274609557663 12.423234771328683" fill="#ffaa0f" stroke="none" /><path d="M 107.4271985657038 80.35727306442388 l 0.3076167746513845 -0.8135547005814049 a21.869769699912005,21.869769699912005 0 0,0 0.3509752650690727,0.13617295011890196 l -0.3215752047201242 0.8081390465719561" fill="#ff0300" stroke="none" /><path d="M 107.76421540070413 80.48803036053334 l 0.43810204401293845 -1.1009784428434974 a22.18494174227023,22.18494174227023 0 0,0 0.35360275492284515,0.14424344216945226 l -0.4569886685241711 1.0932741144904659" fill="#ff0801" stroke="none" /><path d="M 108.43124777332544 80.76684994638697 l 20.032495818860678 -45.6976248819881 a70.89562915313894,70.89562915313894 0 0,0 1.1134593436787172,0.49957675094781295 l -20.816137281006178 45.34602780052376" fill="#3dffab" stroke="none" /><path d="M 109.41281617654863 81.2277094730956 l 1.2400000822921837 -2.4729731635648915 a23.766441120247595,23.766441120247595 0 0,0 0.3641239608466196,0.18651843539700722 l -1.282384530727559 2.451262202855384" fill="#ff1e03" stroke="none" /><path d="M 109.73455568895987 81.39251694778311 l 0.6035767157995283 -1.1537294426996585 a22.302073914494645,22.302073914494645 0 0,0 0.33862508287277887,0.18088179194136847 l -0.6233468452006183 1.143168924256536" fill="#ff0901" stroke="none" /><path d="M 110.36928655335952 81.73862282372117 l 1.4298788998562217 -2.5181634023044013 a23.895807415723517,23.895807415723517 0 0,0 0.35593745904845503,0.20618195045414886 l -1.473013091370005 2.4931772944602026" fill="#ff2003" stroke="none" /><line stroke="#e1ed5e" stroke-width="0.3" x1="143.23703022742887" x2="145.7803849466894" y1="26.81831364943548" y2="22.513508569990506" /><path d="M 143.74570117128098 25.957352633546492 a86.0,86.0 0 0,1 28.547481713284135,27.462654790039103" fill="none" id="id50" stroke="none" /><text fill="#e1ed5e" style="font-size:6.75px; font-family:Arial;" text-anchor="middle"><textPath startOffset="19.985693538727396" xlink:href="#id50">February</textPath></text><path d="M 112.77801427241765 83.33499621200491 l 0.7234813433362054 -0.9435597010771258 a22.189003853506083,22.189003853506083 0 0,0 0.3011020824614849,0.23501495136328146 l -0.7396159809571206 0.9309663604906202" fill="#ff0801" stroke="none" /><path d="M 114.42810811169701 84.74124197986012 l 0.6356650477344423 -0.6722613297703997 a21.925205570895407,21.925205570895407 0 0,0 0.2719944494505052,0.26165844487046613 l -0.6471427407973658 0.6612197981376315" fill="#ff0400" stroke="none" /><path d="M 115.68641384162765 86.03803664274999 l 0.7103079678536588 -0.6322218653455126 a21.95091634554116,21.95091634554116 0 0,0 0.248785556769562,0.284404898319628 l -0.721085388201069 0.6199014108229368" fill="#ff0400" stroke="none" /><path d="M 115.9244219780498 86.31012108654704 l 0.49607688607319445 -0.42646649978667067 a21.6541910671481,21.6541910671481 0 0,0 0.2405568071184632,0.2847433841054426 l -0.5033443066787748 0.4178641660521215" fill="#ff0000" stroke="none" /><path d="M 117.04232023915458 87.72973835380427 l 12.016705113133654 -8.651880365712605 a35.807303456018445,35.807303456018445 0 0,0 0.35583487381542184,0.5033031940378305 l -12.16385260675296 8.443750671342983" fill="#ffc111" stroke="none" /><line stroke="#e1ed5e" stroke-width="0.3" x1="172.23445277983987" x2="176.4835382374775" y1="55.19839476539836" y2="52.563006222186495" /><path d="M 173.08426987136738 54.67131705675599 a86.0,86.0 0 0,1 12.851231095245387,41.99856678651699" fill="none" id="id51" stroke="none" /><text fill="#e1ed5e" style="font-size:6.75px; font-family:Arial;" text-anchor="middle"><textPath startOffset="22.20632615414155" xlink:href="#id51">March</textPath></text><path d="M 118.89224826269711 90.83032412892265 l 10.51173303391051 -5.102049445040218 a32.68449570652669,32.68449570652669 0 0,0 0.24130777370053633,0.5082557125681184 l -10.597999001452802 4.920351316831559" fill="#ff990e" stroke="none" /><path d="M 119.61058180528143 92.48833698450437 l 0.9586912909421106 -0.3672183714359856 a22.026614983159874,22.026614983159874 0 0,0 0.13257443165298852,0.3552335649694891 l -0.9648703110967244 0.35066166943716326" fill="#ff0500" stroke="none" /><path d="M 119.85752413597 93.16781622104841 l 53.63556011693142 -18.453861684704993 a77.72140971569014,77.72140971569014 0 0,0 0.4243689128511464,1.26880903473017 l -53.94526632355434 17.52787954705251" fill="#45fff1" stroke="none" /><path d="M 120.53481517161879 95.60439243477599 l 54.184509037894806 -11.598538182807706 a76.411976211427,76.411976211427 0 0,0 0.26424245300001603,1.2885400446251702 l -54.37613078680982 10.664122482019124" fill="#44ffe4" stroke="none" /><path d="M 120.83666639777658 97.38593545837742 l 0.740287425589605 -0.09287277882652782 a21.746090360166278,21.746090360166278 0 0,0 0.043398617645077464,0.37181285289386956 l -0.7417763962382714 0.08011618760780555" fill="#ff0100" stroke="none" /><path d="M 120.91429891909075 98.10471618934814 l 14.132144042497298 -1.2806751934245457 a35.19005370634463,35.19005370634463 0 0,0 0.049476404766644146,0.6037374572908164 l -14.152094931083438 1.0372238189259606" fill="#ffb911" stroke="none" /><path d="M 120.94382443527127 98.46500227214037 l 22.92308797245226 -1.680060299492525 a43.984572321509845,43.984572321509845 0 0,0 0.04884258245053111,0.7555731322710242 l -22.948611145907208 1.2852281029684658" fill="#d9ff1c" stroke="none" /><line stroke="#e1ed5e" stroke-width="0.3" x1="184.98032266829074" x2="189.97916517819016" y1="98.17113171792111" y2="98.06355123074" /><path d="M 185.9800911702706 98.14961562048488 a86.0,86.0 0 0,1 -9.607161424134198,41.387399972396054" fill="none" id="id52" stroke="none" /><text fill="#e1ed5e" style="font-size:6.75px; font-family:Arial;" text-anchor="middle"><textPath startOffset="21.466115282336823" xlink:href="#id52">April</textPath></text><path d="M 120.9904718944345 100.63252640178507 l 44.62000664592462 1.3445782635718577 a65.64026079436843,65.64026079436843 0 0,0 -0.04375350715294975,1.129083605279065 l -44.590251005920464 -2.1124391158649285" fill="#36ff72" stroke="none" /><path d="M 120.8583938346157 102.4346265915055 l 0.9654847162880786 0.11269298981526378 a21.972039323967593,21.972039323967593 0 0,0 -0.04708136230225929,0.3752847813145888 l -0.9634018447389713 -0.12929552541724754" fill="#ff0500" stroke="none" /><path d="M 120.76222939487914 103.15116336523771 l 28.536836036068376 4.331145300746603 a49.863642018387594,49.863642018387594 0 0,0 -0.1360998324595581,0.8474937866431035 l -28.458054449247527 -4.821718317082911" fill="#97ff23" stroke="none" /><path d="M 120.32669344350535 105.2749913415812 l 1.4280092695659203 0.37058346718289015 a22.47531101131778,22.47531101131778 0 0,0 -0.10040248384707415,0.3736349930357369 l -1.421418709377069 -0.3951093933941753" fill="#ff0c01" stroke="none" /><path d="M 120.23288151984713 105.62410040840565 l 31.429326077741237 8.736357471195959 a53.62095154291957,53.62095154291957 0 0,0 -0.25484598957890675,0.8871523223770693 l -31.27428745127623 -9.27606726907761" fill="#6fff27" stroke="none" /><path d="M 120.13307415673323 105.97154293290107 l 6.129677137346091 1.8180845063962958 a27.39361971660042,27.39361971660042 0 0,0 -0.1379767414364031,0.45091597429499647 l -6.0974736234035545 -1.9233274532433495" fill="#ff5107" stroke="none" /><path d="M 120.02730092923936 106.31721596034902 l 3.001907492350517 0.9468923440642699 a24.147706101890343,24.147706101890343 0 0,0 -0.12845170913159085,0.3953337105163241 l -2.9851635322026793 -0.9984249545583892" fill="#ff2403" stroke="none" /><path d="M 119.41010516605496 108.01547362559984 l 44.26242524205107 18.27832972039757 a68.88799041174863,68.88799041174863 0 0,0 -0.46203837414897264,1.0921222325588664 l -43.94123588670979 -19.0375264786226" fill="#3aff96" stroke="none" /><line stroke="#e1ed5e" stroke-width="0.3" x1="174.80103733775053" x2="179.2010983576182" y1="140.37084112569926" y2="142.7455964860345" /><path d="M 175.68104954172406 140.8457921977663 a86.0,86.0 0 0,1 -30.038265399797805,32.042727171017184" fill="none" id="id53" stroke="none" /><text fill="#e1ed5e" style="font-size:6.75px; font-family:Arial;" text-anchor="middle"><textPath startOffset="22.206326154141568" xlink:href="#id53">May</textPath></text><path d="M 118.48025628344425 109.97397251340804 l 24.261329263941242 13.09407334540455 a48.56931001001305,48.56931001001305 0 0,0 -0.40341111630520066,0.7323083547736537 l -24.032341738184535 -13.509752218576008" fill="#a5ff21" stroke="none" /><path d="M 118.30583269289576 110.29060199501025 l 27.502615384487964 15.46056240607109 a52.550322389780625,52.550322389780625 0 0,0 -0.45005098015956957,0.7847018188182211 l -27.232412408176014 -15.931684070747625" fill="#7aff26" stroke="none" /><path d="M 118.12598468904814 110.60418214915192 l 46.20443129625761 27.03081868206197 a74.53050186606791,74.53050186606791 0 0,0 -0.6573559185430828,1.1017663305199967 l -45.7322945020163 -27.82214710646807" fill="#41ffd1" stroke="none" /><path d="M 117.75023020441432 111.22182372390056 l 6.2175355770940826 3.9307708936573884 a28.355862184058015,28.355862184058015 0 0,0 -0.2643780909709129,0.41032066825425356 l -6.14895262274612 -4.037213161833095" fill="#ff5f08" stroke="none" /><path d="M 117.55443506779139 111.5257021239791 l 3.4444393461520506 2.261512930182645 a25.120510058561155,25.120510058561155 0 0,0 -0.2404354529652161,0.35941837947235006 l -3.4050007877761135 -2.320468223860802" fill="#ff3204" stroke="none" /><path d="M 116.93607887273984 112.41649034213515 l 1.942096552471463 1.4238256250724945 a23.408115119701428,23.408115119701428 0 0,0 -0.24103529345427144,0.3229061650067035 l -1.9172999923220995 -1.457044669588513" fill="#ff1902" stroke="none" /><path d="M 116.71984013943494 112.70617746262583 l 50.159520418304794 38.11853238787748 a84.0,84.0 0 0,0 -0.8847727311277263,1.1436880235469893 l -49.495940869959 -38.97629840553772" fill="#4dd2ff" stroke="none" /><path d="M 116.0416608686014 113.55231037782055 l 11.017331106063416 9.307657848373784 a35.422693206299115,35.422693206299115 0 0,0 -0.3975058564400321,0.4623891151058071 l -10.855482740052606 -9.49592406264112" fill="#ffbc11" stroke="none" /><path d="M 115.32070863581623 114.36230785411682 l 1.7796604323966176 1.6683321648789469 a23.43936948144552,23.43936948144552 0 0,0 -0.2784747202584998,0.2919796308637771 l -1.7506791607591532 -1.698718912325231" fill="#ff1a02" stroke="none" /><line stroke="#e1ed5e" stroke-width="0.3" x1="143.8653032363475" x2="146.44561519142675" y1="172.8068346515853" y2="177.08958963109032" /><path d="M 144.38136562736335 173.6633856474863 a86.0,86.0 0 0,1 -40.68145358897372,12.25698825130547" fill="none" id="id54" stroke="none" /><text fill="#e1ed5e" style="font-size:6.75px; font-family:Arial;" text-anchor="middle"><textPath startOffset="21.466115282336833" xlink:href="#id54">June</textPath></text><line stroke="#e1ed5e" stroke-width="0.3" x1="102.19456741930631" x2="102.32365962044197" y1="184.97166512339345" y2="189.96999836594603" /><path d="M 102.22038585953345 185.97133177190398 a86.0,86.0 0 0,1 -42.740103519485714,-10.115201625700543" fill="none" id="id55" stroke="none" /><text fill="#e1ed5e" style="font-size:6.75px; font-family:Arial;" text-anchor="middle"><textPath startOffset="22.20632615414155" xlink:href="#id55">July</textPath></text><line stroke="#e1ed5e" stroke-width="0.3" x1="58.666819895761336" x2="56.23545636021788" y1="174.27360380694188" y2="178.64263932499728" /><path d="M 58.180547188652646 175.14741091055294 a86.0,86.0 0 0,1 -31.652253787137756,-30.449443065178592" fill="none" id="id56" stroke="none" /><text fill="#e1ed5e" style="font-size:6.75px; font-family:Arial;" text-anchor="middle"><textPath startOffset="22.20632615414155" xlink:href="#id56">August</textPath></text><line stroke="#e1ed5e" stroke-width="0.3" x1="26.63291911575756" x2="22.317208475507996" y1="142.92168965132927" y2="145.44649492493687" /><path d="M 25.769776987707644 143.4266507060508 a86.0,86.0 0 0,1 -11.730757126820373,-40.83630448921669" fill="none" id="id57" stroke="none" /><text fill="#e1ed5e" style="font-size:6.75px; font-family:Arial;" text-anchor="middle"><textPath startOffset="21.46611528233685" xlink:href="#id57">September</textPath></text><line stroke="#e1ed5e" stroke-width="0.3" x1="15.007084014347285" x2="10.007500721073583" y1="101.09737516637583" y2="101.16192664675087" /><path d="M 14.007167355692545 101.11028546245083 a86.0,86.0 0 0,1 10.666146001902534,-42.60595125391555" fill="none" id="id58" stroke="none" /><text fill="#e1ed5e" style="font-size:6.75px; font-family:Arial;" text-anchor="middle"><textPath startOffset="22.20632615414155" xlink:href="#id58">October</textPath></text><line stroke="#e1ed5e" stroke-width="0.3" x1="26.266209847984243" x2="21.928928074336255" y1="57.711370442889674" y2="55.22380399835377" /><path d="M 25.398753493254645 57.213857153982495 a86.0,86.0 0 0,1 29.58750427330803,-30.492523968695096" fill="none" id="id59" stroke="none" /><text fill="#e1ed5e" style="font-size:6.75px; font-family:Arial;" text-anchor="middle"><textPath startOffset="21.46611528233685" xlink:href="#id59">November</textPath></text><line stroke="#e1ed5e" stroke-width="0.3" x1="56.762969772571076" x2="54.21961505331055" y1="26.818313649435495" y2="22.513508569990535" /><path d="M 56.25429882871897 25.957352633546506 a86.0,86.0 0 0,1 42.265352541879196,-11.944610805530505" fill="none" id="id60" stroke="none" /><text fill="#e1ed5e" style="font-size:6.75px; font-family:Arial;" text-anchor="middle"><textPath startOffset="22.20632615414155" xlink:href="#id60">December</textPath></text></svg>