<?xml version="1.0" encoding="utf-8" ?>
<svg baseProfile="full" height="200mm" version="1.1" viewBox="0,0,200,200" width="200mm" xmlns="http://www.w3.org/2000/svg" xmlns:ev="http://www.w3.org/2001/xml-events" xmlns:xlink="http://www.w3.org/1999/xlink"><defs /><rect fill="#1a1a1a" height="200" width="200" x="0" y="0" /><rect fill="#1a1a1a" height="200" width="180" x="10" y="0" /><text alignment-baseline="middle" fill="#e1ed5e" style="dominant-baseline: central; font-size:9.0px; font-family:Arial;" text-anchor="middle" x="100.0" y="100.0">2025</text><line stroke="#e1ed5e" stroke-width="0.3" x1="100.0" x2="100.0" y1="15.0" y2="10.0" /><path d="M 100.0 14.0 a86.0,86.0 0 0,1 42.46469731375804,11.215312516191453" fill="none" id="id37" stroke="none" /><text fill="#e1ed5e" style="font-size:6.75px; font-family:Arial;" text-anchor="middle"><textPath startOffset="22.20632615414155" xlink:href="#id37">January</textPath></text><path d="M 106.0581310904928 79.89281104454417 l 0.8706400064413015 -2.889690378137809 a24.0180000832204,24.0180000832204 0 0,0 0.3948269022363271,0.12267464044370617 l -0.9202522813883467 2.8742756028115823" fill="#ff2303" stroke="none" /><line stroke="#e1ed5e" stroke-width="0.3" x1="143.23703022742887" x2="145.7803849466894" y1="26.81831364943548" y2="22.513508569990506" /><path d="M 143.74570117128098 25.957352633546492 a86.0,86.0 0 0,1 28.547481713284135,27.462654790039103" fill="none" id="id38" stroke="none" /><text fill="#e1ed5e" style="font-size:6.75px; font-family:Arial;" text-anchor="middle"><textPath startOffset="19.985693538727396" xlink:href="#id38">February</textPath></text><path d="M 116.38621287248628 86.86637796730983 l 4.041588739630365 -3.239351235757986 a26.179559437723807,26.179559437723807 0 0,0 0.27880722095689076,0.3540568572986704 l -4.09675004118122 3.1693019845062773" fill="#ff4206" stroke="none" /><line stroke="#e1ed5e" stroke-width="0.3" x1="172.23445277983987" x2="176.4835382374775" y1="55.19839476539836" y2="52.563006222186495" /><path d="M 173.08426987136738 54.67131705675599 a86.0,86.0 0 0,1 12.851231095245387,41.99856678651699" fill="none" id="id39" stroke="none" /><text fill="#e1ed5e" style="font-size:6.75px; font-family:Arial;" text-anchor="middle"><textPath startOffset="22.20632615414155" xlink:href="#id39">March</textPath></text><path d="M 118.03404312379186 89.2402003453031 l 2.1177175081210198 -1.2635112357342009 a23.46600650587724,23.46600650587724 0 0,0 0.20397583173639278,0.3486608161748158 l -2.1391530143277397 1.2268710072054898" fill="#ff1b02" stroke="none" /><path d="M 120.08093135843002 93.85539295169968 l 5.8230000439711205 -1.7817922124123717 a27.08950843667213,27.08950843667213 0 0,0 0.13260198654441352,0.44706797864916725 l -5.852807927627237 1.6812948470166746" fill="#ff4e07" stroke="none" /><path d="M 120.73433829027371 96.67025291283417 l 3.339033352122597 -0.5362185386642018 a24.381815200124667,24.381815200124667 0 0,0 0.06297951342185049,0.4149563044769895 l -3.3477687589837473 0.4786631217951302" fill="#ff2803" stroke="none" /><path d="M 120.96714384426684 98.82574320788733 l 1.2694104723604827 -0.07109284317500561 a22.271399677398563,22.271399677398563 0 0,0 0.018142061336664763,0.38295024111755843 l -1.2704461419306439 0.049231495434447416" fill="#ff0a01" stroke="none" /><line stroke="#e1ed5e" stroke-width="0.3" x1="184.98032266829074" x2="189.97916517819016" y1="98.17113171792111" y2="98.06355123074" /><path d="M 185.9800911702706 98.14961562048488 a86.0,86.0 0 0,1 -9.607161424134198,41.387399972396054" fill="none" id="id40" stroke="none" /><text fill="#e1ed5e" style="font-size:6.75px; font-family:Arial;" text-anchor="middle"><textPath startOffset="21.466115282336823" xlink:href="#id40">April</textPath></text><path d="M 120.89721153311464 102.0752229133903 l 1.982288984390934 0.19685360962396897 a22.992039397516933,22.992039397516933 0 0,0 -0.04249990729565471,0.39349635842082714 l -1.9786067755942274 -0.23094628992958754" fill="#ff1502" stroke="none" /><path d="M 120.5718875245553 104.21870165774334 l 1.9589316595419917 0.4017204658372423 a22.999698122074538,22.999698122074538 0 0,0 -0.08287115559306624,0.38714644970253514 l -1.9517264652244823 -0.4353807349559465" fill="#ff1502" stroke="none" /><path d="M 118.81262510543309 109.33194174019688 l 4.4963865611176255 2.230417987632986 a26.019188829537693,26.019188829537693 0 0,0 -0.20248049760025233,0.39951323109508247 l -4.457327393731104 -2.3074854304307633" fill="#ff3f05" stroke="none" /><line stroke="#e1ed5e" stroke-width="0.3" x1="174.80103733775053" x2="179.2010983576182" y1="140.37084112569926" y2="142.7455964860345" /><path d="M 175.68104954172406 140.8457921977663 a86.0,86.0 0 0,1 -30.038265399797805,32.042727171017184" fill="none" id="id41" stroke="none" /><text fill="#e1ed5e" style="font-size:6.75px; font-family:Arial;" text-anchor="middle"><textPath startOffset="22.206326154141568" xlink:href="#id41">May</textPath></text><path d="M 117.94076556474637 110.91462005526583 l 32.07918858377548 19.51600971594772 a58.5492872825357,58.5492872825357 0 0,0 -0.5312242642648523,0.856502659483024 l -31.738499679842672 -20.065308706796017" fill="#3dff2e" stroke="none" /><path d="M 117.75023020441432 111.22182372390056 l 1.8050720736879182 1.1411796008608328 a23.13555053150912,23.13555053150912 0 0,0 -0.21570610843638022,0.33478067049768434 l -1.7851611018744877 -1.17208187127997" fill="#ff1702" stroke="none" /><path d="M 117.35343817320211 111.8261652097733 l 2.2360695147925513 1.5238552290640843 a23.70594560812492,23.70594560812492 0 0,0 -0.23270105345345776,0.33522322316437825 l -2.209507554176957 -1.5621197144154821" fill="#ff1f03" stroke="none" /><path d="M 116.93607887273984 112.41649034213515 l 3.687517746239553 2.703460985667239 a25.57236136256273,25.57236136256273 0 0,0 -0.2633207156502826,0.35276112986990704 l -3.6404357638941782 -2.766534995046461" fill="#ff3905" stroke="none" /><path d="M 116.71984013943494 112.70617746262583 l 24.97329521404509 18.97835853512683 a52.36628072525764,52.36628072525764 0 0,0 -0.5515744906700882,0.7129843821806751 l -24.642913906156934 -19.40542091142076" fill="#7cff26" stroke="none" /><path d="M 115.80600337817218 113.82643327865902 l 6.11969841505775 5.3532572274507615 a29.13068703336404,29.13068703336404 0 0,0 -0.33339537295871186,0.3745732358191952 l -6.026644192450699 -5.457804633010823" fill="#ff6a09" stroke="none" /><path d="M 115.07121518719521 114.62390073753431 l 8.652913628771191 8.396094702776061 a33.056837086274264,33.056837086274264 0 0,0 -0.3997663659081525,0.4049612180655506 l -8.507106637807503 -8.543796414822276" fill="#ff9e0e" stroke="none" /><path d="M 114.55890576462653 115.13401014063108 l 14.992812259714523 15.585056764801312 a42.625873712225484,42.625873712225484 0 0,0 -0.5331566453325959,0.5041328861218742 l -14.72231977999112 -15.840824287669108" fill="#e9ff1a" stroke="none" /><path d="M 114.0293411484842 115.62618273729858 l 10.41475645126851 11.600180346998295 a36.589462339097025,36.589462339097025 0 0,0 -0.4722787414308886,0.416731078405066 l -10.213535356931033 -11.77773456717565" fill="#ffcc13" stroke="none" /><path d="M 113.20401910651253 116.32954008644616 l 23.382684320191967 28.91759530603558 a58.188402013281,58.188402013281 0 0,0 -0.7842757714576091,0.6230761052867974 l -22.881451056017006 -29.315805325327503" fill="#40ff2d" stroke="none" /><path d="M 112.92097659922987 116.55440617244103 l 12.60722417866149 16.152425333934968 a41.490069440081726,41.490069440081726 0 0,0 -0.5667766178652135,0.43458014198421135 l -12.327318832302781 -16.36704481774655" fill="#f6ff19" stroke="none" /><path d="M 112.34349029814194 116.9893568818739 l 13.197672504002695 18.165037826808828 a43.45322156779076,43.45322156779076 0 0,0 -0.6089093154442032,0.4344406290243905 l -12.883035860709608 -18.389522717677437" fill="#dfff1b" stroke="none" /><path d="M 111.1453310114006 117.79835938074945 l 7.97278892955699 12.732018680285348 a36.02230551514652,36.02230551514652 0 0,0 -0.5283628269075352,0.32456360261416395 l -7.752446902717146 -12.867370749727892" fill="#ffc412" stroke="none" /><line stroke="#e1ed5e" stroke-width="0.3" x1="143.8653032363475" x2="146.44561519142675" y1="172.8068346515853" y2="177.08958963109032" /><path d="M 144.38136562736335 173.6633856474863 a86.0,86.0 0 0,1 -40.68145358897372,12.25698825130547" fill="none" id="id42" stroke="none" /><text fill="#e1ed5e" style="font-size:6.75px; font-family:Arial;" text-anchor="middle"><textPath startOffset="21.466115282336833" xlink:href="#id42">June</textPath></text><path d="M 106.91757812671514 119.82793768551818 l 9.050186831916823 25.940659759596453 a48.47405522407909,48.47405522407909 0 0,0 -0.7901969652606954,0.2680777136504753 l -8.6023201337189 -26.092600460145054" fill="#a6ff21" stroke="none" /><path d="M 106.57524785965236 119.94407469862006 l 3.596550244379727 10.909074191925882 a32.48664761300229,32.48664761300229 0 0,0 -0.5325933020337639,0.17051955656907053 l -3.4082355972550222 -10.969366595154659" fill="#ff970d" stroke="none" /><path d="M 105.88484417918355 120.15858648285463 l 0.6008954628310773 2.0583727938767256 a23.144288673621826,23.144288673621826 0 0,0 -0.3833893650448871,0.10834966413454326 l -0.5653749296815844 -2.068411251349788" fill="#ff1702" stroke="none" /><path d="M 105.53697534728816 120.25689768951611 l 2.445395310951315 8.946422824263523 a30.274612637589023,30.274612637589023 0 0,0 -0.5038698312865325,0.1330766020444051 l -2.291035036853285 -8.987190775611513" fill="#ff7a0b" stroke="none" /><path d="M 104.48393922423573 120.51570834832081 l 1.241333766884867 5.679568845778261 a26.81364015009044,26.81364015009044 0 0,0 -0.4517568969172405,0.0946700500990426 l -1.1433854085382482 -5.7000948766038455" fill="#ff4a06" stroke="none" /><path d="M 104.13013068566511 120.58985236759428 l 5.6813226130612415 28.322976379806274 a49.88716700621134,49.88716700621134 0 0,0 -0.8434076144988085,0.1616410766457373 l -5.192947383990729 -28.416574654800478" fill="#96ff23" stroke="none" /><path d="M 103.06178313531738 120.77559828337769 l 1.6171960308426454 10.973414378930848 a32.09194059368781,32.09194059368781 0 0,0 -0.5472003038062065,0.07583697600701635 l -1.4280671358496084 -10.999625920430466" fill="#ff920d" stroke="none" /><line stroke="#e1ed5e" stroke-width="0.3" x1="102.19456741930631" x2="102.32365962044197" y1="184.97166512339345" y2="189.96999836594603" /><path d="M 102.22038585953345 185.97133177190398 a86.0,86.0 0 0,1 -42.740103519485714,-10.115201625700543" fill="none" id="id43" stroke="none" /><text fill="#e1ed5e" style="font-size:6.75px; font-family:Arial;" text-anchor="middle"><textPath startOffset="22.20632615414155" xlink:href="#id43">July</textPath></text><path d="M 100.54218724476979 120.99299961872073 l 0.463590816779324 17.94981703050378 a38.955802624053476,38.955802624053476 0 0,0 -0.6704855895675195,0.011543017473178308 l -0.15454553731913662 -17.95513752525612" fill="#ffe915" stroke="none" /><path d="M 99.09653310690486 120.98055641714683 l -1.3261638310817272 30.796540846195526 a51.825081323465454,51.825081323465454 0 0,0 -0.8909272720577278,-0.04605076343145081 l 1.856079171552944 -30.769150276001874" fill="#82ff25" stroke="none" /><path d="M 97.65516085044442 120.86867818915974 l -2.888628802280095 25.708315597744285 a46.87009213803817,46.87009213803817 0 0,0 -0.8009709879712654,-0.09698643202155449 l 3.3307272133027497 -25.654783636997383" fill="#b8ff1f" stroke="none" /><path d="M 96.58105272829116 120.7198165907248 l -1.8612278965750788 11.279583329549588 a32.43211132605182,32.43211132605182 0 0,0 -0.5500347526717302,-0.09563059213686209 l 2.055111620718859 -11.24587415889172" fill="#ff960d" stroke="none" /><path d="M 96.22490169976321 120.6578951692458 l -4.533745644266935 24.809325425358164 a46.220179968196746,46.220179968196746 0 0,0 -0.7814124166206879,-0.14975954942257705 l 4.9601256754593175 -24.727608677587117" fill="#bfff1e" stroke="none" /><path d="M 95.16358092515715 120.4354850818985 l -5.933264013661797 25.07002109656732 a46.76256158921594,46.76256158921594 0 0,0 -0.7817068401375032,-0.19212452247286796 l 6.363924138542511 -24.964175315780423" fill="#b9ff1f" stroke="none" /><path d="M 94.11515582081647 120.15858648285463 l -0.6913675581888911 2.368285767444808 a23.467137324268293,23.467137324268293 0 0,0 -0.38678873838936306,-0.11653627400031284 l 0.7320312710185 -2.3560341243387697" fill="#ff1b02" stroke="none" /><path d="M 93.76903079525671 120.05430185196036 l -6.079025716624335 19.56527350419422 a41.48791060497152,41.48791060497152 0 0,0 -0.6801620027650906,-0.21776639447726578 l 6.414909064480366 -19.457734263057247" fill="#f6ff19" stroke="none" /><path d="M 93.08242187328487 119.8279376855182 l -9.600354127942433 27.517610921171016 a50.14422258683274,50.14422258683274 0 0,0 -0.8125284806537252,-0.2913438047837691 l 10.072602169225885 -27.348279575347288" fill="#94ff23" stroke="none" /><path d="M 92.7421414339146 119.70592522655815 l -5.258973491248865 14.278721119099608 a36.216395071720484,36.216395071720484 0 0,0 -0.5831353176409154,-0.22049188022614136 l 5.503979029650063 -14.186080988766834" fill="#ffc712" stroke="none" /><path d="M 92.40401165467489 119.57807347666478 l -0.4331096816436571 1.1163067642004763 a22.197382473620358,22.197382473620358 0 0,0 -0.35503013999652017,-0.1412738196916587 l 0.45226089768203537 -1.108686100102751" fill="#ff0901" stroke="none" /><path d="M 92.06813273071674 119.44442032107085 l -0.3882512741723688 0.9517709650077177 a22.02791391746984,22.02791391746984 0 0,0 -0.34985418948615493,-0.14623907957922816 l 0.40457692315598603 -0.9449468424085165" fill="#ff0701" stroke="none" /><path d="M 91.7346041902142 119.30500536409082 l -1.014901786530813 2.3704472095342353 a23.57857433662326,23.57857433662326 0 0,0 -0.37173230875721314,-0.16295651995360866 l 1.0555547699457692 -2.3526261362861742" fill="#ff1d02" stroke="none" /><path d="M 91.40352486487194 119.15986991738527 l -8.183358472417748 18.239113282390846 a40.99081312043053,40.99081312043053 0 0,0 -0.6412759042656286,-0.29437831505145673 l 8.496102372450794 -18.095547897005314" fill="#fcff18" stroke="none" /><path d="M 91.07499286063937 119.00905698771935 l -6.716534616962295 14.305309486057437 a36.80359822169425,36.80359822169425 0 0,0 -0.571134592021856,-0.2741793119624941 l 6.961781876984393 -14.18757589759538" fill="#ffce13" stroke="none" /><path d="M 90.10565033884886 118.52300852407294 l -0.3827895904597318 0.7166125202600815 a21.81244161313773,21.81244161313773 0 0,0 -0.3296557802598622,-0.17975461567132273 l 0.39506818258823456 -0.7099172528289929" fill="#ff0400" stroke="none" /><line stroke="#e1ed5e" stroke-width="0.3" x1="58.666819895761336" x2="56.23545636021788" y1="174.27360380694188" y2="178.64263932499728" /><path d="M 58.180547188652646 175.14741091055294 a86.0,86.0 0 0,1 -31.652253787137756,-30.449443065178592" fill="none" id="id44" stroke="none" /><text fill="#e1ed5e" style="font-size:6.75px; font-family:Arial;" text-anchor="middle"><textPath startOffset="22.20632615414155" xlink:href="#id44">August</textPath></text><path d="M 89.7882731507175 118.34994917583269 l -0.6661370450562458 1.1970140899117714 a22.369883679092343,22.369883679092343 0 0,0 -0.33485716754056377,-0.19014063896477565 l 0.6866429795180169 -1.1853702851523626" fill="#ff0c01" stroke="none" /><path d="M 89.4739219176387 118.17145234162733 l -7.72391550469646 13.334003546823652 a36.40955941324722,36.40955941324722 0 0,0 -0.5396106995763592,-0.3188115127173072 l 7.952294075301201 -13.199073461812596" fill="#ffc912" stroke="none" /><path d="M 89.1626897886671 117.98757091392108 l -3.690302448884235 6.12509706732457 a28.150884298350032,28.150884298350032 0 0,0 -0.4129075192471802,-0.2536415227727498 l 3.795189168063724 -6.060667077723442" fill="#ff5d08" stroke="none" /><path d="M 88.8546689885994 117.79835938074946 l -11.323696536442691 18.08319737368012 a42.33607579909942,42.33607579909942 0 0,0 -0.6143129869479252,-0.39208361348317006 l 11.63329132543754 -17.88559933137315" fill="#ecff1a" stroke="none" /><path d="M 88.54995079064634 117.60387380957326 l -8.201053920832395 12.608707236812728 a36.04116962194277,36.04116962194277 0 0,0 -0.5171483949569544,-0.34273775693740144 l 8.416877014529312 -12.465671458784009" fill="#ffc512" stroke="none" /><path d="M 87.95078237400918 117.19931262002967 l -0.6652299928899978 0.94956361210169 a22.15939725584807,22.15939725584807 0 0,0 -0.310519287796974,-0.221547267044703 l 0.6814766085358588 -0.9379720832127677" fill="#ff0901" stroke="none" /><path d="M 87.36589467227662 116.77436683061367 l -11.529665697814615 15.30799663551137 a40.1642362774046,40.1642362774046 0 0,0 -0.5486650252374802,-0.42069294507519367 l 11.791459451545581 -15.10726434860881" fill="#fff817" stroke="none" /><path d="M 87.07902340077011 116.55440617244103 l -9.893448118168289 12.675524743531529 a37.07946650827594,37.07946650827594 0 0,0 -0.49976500805738905,-0.39704354783304074 l 10.110170618943037 -12.503347281693358" fill="#ffd213" stroke="none" /><path d="M 86.51685102203217 116.09983520530335 l -12.844337380674133 15.337048896224431 a41.005051151990635,41.005051151990635 0 0,0 -0.5372335812683982,-0.45784211299057476 l 13.106436438519589 -15.113682393010905" fill="#fcff18" stroke="none" /><path d="M 85.97065885151581 115.62618273729859 l -0.6629495273472094 0.7384074811704541 a21.992344538987535,21.992344538987535 0 0,0 -0.2795126983683777,-0.2553282227773988 l 0.6755617751824416 -0.7268864918064794" fill="#ff0601" stroke="none" /><path d="M 85.70375840098266 115.38237550388516 l -1.2608783510384818 1.3566715507750378 a22.85212632204174,22.85212632204174 0 0,0 -0.28583022346546394,-0.2702703169096083 l 1.2840444088947627 -1.3347665971194986" fill="#ff1302" stroke="none" /><path d="M 85.44109423537348 115.13401014063109 l -15.409851410417907 16.018569752509524 a43.227417695431285,43.227417695431285 0 0,0 -0.5318002581088622,-0.5204784816768043 l 15.683301620902563 -15.75094116791015" fill="#e2ff1b" stroke="none" /><path d="M 85.18274418774928 114.88116024355367 l -16.31073088287289 16.381076430956323 a44.1166521574889,44.1166521574889 0 0,0 -0.5335160669789686,-0.5404489591077352 l 16.590287574907393 -16.097886977867923" fill="#d7ff1c" stroke="none" /><path d="M 84.43433777217949 114.09645910891817 l -9.825500356774484 8.89809646237748 a34.255812985809285,34.255812985809285 0 0,0 -0.39205149996384736,-0.4404740163188019 l 9.97721070638667 -8.727648276317813" fill="#ffae10" stroke="none" /><path d="M 84.19399662182784 113.82643327865904 l -1.36610152061615 1.195008698578307 a22.81501491848072,22.81501491848072 0 0,0 -0.2560251980854481,-0.297815146291757 l 1.3864692282723767 -1.1713164531250198" fill="#ff1202" stroke="none" /><path d="M 83.72743513129214 113.27417163493432 l -12.378867725341815 10.09792962314885 a36.97512281128306,36.97512281128306 0 0,0 -0.39806728415251497,-0.496650142623263 l 12.55085292154919 -9.883351646947327" fill="#ffd013" stroke="none" /><path d="M 83.50135304334701 112.99209946851258 l -1.3848966363410216 1.0905569953841328 a22.762740268312363,22.762740268312363 0 0,0 -0.23976014137078336,-0.30992230271404325 l 1.4034635949298733 -1.0665566985568369" fill="#ff1101" stroke="none" /><path d="M 82.6465618267979 111.8261652097733 l -38.48835289466128 26.22936247222827 a67.57609648997561,67.57609648997561 0 0,0 -0.646789787759521,-0.9668629751096794 l 38.93414578783153 -25.56296258291277" fill="#39ff87" stroke="none" /><path d="M 82.44556493220864 111.52570212397912 l -1.5799923950737365 1.0373744089996169 a22.890111539814026,22.890111539814026 0 0,0 -0.2134177388691691,-0.33122907011134667 l 1.5976149973199514 -1.0100237389668218" fill="#ff1302" stroke="none" /><path d="M 82.24976979558568 111.22182372390057 l -3.8770794933873027 2.451117655224663 a25.586907799138586,25.586907799138586 0 0,0 -0.23215289034722192,-0.37430437832924324 l 3.9186970234024803 -2.3840169455301554" fill="#ff3905" stroke="none" /><path d="M 82.05923443525364 110.91462005526583 l -14.689119730499009 8.93641691187062 a38.19388803266156,38.19388803266156 0 0,0 -0.3368684997661598,-0.5646109822479892 l 14.8407691059634 -8.68224383573652" fill="#ffe015" stroke="none" /><line stroke="#e1ed5e" stroke-width="0.3" x1="26.63291911575756" x2="22.317208475507996" y1="142.92168965132927" y2="145.44649492493687" /><path d="M 25.769776987707644 143.4266507060508 a86.0,86.0 0 0,1 -11.730757126820373,-40.83630448921669" fill="none" id="id45" stroke="none" /><text fill="#e1ed5e" style="font-size:6.75px; font-family:Arial;" text-anchor="middle"><textPath startOffset="21.46611528233685" xlink:href="#id45">September</textPath></text><path d="M 81.51974371655577 109.97397251340807 l -2.26971968543667 1.2249896001695166 a23.579191146654743,23.579191146654743 0 0,0 -0.18969739058634721,-0.35883597366119063 l 2.2904695842479033 -1.1857386114222" fill="#ff1d02" stroke="none" /><path d="M 81.35079622478065 109.6543875284942 l -0.8280345621239781 0.42865993884169773 a21.93241116426157,21.93241116426157 0 0,0 -0.1706773241551505,-0.33676255272005495 l 0.8352905560653953 -0.4143431744189578" fill="#ff0500" stroke="none" /><path d="M 81.02952815118164 109.00673069616217 l -12.714675742182514 6.036626880527318 a35.07493670762144,35.07493670762144 0 0,0 -0.2542521752207858,-0.5476365660902055 l 12.816702534243127 -5.816870247158286" fill="#ffb811" stroke="none" /><path d="M 80.87730276802145 108.67885076344099 l -20.36564189423246 9.242962148987477 a43.36496633245245,43.36496633245245 0 0,0 -0.3026439250642285,-0.6823821553570071 l 20.521726904027968 -8.891031657137775" fill="#e0ff1b" stroke="none" /><path d="M 80.58989483394504 108.01547362559985 l -13.108152791148758 5.413059438829443 a35.181850446412184,35.181850446412184 0 0,0 -0.22633219147132574,-0.5617379378638994 l 13.19938759687747 -5.186622133122738" fill="#ffba11" stroke="none" /><path d="M 80.20201598880116 107.00284435728193 l -5.280933394076565 1.8679454735882184 a26.601560300931496,26.601560300931496 0 0,0 -0.14898035250505498,-0.43300664053688015 l 5.312304577524849 -1.7767661299620412" fill="#ff4706" stroke="none" /><path d="M 80.0844068197444 106.66101706037122 l -17.896672407997407 5.985763976728094 a39.87114871077729,39.87114871077729 0 0,0 -0.2120912510417764,-0.6527497517101818 l 17.997055910055433 -5.676815325040109" fill="#fff417" stroke="none" /><path d="M 79.97269907076064 106.31721596034903 l -24.561373192082122 7.7473993767468174 a46.75428605462685,46.75428605462685 0 0,0 -0.23549293976997632,-0.7696045526985922 l 24.69109290435823 -7.3234678514961775" fill="#b9ff1f" stroke="none" /><path d="M 79.86692584326677 105.97154293290107 l -18.95788744165037 5.622978284071961 a40.77420999770736,40.77420999770736 0 0,0 -0.1937888753773059,-0.6746044979004375 l 19.051868953913782 -5.295816310666928" fill="#ffff18" stroke="none" /><path d="M 79.76711848015287 105.62410040840567 l -16.576353174593237 4.607701308765975 a38.20483641072042,38.20483641072042 0 0,0 -0.17066996174940394,-0.6351264184537047 l 16.65321121268442 -4.321683957136732" fill="#ffe015" stroke="none" /><path d="M 79.58551787078972 104.9243191809786 l -1.4241790421170724 0.34353612939365447 a22.46502662644891,22.46502662644891 0 0,0 -0.08744183632385445,-0.37669714231768975 l 1.4298814443714818 -0.31897032972739053" fill="#ff0d01" stroke="none" /><path d="M 79.4281124754447 104.21870165774334 l -22.017940690706496 4.51524551556608 a43.47614634062762,43.47614634062762 0 0,0 -0.14403040070843798,-0.7344079102058293 l 22.0924010243906 -4.135573878292296" fill="#dfff1b" stroke="none" /><path d="M 79.35854240842038 103.8639653848113 l -52.712923957600076 9.867564468288583 a74.62854818746783,74.62854818746783 0 0,0 -0.22549747074076779,-1.2647095695201245 l 52.87496787068003 -8.958736148035245" fill="#41ffd2" stroke="none" /><path d="M 79.23777060512086 103.15116336523772 l -16.91449675618832 2.567178191985447 a38.10820283912109,38.10820283912109 0 0,0 -0.09284963630074126,-0.6493901400318494 l 16.956180443505662 -2.275642579973197" fill="#ffdf14" stroke="none" /><path d="M 79.1416061653843 102.43462659150553 l -1.3961800926893382 0.1629644740215324 a22.405658660918476,22.405658660918476 0 0,0 -0.041416004884279954,-0.38346076825372327 l 1.39877839907467 -0.13890738388302706" fill="#ff0c01" stroke="none" /><path d="M 79.07016306316243 101.71520430193888 l -11.29791218421574 0.9258661517418643 a32.33578615946824,32.33578615946824 0 0,0 -0.04068679755368124,-0.5551390268087878 l 11.312175540433756 -0.7312539884363158" fill="#ff950d" stroke="none" /><path d="M 79.0095281055655 100.63252640178507 l -22.813568741424195 0.687463560631793 a43.82392439671328,43.82392439671328 0 0,0 -0.016231416040695636,-0.7542101232864579 l 22.822022220149897 -0.2946636215552063" fill="#dbff1b" stroke="none" /><line stroke="#e1ed5e" stroke-width="0.3" x1="15.007084014347285" x2="10.007500721073583" y1="101.09737516637583" y2="101.16192664675087" /><path d="M 14.007167355692545 101.11028546245083 a86.0,86.0 0 0,1 10.666146001902534,-42.60595125391555" fill="none" id="id46" stroke="none" /><text fill="#e1ed5e" style="font-size:6.75px; font-family:Arial;" text-anchor="middle"><textPath startOffset="22.20632615414155" xlink:href="#id46">October</textPath></text><path d="M 79.00175016825051 100.2711162175752 l -1.8077709285001111 0.023340803176667924 a22.807921603118643,22.807921603118643 0 0,0 -0.0016896354980368788,-0.39261178482862014 l 1.807904861287651 0.007780459855627604" fill="#ff1202" stroke="none" /><path d="M 79.01574976396665 99.18683210126434 l -0.565550130131326 -0.02191582762194025 a21.565974604723493,21.565974604723493 0 0,0 0.017567429067372183,-0.37082066212456644 l 0.565089092830455 0.03164759636951578" fill="#ff0000" stroke="none" /><path d="M 79.05617556472873 98.46500227214037 l -6.180461739558349 -0.4529733696281619 a27.197038985494356,27.197038985494356 0 0,0 0.03823841022038011,-0.4666054590300523 l 6.171748845518472 0.5592927458659926" fill="#ff5007" stroke="none" /><path d="M 79.08570108090925 98.10471618934814 l -9.241472486024774 -0.8374755117112367 a30.279341514497077,30.279341514497077 0 0,0 0.05150786244510737,-0.5186771455677035 l 9.225687497897438 0.9964281879833704" fill="#ff7a0b" stroke="none" /><path d="M 79.12142395522702 97.74499172005258 l -32.8651542710469 -3.549628808211475 a54.056288810690724,54.056288810690724 0 0,0 0.1078799991424807,-0.9242499514475341 l 32.79918391890082 4.114822497983871" fill="#6aff28" stroke="none" /><path d="M 79.26566170972629 96.67025291283419 l -5.437773115375194 -0.8732571514029294 a26.50744537029407,26.50744537029407 0 0,0 0.07622548960792579,-0.4498871545435532 l 5.421935764247045 0.9667300942623105" fill="#ff4606" stroke="none" /><path d="M 79.32604984820605 96.31383870115002 l -62.021850455381816 -11.05848389654995 a84.0,84.0 0 0,0 0.2660571043605535,-1.4212876901497093 l 61.8223076271114 12.124449664162231" fill="#4dd2ff" stroke="none" /><path d="M 79.62865764111835 94.90015583598534 l -1.4853918551812078 -0.3718589992975136 a22.531230903161642,22.531230903161642 0 0,0 0.0974246863563888,-0.3754170585619124 l 1.4787708369545116 0.3973724834082898" fill="#ff0e01" stroke="none" /><path d="M 79.81627453868168 94.20196356495316 l -29.667661121610745 -8.522419731450638 a51.86748701313006,51.86748701313006 0 0,0 0.25388913317070927,-0.8559879420026856 l 29.51656609132833 9.031837060199864" fill="#81ff25" stroke="none" /><path d="M 80.14247586403 93.16781622104843 l -3.167940502637156 -1.0899622514165963 a24.35020368601106,24.35020368601106 0 0,0 0.13977819219058346,-0.395171772056574 l 3.148709229636763 1.1443316498997813" fill="#ff2803" stroke="none" /><path d="M 80.2630227832202 92.82701384747504 l -13.130346474079946 -4.771946200371454 a34.97059301062855,34.97059301062855 0 0,0 0.21048202352002388,-0.563987177955396 l 13.046259862058296 4.997256515356192" fill="#ffb711" stroke="none" /><path d="M 80.38941819471856 92.48833698450439 l -1.263696374089519 -0.48404791914473877 a22.353229808242247,22.353229808242247 0 0,0 0.14072576960126068,-0.3581317339417518 l 1.2551770546065673 0.505728657982254" fill="#ff0b01" stroke="none" /><line stroke="#e1ed5e" stroke-width="0.3" x1="26.266209847984243" x2="21.928928074336255" y1="57.711370442889674" y2="55.22380399835377" /><path d="M 25.398753493254645 57.213857153982495 a86.0,86.0 0 0,1 29.58750427330803,-30.492523968695096" fill="none" id="id47" stroke="none" /><text fill="#e1ed5e" style="font-size:6.75px; font-family:Arial;" text-anchor="middle"><textPath startOffset="21.46611528233685" xlink:href="#id47">November</textPath></text><line stroke="#e1ed5e" stroke-width="0.3" x1="56.762969772571076" x2="54.21961505331055" y1="26.818313649435495" y2="22.513508569990535" /><path d="M 56.25429882871897 25.957352633546506 a86.0,86.0 0 0,1 42.265352541879196,-11.944610805530505" fill="none" id="id48" stroke="none" /><text fill="#e1ed5e" style="font-size:6.75px; font-family:Arial;" text-anchor="middle"><textPath startOffset="22.20632615414155" xlink:href="#id48">December</textPath></text></svg>