<?xml version="1.0" encoding="utf-8" ?>
<svg baseProfile="full" height="200mm" version="1.1" viewBox="0,0,200,200" width="200mm" xmlns="http://www.w3.org/2000/svg" xmlns:ev="http://www.w3.org/2001/xml-events" xmlns:xlink="http://www.w3.org/1999/xlink"><defs /><rect fill="#1a1a1a" height="200" width="200" x="0" y="0" /><rect fill="#1a1a1a" height="200" width="180" x="10" y="0" /><text alignment-baseline="middle" fill="#e1ed5e" style="dominant-baseline: central; font-size:9.0px; font-family:Arial;" text-anchor="middle" x="100.0" y="100.0">2026</text><line stroke="#e1ed5e" stroke-width="0.3" x1="100.0" x2="100.0" y1="15.0" y2="10.0" /><path d="M 100.0 14.0 a86.0,86.0 0 0,1 42.46469731375804,11.215312516191453" fill="none" id="id49" stroke="none" /><text fill="#e1ed5e" style="font-size:6.75px; font-family:Arial;" text-anchor="middle"><textPath startOffset="22.20632615414155" xlink:href="#id49">January</textPath></text><path d="M 100.36148047927253 79.00311137660856 l 0.5963185309331767 -34.63764849284869 a55.64278119470891,55.64278119470891 0 0,0 0.9575151936879853,0.024729792507972397 l -1.1924603598160297 34.62225190819836" fill="#5bff2a" stroke="none" /><path d="M 100.72285384407766 79.0124445844662 l 0.07419955546845868 -2.1543321585143898 a23.15560957115174,23.15560957115174 0 0,0 0.39823146086832334,0.017148684407120238 l -0.11127184872611354 2.1527357475830744" fill="#ff1502" stroke="none" /><path d="M 102.16513564639614 79.11191278185805 l 0.15556907326675232 -1.5008484000761322 a22.508889544190748,22.508889544190748 0 0,0 0.3850448852997676,0.043264279280324856 l -0.1813806620762452 1.4979481673252064" fill="#ff0b01" stroke="none" /><path d="M 102.88285421437855 79.19881850522331 l 0.22575597591172758 -1.6289380867920733 a22.644507540652118,22.644507540652118 0 0,0 0.38563706283116234,0.05683287861194753 l -0.2537620191715457 1.6248107240191567" fill="#ff0d01" stroke="none" /><path d="M 103.59715602781102 79.31037775812273 l 6.038876080936127 -34.73356838405131 a56.25462802257983,56.25462802257983 0 0,0 0.9525914373986124,0.1740799963733622 l -6.63586263943764 34.624472906327206" fill="#54ff2b" stroke="none" /><path d="M 105.01212808612495 79.60689891045804 l 0.36200579676726036 -1.4729114423295844 a22.51674530288988,22.51674530288988 0 0,0 0.3755912254926447,0.09574656626556116 l -0.38730591094493005 1.4664618798951554" fill="#ff0b01" stroke="none" /><path d="M 105.36241919743992 79.69619591428918 l 0.4018900285364178 -1.5216819317855228 a22.5738587918106,22.5738587918106 0 0,0 0.37483581947953565,0.10245678896886916 l -0.4280237372396643 1.51453860199036" fill="#ff0c01" stroke="none" /><path d="M 106.0581310904928 79.89281104454417 l 4.179635765279004 -13.872384872842028 a35.48835453702924,35.48835453702924 0 0,0 0.5833856706957352,0.1812607676610974 l -4.417806808685457 13.79838397029841" fill="#ffbc11" stroke="none" /><path d="M 107.4271985657038 80.35727306442388 l 0.3416674038987511 -0.9036084680111685 a21.96604600219058,21.96604600219058 0 0,0 0.3525203476728565,0.13677241816487162 l -0.35717091657127464 0.89759334595575" fill="#ff0300" stroke="none" /><path d="M 107.76421540070413 80.48803036053334 l 0.48659631188927216 -1.2228476380754296 a22.31610497935799,22.31610497935799 0 0,0 0.3556933478357155,0.14509624751027397 l -0.5075735293133751 1.2142905043815764" fill="#ff0901" stroke="none" /><path d="M 108.43124777332544 80.76684994638697 l 22.24992719528828 -50.755973485068054 a76.41866206083074,76.41866206083074 0 0,0 1.2002019633574394,0.5384956359109822 l -23.1203112771125 50.36545751864054" fill="#44ffe4" stroke="none" /><path d="M 109.41281617654863 81.2277094730956 l 1.3772578216228326 -2.7467108114115133 a24.072663240374084,24.072663240374084 0 0,0 0.36881556825704975,0.18892165893565002 l -1.424333877468638 2.722596627163363" fill="#ff2203" stroke="none" /><path d="M 109.73455568895987 81.39251694778311 l 0.6703876593682724 -1.2814377367276992 a22.446202712949702,22.446202712949702 0 0,0 0.34081347245969873,0.18205075386997024 l -0.6923461783562822 1.269708256355975" fill="#ff0a01" stroke="none" /><path d="M 110.36928655335952 81.73862282372117 l 1.5881546516997729 -2.7969032353103436 a24.216349313337265,24.216349313337265 0 0,0 0.3607120568082333,0.20894770565557338 l -1.6360634409733343 2.7691513722647207" fill="#ff2403" stroke="none" /><line stroke="#e1ed5e" stroke-width="0.3" x1="143.23703022742887" x2="145.7803849466894" y1="26.81831364943548" y2="22.513508569990506" /><path d="M 143.74570117128098 25.957352633546492 a86.0,86.0 0 0,1 28.547481713284135,27.462654790039103" fill="none" id="id50" stroke="none" /><text fill="#e1ed5e" style="font-size:6.75px; font-family:Arial;" text-anchor="middle"><textPath startOffset="19.985693538727396" xlink:href="#id50">February</textPath></text><path d="M 112.77801427241765 83.33499621200491 l 0.8035647361136169 -1.0480039453500314 a22.320616732664924,22.320616732664924 0 0,0 0.30288805321777085,0.2364089298671614 l -0.8214853444908181 1.034016626259646" fill="#ff0901" stroke="none" /><path d="M 114.42810811169701 84.74124197986012 l 0.7060279038902713 -0.7466750912542969 a22.027618164967564,22.027618164967564 0 0,0 0.273264935013406,0.2628806509753723 l -0.7187760825160955 0.7344113535166227" fill="#ff0400" stroke="none" /><path d="M 115.68641384162765 86.03803664274999 l 0.7889331770680935 -0.702203589727594 a22.05617490942792,22.05617490942792 0 0,0 0.2499785279425696,0.28576867059629496 l -0.8009035685885113 0.6885193629283513" fill="#ff0500" stroke="none" /><path d="M 115.9244219780498 86.31012108654704 l 0.5509884888133558 -0.4736728092836576 a21.72660460021906,21.72660460021906 0 0,0 0.24136125039014672,0.2856955912046465 l -0.5590603526906197 0.46411826844990456" fill="#ff0000" stroke="none" /><path d="M 117.04232023915458 87.72973835380427 l 13.346854845852082 -9.609571866637136 a37.446349313337265,37.446349313337265 0 0,0 0.3721228826718582,0.5263414274579007 l -13.510290348327823 9.378403938847441" fill="#ffd513" stroke="none" /><line stroke="#e1ed5e" stroke-width="0.3" x1="172.23445277983987" x2="176.4835382374775" y1="55.19839476539836" y2="52.563006222186495" /><path d="M 173.08426987136738 54.67131705675599 a86.0,86.0 0 0,1 12.851231095245387,41.99856678651699" fill="none" id="id51" stroke="none" /><text fill="#e1ed5e" style="font-size:6.75px; font-family:Arial;" text-anchor="middle"><textPath startOffset="22.20632615414155" xlink:href="#id51">March</textPath></text><path d="M 118.89224826269711 90.83032412892265 l 11.675294821757138 -5.666804063027735 a33.977872609318396,33.977872609318396 0 0,0 0.2508567018458783,0.5283681905224984 l -11.771109717444773 5.464993456864696" fill="#ffa90f" stroke="none" /><path d="M 119.61058180528143 92.48833698450437 l 1.0648104768920423 -0.4078664038222521 a22.140252759288902,22.140252759288902 0 0,0 0.13325839800896894,0.35706625475683873 l -1.0716734634026366 0.38947701203608004" fill="#ff0601" stroke="none" /><path d="M 119.85752413597 93.16781622104841 l 59.57257240790998 -20.496551336854747 a84.0,84.0 0 0,0 0.45865082491291975,1.371307588310744 l -59.91656052659467 19.46807064562169" fill="#4dd2ff" stroke="none" /><path d="M 120.53481517161879 95.60439243477599 l 60.18228542798548 -12.882400299630756 a82.54562305164714,82.54562305164714 0 0,0 0.2854533935783751,1.3919721237974712 l -60.39511811747885 11.844552519669874" fill="#4bdfff" stroke="none" /><line stroke="#e1ed5e" stroke-width="0.3" x1="184.98032266829074" x2="189.97916517819016" y1="98.17113171792111" y2="98.06355123074" /><path d="M 185.9800911702706 98.14961562048488 a86.0,86.0 0 0,1 -9.607161424134198,41.387399972396054" fill="none" id="id52" stroke="none" /><text fill="#e1ed5e" style="font-size:6.75px; font-family:Arial;" text-anchor="middle"><textPath startOffset="21.466115282336823" xlink:href="#id52">April</textPath></text><line stroke="#e1ed5e" stroke-width="0.3" x1="174.80103733775053" x2="179.2010983576182" y1="140.37084112569926" y2="142.7455964860345" /><path d="M 175.68104954172406 140.8457921977663 a86.0,86.0 0 0,1 -30.038265399797805,32.042727171017184" fill="none" id="id53" stroke="none" /><text fill="#e1ed5e" style="font-size:6.75px; font-family:Arial;" text-anchor="middle"><textPath startOffset="22.206326154141568" xlink:href="#id53">May</textPath></text><line stroke="#e1ed5e" stroke-width="0.3" x1="143.8653032363475" x2="146.44561519142675" y1="172.8068346515853" y2="177.08958963109032" /><path d="M 144.38136562736335 173.6633856474863 a86.0,86.0 0 0,1 -40.68145358897372,12.25698825130547" fill="none" id="id54" stroke="none" /><text fill="#e1ed5e" style="font-size:6.75px; font-family:Arial;" text-anchor="middle"><textPath startOffset="21.466115282336833" xlink:href="#id54">June</textPath></text><line stroke="#e1ed5e" stroke-width="0.3" x1="102.19456741930631" x2="102.32365962044197" y1="184.97166512339345" y2="189.96999836594603" /><path d="M 102.22038585953345 185.97133177190398 a86.0,86.0 0 0,1 -42.740103519485714,-10.115201625700543" fill="none" id="id55" stroke="none" /><text fill="#e1ed5e" style="font-size:6.75px; font-family:Arial;" text-anchor="middle"><textPath startOffset="22.20632615414155" xlink:href="#id55">July</textPath></text><line stroke="#e1ed5e" stroke-width="0.3" x1="58.666819895761336" x2="56.23545636021788" y1="174.27360380694188" y2="178.64263932499728" /><path d="M 58.180547188652646 175.14741091055294 a86.0,86.0 0 0,1 -31.652253787137756,-30.449443065178592" fill="none" id="id56" stroke="none" /><text fill="#e1ed5e" style="font-size:6.75px; font-family:Arial;" text-anchor="middle"><textPath startOffset="22.20632615414155" xlink:href="#id56">August</textPath></text><line stroke="#e1ed5e" stroke-width="0.3" x1="26.63291911575756" x2="22.317208475507996" y1="142.92168965132927" y2="145.44649492493687" /><path d="M 25.769776987707644 143.4266507060508 a86.0,86.0 0 0,1 -11.730757126820373,-40.83630448921669" fill="none" id="id57" stroke="none" /><text fill="#e1ed5e" style="font-size:6.75px; font-family:Arial;" text-anchor="middle"><textPath startOffset="21.46611528233685" xlink:href="#id57">September</textPath></text><line stroke="#e1ed5e" stroke-width="0.3" x1="15.007084014347285" x2="10.007500721073583" y1="101.09737516637583" y2="101.16192664675087" /><path d="M 14.007167355692545 101.11028546245083 a86.0,86.0 0 0,1 10.666146001902534,-42.60595125391555" fill="none" id="id58" stroke="none" /><text fill="#e1ed5e" style="font-size:6.75px; font-family:Arial;" text-anchor="middle"><textPath startOffset="22.20632615414155" xlink:href="#id58">October</textPath></text><line stroke="#e1ed5e" stroke-width="0.3" x1="26.266209847984243" x2="21.928928074336255" y1="57.711370442889674" y2="55.22380399835377" /><path d="M 25.398753493254645 57.213857153982495 a86.0,86.0 0 0,1 29.58750427330803,-30.492523968695096" fill="none" id="id59" stroke="none" /><text fill="#e1ed5e" style="font-size:6.75px; font-family:Arial;" text-anchor="middle"><textPath startOffset="21.46611528233685" xlink:href="#id59">November</textPath></text><line stroke="#e1ed5e" stroke-width="0.3" x1="56.762969772571076" x2="54.21961505331055" y1="26.818313649435495" y2="22.513508569990535" /><path d="M 56.25429882871897 25.957352633546506 a86.0,86.0 0 0,1 42.265352541879196,-11.944610805530505" fill="none" id="id60" stroke="none" /><text fill="#e1ed5e" style="font-size:6.75px; font-family:Arial;" text-anchor="middle"><textPath startOffset="22.20632615414155" xlink:href="#id60">December</textPath></text></svg>