<?xml version="1.0" encoding="utf-8" ?>
<svg baseProfile="full" height="200mm" version="1.1" viewBox="0,0,200,200" width="200mm" xmlns="http://www.w3.org/2000/svg" xmlns:ev="http://www.w3.org/2001/xml-events" xmlns:xlink="http://www.w3.org/1999/xlink"><defs /><rect fill="#1a1a1a" height="200" width="200" x="0" y="0" /><rect fill="#1a1a1a" height="200" width="180" x="10" y="0" /><text alignment-baseline="middle" fill="#e1ed5e" style="dominant-baseline: central; font-size:9.0px; font-family:Arial;" text-anchor="middle" x="100.0" y="100.0">2025</text><line stroke="#e1ed5e" stroke-width="0.3" x1="100.0" x2="100.0" y1="15.0" y2="10.0" /><path d="M 100.0 14.0 a86.0,86.0 0 0,1 42.46469731375804,11.215312516191453" fill="none" id="id37" stroke="none" /><text fill="#e1ed5e" style="font-size:6.75px; font-family:Arial;" text-anchor="middle"><textPath startOffset="22.20632615414155" xlink:href="#id37">January</textPath></text><path d="M 106.0581310904928 79.89281104454417 l 0.7817709294096307 -2.594730216747936 a23.709942929984834,23.709942929984834 0 0,0 0.3897628148392788,0.12110120383872897 l -0.8263191169596278 2.5808888780266863" fill="#ff2003" stroke="none" /><line stroke="#e1ed5e" stroke-width="0.3" x1="143.23703022742887" x2="145.7803849466894" y1="26.81831364943548" y2="22.513508569990506" /><path d="M 143.74570117128098 25.957352633546492 a86.0,86.0 0 0,1 28.547481713284135,27.462654790039103" fill="none" id="id38" stroke="none" /><text fill="#e1ed5e" style="font-size:6.75px; font-family:Arial;" text-anchor="middle"><textPath startOffset="19.985693538727396" xlink:href="#id38">February</textPath></text><path d="M 116.38621287248628 86.86637796730983 l 3.629050539713913 -2.908700045399871 a25.65086484150067,25.65086484150067 0 0,0 0.27317672623987527,0.34690670079375147 l -3.678581346547752 2.845800950653081" fill="#ff3b05" stroke="none" /><line stroke="#e1ed5e" stroke-width="0.3" x1="172.23445277983987" x2="176.4835382374775" y1="55.19839476539836" y2="52.563006222186495" /><path d="M 173.08426987136738 54.67131705675599 a86.0,86.0 0 0,1 12.851231095245387,41.99856678651699" fill="none" id="id39" stroke="none" /><text fill="#e1ed5e" style="font-size:6.75px; font-family:Arial;" text-anchor="middle"><textPath startOffset="22.20632615414155" xlink:href="#id39">March</textPath></text><path d="M 118.03404312379186 89.2402003453031 l 1.9015551459872333 -1.1345405055723592 a23.214293145004724,23.214293145004724 0 0,0 0.201787839410972,0.34492082804253876 l -1.9208026598685326 1.1016402651759252" fill="#ff1902" stroke="none" /><path d="M 120.08093135843002 93.85539295169968 l 5.228627357631695 -1.5999188454549556 a26.467932365804877,26.467932365804877 0 0,0 0.12955939823100246,0.43680988340801746 l -5.2553926529743995 1.5096795753004084" fill="#ff4606" stroke="none" /><path d="M 120.73433829027371 96.67025291283417 l 2.998207281662091 -0.4814849561664955 a24.036622246316824,24.036622246316824 0 0,0 0.06208786183278594,0.40908143456808843 l -3.0060510369341764 0.4298044092063249" fill="#ff2403" stroke="none" /><path d="M 120.96714384426684 98.82574320788733 l 1.13983758779465 -0.0638361638244386 a22.141623748159326,22.141623748159326 0 0,0 0.018036347151549125,0.38071878175203616 l -1.1407675431796958 0.04420627544940269" fill="#ff0901" stroke="none" /><line stroke="#e1ed5e" stroke-width="0.3" x1="184.98032266829074" x2="189.97916517819016" y1="98.17113171792111" y2="98.06355123074" /><path d="M 185.9800911702706 98.14961562048488 a86.0,86.0 0 0,1 -9.607161424134198,41.387399972396054" fill="none" id="id40" stroke="none" /><text fill="#e1ed5e" style="font-size:6.75px; font-family:Arial;" text-anchor="middle"><textPath startOffset="21.466115282336823" xlink:href="#id40">April</textPath></text><path d="M 120.89721153311464 102.0752229133903 l 1.7799502552381898 0.17676011694248564 a22.78870541176126,22.78870541176126 0 0,0 -0.042124052183576,0.39001640687956934 l -1.776643901553562 -0.20737284570684636" fill="#ff1202" stroke="none" /><path d="M 120.5718875245553 104.21870165774334 l 1.7589770890379393 0.3607155421494225 a22.79558238521894,22.79558238521894 0 0,0 -0.08213569781017827,0.3837106357873856 l -1.752507352503318 -0.39093999735297713" fill="#ff1302" stroke="none" /><path d="M 118.81262510543309 109.33194174019688 l 4.037425657979904 2.002751918431808 a25.506863786547886,25.506863786547886 0 0,0 -0.1984936004560999,0.39164670479263963 l -4.002353387737535 -2.0719528349271417" fill="#ff3905" stroke="none" /><line stroke="#e1ed5e" stroke-width="0.3" x1="174.80103733775053" x2="179.2010983576182" y1="140.37084112569926" y2="142.7455964860345" /><path d="M 175.68104954172406 140.8457921977663 a86.0,86.0 0 0,1 -30.038265399797805,32.042727171017184" fill="none" id="id41" stroke="none" /><text fill="#e1ed5e" style="font-size:6.75px; font-family:Arial;" text-anchor="middle"><textPath startOffset="22.206326154141568" xlink:href="#id41">May</textPath></text><path d="M 117.94076556474637 110.91462005526583 l 28.80476073727928 17.523946684194172 a54.71650854585015,54.71650854585015 0 0,0 -0.49644903199497836,0.8004339123889775 l -28.49884706561634 -18.017176927948423" fill="#63ff29" stroke="none" /><path d="M 117.75023020441432 111.22182372390056 l 1.6208224550424597 1.024695661338683 a22.917567894270288,22.917567894270288 0 0,0 -0.2136737303297322,0.33162637454296817 l -1.602943861335677 -1.0524436358031042" fill="#ff1402" stroke="none" /><path d="M 117.35343817320211 111.8261652097733 l 2.0078265757039633 1.3683103348082508 a23.429740877222542,23.429740877222542 0 0,0 -0.22998978713604143,0.33131744181834283 l -1.9839758814057855 -1.4026690388136134" fill="#ff1c02" stroke="none" /><path d="M 116.93607887273984 112.41649034213515 l 3.3111207322938037 2.4275098683169074 a25.105645462604123,25.105645462604123 0 0,0 -0.25851490350645834,0.34632295914865807 l -3.2688445620922533 -2.4841457069748802" fill="#ff3304" stroke="none" /><path d="M 116.71984013943494 112.70617746262583 l 22.424189177460438 17.0411753203482 a49.164621718840436,49.164621718840436 0 0,0 -0.5178513884885712,0.6693927266911429 l -22.1275309717538 -17.424646041152595" fill="#9eff22" stroke="none" /><path d="M 115.80600337817218 113.82643327865902 l 5.495040754216584 4.806832728924407 a28.300761177737566,28.300761177737566 0 0,0 -0.32389702368024265,0.3639017397135257 l -5.411484880888002 -4.9007086383787986" fill="#ff6008" stroke="none" /><path d="M 115.07121518719521 114.62390073753431 l 7.769682394122541 7.539077817053027 a31.826156235576818,31.826156235576818 0 0,0 -0.3848833687843789,0.3898848205551753 l -7.638758400282627 -7.671703131588867" fill="#ff8f0d" stroke="none" /><path d="M 114.55890576462653 115.13401014063108 l 13.462446806975846 13.994238975672452 a40.4184499520143,40.4184499520143 0 0,0 -0.5055465919934636,0.4780258573570869 l -13.219564380591574 -14.22389946977546" fill="#fffb17" stroke="none" /><path d="M 114.0293411484842 115.62618273729858 l 9.351688149230554 10.416111945349254 a34.99819485857039,34.99819485857039 0 0,0 -0.4517394452800405,0.3986075376149572 l -9.171006351043925 -10.575542624736501" fill="#ffb811" stroke="none" /><path d="M 113.20401910651253 116.32954008644616 l 20.995937147210462 25.965881640444895 a54.39246001802211,54.39246001802211 0 0,0 -0.7331132505129625,0.5824295043754908 l -20.54586640398015 -26.323445058825513" fill="#66ff29" stroke="none" /><path d="M 112.92097659922987 116.55440617244103 l 11.320363514782098 14.503694376673868 a39.398580941984925,39.398580941984925 0 0,0 -0.5382057623990105,0.412673228336504 l -11.069029023889593 -14.696406946837744" fill="#ffef16" stroke="none" /><path d="M 112.34349029814194 116.9893568818739 l 11.850542845682716 16.3108729205667 a41.16134770218097,41.16134770218097 0 0,0 -0.576793322745808,0.4115267209665788 l -11.568022195088023 -16.512443903377495" fill="#faff18" stroke="none" /><path d="M 111.1453310114006 117.79835938074945 l 7.1589802505437765 11.432419832890512 a34.48892958922776,34.48892958922776 0 0,0 -0.505871794550105,0.31074777357266187 l -6.961129256061363 -11.553956073291552" fill="#ffb110" stroke="none" /><line stroke="#e1ed5e" stroke-width="0.3" x1="143.8653032363475" x2="146.44561519142675" y1="172.8068346515853" y2="177.08958963109032" /><path d="M 144.38136562736335 173.6633856474863 a86.0,86.0 0 0,1 -40.68145358897372,12.25698825130547" fill="none" id="id42" stroke="none" /><text fill="#e1ed5e" style="font-size:6.75px; font-family:Arial;" text-anchor="middle"><textPath startOffset="21.466115282336833" xlink:href="#id42">June</textPath></text><path d="M 106.91757812671514 119.82793768551818 l 8.126404620249238 23.292811655474953 a45.66968842262581,45.66968842262581 0 0,0 -0.7444817444948156,0.25256862869986346 l -7.724253142817195 -23.429243271072938" fill="#c5ff1e" stroke="none" /><path d="M 106.57524785965236 119.94407469862006 l 3.229438581291219 9.795549259078873 a31.314167869361683,31.314167869361683 0 0,0 -0.5133714092219206,0.16436531349808664 l -3.060345826978358 -9.849687419236666" fill="#ff880c" stroke="none" /><path d="M 105.88484417918355 120.15858648285463 l 0.5395600948497792 1.848267941095347 a22.92541410559784,22.92541410559784 0 0,0 -0.3797636678872626,0.10732500590168859 l -0.5076652588579107 -1.8572817403355546" fill="#ff1402" stroke="none" /><path d="M 105.53697534728816 120.25689768951611 l 2.195785802251958 8.033232144711434 a29.327922548883144,29.327922548883144 0 0,0 -0.48811377253899274,0.12891528372459035 l -2.0571815869014682 -8.069838777739607" fill="#ff6e0a" stroke="none" /><path d="M 104.48393922423573 120.51570834832081 l 1.1146267636055012 5.099836651613148 a26.22022285877552,26.22022285877552 0 0,0 -0.4417589871742563,0.09257489090454465 l -1.026676315001867 -5.118267523244234" fill="#ff4306" stroke="none" /><path d="M 104.13013068566511 120.58985236759428 l 5.101411406125506 25.431957415548638 a46.93855925684437,46.93855925684437 0 0,0 -0.7935575553107078,0.152087194158197 l -4.662886236243094 -25.516001808055304" fill="#b7ff1f" stroke="none" /><path d="M 103.06178313531738 120.77559828337769 l 1.4521235352336856 9.85332203246527 a30.95974988827757,30.95974988827757 0 0,0 -0.5278952980475675,0.07316147811648206 l -1.2822996459992877 -9.876858076074354" fill="#ff830c" stroke="none" /><line stroke="#e1ed5e" stroke-width="0.3" x1="102.19456741930631" x2="102.32365962044197" y1="184.97166512339345" y2="189.96999836594603" /><path d="M 102.22038585953345 185.97133177190398 a86.0,86.0 0 0,1 -42.740103519485714,-10.115201625700543" fill="none" id="id43" stroke="none" /><text fill="#e1ed5e" style="font-size:6.75px; font-family:Arial;" text-anchor="middle"><textPath startOffset="22.20632615414155" xlink:href="#id43">July</textPath></text><path d="M 100.54218724476979 120.99299961872073 l 0.41627058372923104 16.11762041584502 a37.12299504025671,37.12299504025671 0 0,0 -0.6389403256887303,0.010999937147792412 l -0.1387705681478328 -16.122397830271975" fill="#ffd313" stroke="none" /><path d="M 99.09653310690486 120.98055641714683 l -1.1907979453090947 27.65303705528162 a48.678664312559064,48.678664312559064 0 0,0 -0.8368370776442053,-0.043254918220488506 l 1.666623091366789 -27.62844233029893" fill="#a3ff21" stroke="none" /><path d="M 97.65516085044442 120.86867818915974 l -2.593776999414958 23.084183623211057 a44.22944710217657,44.22944710217657 0 0,0 -0.7558445551700175,-0.09152224945691646 l 2.9907489776363647 -23.03611584502879" fill="#d6ff1c" stroke="none" /><path d="M 96.58105272829116 120.7198165907248 l -1.6712462691624905 10.128239315510795 a31.265198279840877,31.265198279840877 0 0,0 -0.530244405928363,-0.09218978668144474 l 1.8453396465629035 -10.097970950308344" fill="#ff870c" stroke="none" /><path d="M 96.22490169976321 120.6578951692458 l -4.070971377151375 22.27695632214882 a43.64587359614356,43.64587359614356 0 0,0 -0.7378904103305295,-0.1414184533338204 l 4.4538294020536 -22.20358067046653" fill="#dcff1b" stroke="none" /><path d="M 95.16358092515715 120.4354850818985 l -5.327636322792645 22.51104193235101 a44.132892548663364,44.132892548663364 0 0,0 -0.7377479506661483,-0.18132049695527613 l 5.714337558202004 -22.416000177081703" fill="#d7ff1c" stroke="none" /><path d="M 94.11515582081647 120.15858648285463 l -0.6207974071145979 2.126547082405126 a23.21530853705888,23.21530853705888 0 0,0 -0.38263806003652784,-0.1152857086611373 l 0.6573104415913715 -2.115546004638263" fill="#ff1902" stroke="none" /><path d="M 93.76903079525671 120.05430185196036 l -5.458519651326015 17.568181956222528 a39.39664246624517,39.39664246624517 0 0,0 -0.6458772893434297,-0.20678951191521533 l 5.760118285760385 -17.471619597647607" fill="#ffef16" stroke="none" /><path d="M 93.08242187328487 119.8279376855182 l -8.620414538427424 24.70879824705924 a47.16937633242735,47.16937633242735 0 0,0 -0.7643245763438167,-0.2740595997110037 l 9.044458675400968 -24.556751106308276" fill="#b4ff20" stroke="none" /><path d="M 92.7421414339146 119.70592522655815 l -4.722172842480586 12.82124528791914 a34.66320778906805,34.66320778906805 0 0,0 -0.5581267998789534,-0.2110357987023682 l 4.9421698631198225 -12.738061239110138" fill="#ffb410" stroke="none" /><path d="M 92.40401165467489 119.57807347666478 l -0.3889007578905678 1.002361676581308 a22.075161722796505,22.075161722796505 0 0,0 -0.35307531265023107,-0.14049595354753167 l 0.40609714658265694 -0.9955188786277096" fill="#ff0801" stroke="none" /><path d="M 92.06813273071674 119.44442032107085 l -0.3486211949929157 0.8546205853100206 a21.922991377226207,21.922991377226207 0 0,0 -0.3481877770236179,-0.14554251903473764 l 0.3632804315139959 -0.8484930232553098" fill="#ff0601" stroke="none" /><path d="M 91.7346041902142 119.30500536409082 l -0.9113074371102665 2.1284878990211946 a23.315370808577352,23.315370808577352 0 0,0 -0.3675827255908731,-0.16113746463849346 l 0.9478108373588829 -2.112485881088249" fill="#ff1a02" stroke="none" /><path d="M 91.40352486487194 119.15986991738527 l -7.348056270494293 16.37738725178092 a38.95028535007582,38.95028535007582 0 0,0 -0.6093531100710158,-0.27972412595089136 l 7.628877376332729 -16.248476055495956" fill="#ffe915" stroke="none" /><path d="M 91.07499286063937 119.00905698771935 l -6.030955930197748 12.845119693177713 a35.19047319027978,35.19047319027978 0 0,0 -0.546101400942347,-0.26216185897981303 l 6.2511699991403376 -12.739403557698337" fill="#ffba11" stroke="none" /><path d="M 90.10565033884886 118.52300852407294 l -0.3437170032252717 0.6434655332233119 a21.729513036725542,21.729513036725542 0 0,0 -0.32840246414569857,-0.1790712077958759 l 0.3547422792396109 -0.6374536736676703" fill="#ff0300" stroke="none" /><line stroke="#e1ed5e" stroke-width="0.3" x1="58.666819895761336" x2="56.23545636021788" y1="174.27360380694188" y2="178.64263932499728" /><path d="M 58.180547188652646 175.14741091055294 a86.0,86.0 0 0,1 -31.652253787137756,-30.449443065178592" fill="none" id="id44" stroke="none" /><text fill="#e1ed5e" style="font-size:6.75px; font-family:Arial;" text-anchor="middle"><textPath startOffset="22.20632615414155" xlink:href="#id44">August</textPath></text><path d="M 89.7882731507175 118.34994917583269 l -0.5981422550939449 1.074830941219608 a22.230055165239307,22.230055165239307 0 0,0 -0.3327640596477411,-0.1889521176764705 l 0.6165550816628933 -1.0643756577485044" fill="#ff0a01" stroke="none" /><path d="M 89.4739219176387 118.17145234162733 l -6.9355101512844515 11.972958132443035 a34.83665521359131,34.83665521359131 0 0,0 -0.5162993508750587,-0.30503875700883637 l 7.1405773731878925 -11.85180080314045" fill="#ffb610" stroke="none" /><path d="M 89.1626897886671 117.98757091392108 l -3.3136211912189104 5.4998883483645296 a27.420970116997193,27.420970116997193 0 0,0 -0.40220138828903473,-0.2470649427090603 l 3.4078017794402538 -5.442034938827091" fill="#ff5407" stroke="none" /><path d="M 88.8546689885994 117.79835938074946 l -10.167849742894004 16.237386190537773 a40.15823266104513,40.15823266104513 0 0,0 -0.5827116328311455,-0.3719141341195202 l 10.445843177772073 -16.05995762759445" fill="#fff817" stroke="none" /><path d="M 88.54995079064634 117.60387380957326 l -7.363945486532028 11.321695192330436 a34.50586817485842,34.50586817485842 0 0,0 -0.49511862490611325,-0.3281376265943487 l 7.557738810178103 -11.19325954464477" fill="#ffb210" stroke="none" /><path d="M 87.95078237400918 117.19931262002967 l -0.5973277887131376 0.852638544144768 a22.041053780613776,22.041053780613776 0 0,0 -0.30886094252607665,-0.22036408172571556 l 0.6119160590881012 -0.8422302005748332" fill="#ff0801" stroke="none" /><path d="M 87.36589467227662 116.77436683061367 l -10.352794957361711 13.745459281223678 a38.208079912673355,38.208079912673355 0 0,0 -0.5219428793510035,-0.4002035431001999 l 10.587866565206202 -13.565216396296112" fill="#ffe015" stroke="none" /><path d="M 87.07902340077011 116.55440617244103 l -8.883591465111293 11.381692417293605 a35.43818269730914,35.43818269730914 0 0,0 -0.4776434325803198,-0.3794688303769051 l 9.07819239040897 -11.22708967291157" fill="#ffbe11" stroke="none" /><path d="M 86.51685102203217 116.09983520530335 l -11.533273795657433 13.771546082531982 a38.96307005912131,38.96307005912131 0 0,0 -0.5104802719910047,-0.43504236242373 l 11.768619544225494 -13.5709793298853" fill="#ffea16" stroke="none" /><path d="M 85.97065885151581 115.62618273729859 l -0.5952800977574256 0.6630358110893563 a21.89105268170463,21.89105268170463 0 0,0 -0.27822532492341834,-0.2541522376587582 l 0.6066049721476986 -0.6526908068440221" fill="#ff0600" stroke="none" /><path d="M 85.70375840098266 115.38237550388516 l -1.13217636804092 1.21819164213253 a22.66307372215181,22.66307372215181 0 0,0 -0.28346558806516226,-0.2680344065455231 l 1.1529777904968992 -1.1985225988410761" fill="#ff1101" stroke="none" /><path d="M 85.44109423537348 115.13401014063109 l -13.836917405654413 14.38350187285663 a40.958592370640076,40.958592370640076 0 0,0 -0.5038882995035855,-0.4931607554929889 l 14.082455657533794 -14.143191014441072" fill="#fcff18" stroke="none" /><path d="M 85.18274418774928 114.88116024355367 l -14.645841159739536 14.709006307329986 a41.75705975867955,41.75705975867955 0 0,0 -0.5049807998015716,-0.5115428841113223 l 14.89686258459664 -14.454722929237999" fill="#f3ff19" stroke="none" /><path d="M 84.43433777217949 114.09645910891817 l -8.82257935426968 7.989838612864595 a32.90274873808599,32.90274873808599 0 0,0 -0.37656592768777486,-0.4230758117052097 l 8.958804131605794 -7.836788631418521" fill="#ff9d0e" stroke="none" /><path d="M 84.19399662182784 113.82643327865904 l -1.2266590640663402 1.0730302467477335 a22.62975040110184,22.62975040110184 0 0,0 -0.2539461994553963,-0.29539680120002665 l 1.2449477730925154 -1.0517563463861765" fill="#ff1001" stroke="none" /><path d="M 83.72743513129214 113.27417163493432 l -11.115316152579998 9.067200873147966 a35.34448970322127,35.34448970322127 0 0,0 -0.38051219187903496,-0.4747474657932628 l 11.269746256513894 -8.874525573776443" fill="#ffbc11" stroke="none" /><path d="M 83.50135304334701 112.99209946851258 l -1.2435357007702428 0.979240271005291 a22.582811595689346,22.582811595689346 0 0,0 -0.23786495109596367,-0.3074725138096188 l 1.2602074690842748 -0.9576897630824195" fill="#ff1001" stroke="none" /><path d="M 82.6465618267979 111.8261652097733 l -34.55972065526007 23.552045536651388 a62.82192177232068,62.82192177232068 0 0,0 -0.6012862470650705,-0.8988413557729523 l 34.960010007735875 -22.953667266672614" fill="#33ff52" stroke="none" /><path d="M 82.44556493220864 111.52570212397912 l -1.4187173964193667 0.9314862053999513 a22.697181664334536,22.697181664334536 0 0,0 -0.2116189421392569,-0.32843729764048657 l 1.4345412019356691 -0.9069273078380164" fill="#ff1101" stroke="none" /><path d="M 82.24976979558568 111.22182372390057 l -3.4813332910457766 2.200924048103148 a25.118707096755287,25.118707096755287 0 0,0 -0.22790485275025438,-0.3674551891183142 l 3.518702783463987 -2.1406725276195693" fill="#ff3404" stroke="none" /><path d="M 82.05923443525364 110.91462005526583 l -13.189753168889983 8.024247568568452 a36.43885156667814,36.43885156667814 0 0,0 -0.3213891513210589,-0.538666703883541 l 13.325923195909272 -7.796018770798799" fill="#ffca12" stroke="none" /><line stroke="#e1ed5e" stroke-width="0.3" x1="26.63291911575756" x2="22.317208475507996" y1="142.92168965132927" y2="145.44649492493687" /><path d="M 25.769776987707644 143.4266507060508 a86.0,86.0 0 0,1 -11.730757126820373,-40.83630448921669" fill="none" id="id45" stroke="none" /><text fill="#e1ed5e" style="font-size:6.75px; font-family:Arial;" text-anchor="middle"><textPath startOffset="21.46611528233685" xlink:href="#id45">September</textPath></text><path d="M 81.51974371655577 109.97397251340807 l -2.0380419632173097 1.0999508995182168 a23.31592465878871,23.31592465878871 0 0,0 -0.1875793804533277,-0.3548294966824766 l 2.0566738518955234 -1.0647063877496141" fill="#ff1a02" stroke="none" /><path d="M 81.35079622478065 109.6543875284942 l -0.743514362337772 0.3849052149104779 a21.83723690283445,21.83723690283445 0 0,0 -0.16993668108826815,-0.33530119368427014 l 0.7500297132123068 -0.3720498095235228" fill="#ff0500" stroke="none" /><path d="M 81.02952815118164 109.00673069616217 l -11.4168471452825 5.420448603296721 a33.6382618187679,33.6382618187679 0 0,0 -0.24383796639067487,-0.525205286761658 l 11.508459728513001 -5.223123249256236" fill="#ffa70f" stroke="none" /><path d="M 80.87730276802145 108.67885076344099 l -18.286854123273326 8.299502729316803 a41.08210096777266,41.08210096777266 0 0,0 -0.2867118168950856,-0.6464594573893098 l 18.42700702489969 -7.9834949354347975" fill="#fbff18" stroke="none" /><path d="M 80.58989483394504 108.01547362559985 l -11.770160703120293 4.860530732719749 a33.734262522069756,33.734262522069756 0 0,0 -0.21701955603269543,-0.5386247404288927 l 11.852082873410376 -4.657206624448051" fill="#ffa80f" stroke="none" /><path d="M 80.20201598880116 107.00284435728193 l -4.741891226102226 1.6772781610880734 a26.02979069443732,26.02979069443732 0 0,0 -0.14577819306164083,-0.42369966629670874 l 4.770060250107095 -1.5954057917020676" fill="#ff4006" stroke="none" /><path d="M 80.0844068197444 106.66101706037122 l -16.069900439020437 5.374777442677624 a37.94490875391028,37.94490875391028 0 0,0 -0.20184477820443494,-0.6212143509445825 l 16.160037468241118 -5.097364191755238" fill="#ffdd14" stroke="none" /><path d="M 79.97269907076064 106.31721596034903 l -22.054313385431808 6.956596947598796 a44.125461724994324,44.125461724994324 0 0,0 -0.22225202387189819,-0.7263324734294061 l 22.170792181809837 -6.575937501617342" fill="#d7ff1c" stroke="none" /><path d="M 79.86692584326677 105.97154293290107 l -17.022793778431076 5.04902247388913 a38.755791617521005,38.755791617521005 0 0,0 -0.1841958746064954,-0.6412100037337769 l 17.107182289923674 -4.755254994650757" fill="#ffe715" stroke="none" /><path d="M 79.76711848015287 105.62410040840567 l -14.884350514161369 4.137378144750815 a36.44868240792973,36.44868240792973 0 0,0 -0.16282481007121888,-0.6059316905911191 l 14.953363400574364 -3.8805555209841573" fill="#ffca12" stroke="none" /><path d="M 79.58551787078972 104.9243191809786 l -1.2788084227285565 0.30847027149558304 a22.3154865603411,22.3154865603411 0 0,0 -0.08685977344888494,-0.37418963068632183 l 1.2839287621079967 -0.28641198346068697" fill="#ff0c01" stroke="none" /><path d="M 79.4281124754447 104.21870165774334 l -19.77049736987965 4.054359617179787 a41.18193246836973,41.18193246836973 0 0,0 -0.13642999057219335,-0.6956535826651741 l 19.83735729342751 -3.7134423074466585" fill="#f9ff18" stroke="none" /><path d="M 79.35854240842038 103.8639653848113 l -47.33234316060635 8.860349844150546 a69.15450662642218,69.15450662642218 0 0,0 -0.20895711779641124,-1.1719424862209227 l 47.47784672074195 -8.044288607196409" fill="#3bff99" stroke="none" /><path d="M 79.23777060512086 103.15116336523772 l -15.187978672874188 2.3051379057480825 a36.36191254148382,36.36191254148382 0 0,0 -0.08859484581125951,-0.6196321452582212 l 15.225407569702046 -2.0433602885094606" fill="#ffc912" stroke="none" /><path d="M 79.1416061653843 102.43462659150553 l -1.2536674177728095 0.14633015640679087 a22.262178477498004,22.262178477498004 0 0,0 -0.04115078724139473,-0.3810051822700107 l 1.2560005065152562 -0.12472865225199808" fill="#ff0b01" stroke="none" /><path d="M 79.07016306316243 101.71520430193888 l -10.144697283949364 0.8313599611792648 a31.17870533850065,31.17870533850065 0 0,0 -0.039230890068278394,-0.5352743258943496 l 10.157504732681979 -0.6566124987881545" fill="#ff860c" stroke="none" /><path d="M 79.0095281055655 100.63252640178507 l -20.4849130595702 0.6172919033747678 a41.494211679206444,41.494211679206444 0 0,0 -0.015368541779804727,-0.7141157469821614 l 20.492503664035013 -0.26458634060247754" fill="#f6ff19" stroke="none" /><line stroke="#e1ed5e" stroke-width="0.3" x1="15.007084014347285" x2="10.007500721073583" y1="101.09737516637583" y2="101.16192664675087" /><path d="M 14.007167355692545 101.11028546245083 a86.0,86.0 0 0,1 10.666146001902534,-42.60595125391555" fill="none" id="id46" stroke="none" /><text fill="#e1ed5e" style="font-size:6.75px; font-family:Arial;" text-anchor="middle"><textPath startOffset="22.20632615414155" xlink:href="#id46">October</textPath></text><path d="M 79.00175016825051 100.2711162175752 l -1.623245828904517 0.020958330949177657 a22.623381123671237,22.623381123671237 0 0,0 -0.0016759645397477004,-0.38943513558062076 l 1.623366090733768 0.006986282835118495" fill="#ff1001" stroke="none" /><path d="M 79.01574976396665 99.18683210126434 l -0.5078225760239196 -0.019678807316489397 a21.5082037231042,21.5082037231042 0 0,0 0.017520369480054285,-0.36982730861440816 l 0.5074085983103664 0.028417222553906624" fill="#ff0000" stroke="none" /><path d="M 79.05617556472873 98.46500227214037 l -5.549601767169596 -0.40673689418371023 a26.56448691931809,26.56448691931809 0 0,0 0.0373490565887183,-0.4557530920736345 l 5.54177822676138 0.5022039034651231" fill="#ff4806" stroke="none" /><path d="M 79.08570108090925 98.10471618934814 l -8.298165121131738 -0.7519916432790762 a29.33216873383688,29.33216873383688 0 0,0 0.049896637006976975,-0.5024523252889321 l 8.283991358442533 0.8947194992724387" fill="#ff6e0a" stroke="none" /><path d="M 79.12142395522702 97.74499172005258 l -29.510500332607275 -3.1873065697926606 a50.682125143773945,50.682125143773945 0 0,0 0.10114618922873793,-0.866558780375 l 29.45126379037495 3.6948090884925224" fill="#8dff24" stroke="none" /><path d="M 79.26566170972629 96.67025291283419 l -4.88272180335671 -0.7841209338131898 a25.945282383021123,25.945282383021123 0 0,0 0.07460891930679989,-0.44034606511751 l 4.868501022529688 0.8680527872465277" fill="#ff3f05" stroke="none" /><path d="M 79.32604984820605 96.31383870115002 l -55.691077041585466 -9.92970822579602 a77.56938365848835,77.56938365848835 0 0,0 0.24568911432393153,-1.312481072932256 l 55.511902203351674 10.886867376190848" fill="#45fff0" stroke="none" /><path d="M 79.62865764111835 94.90015583598534 l -1.3337730434752293 -0.333902133303533 a22.374933149693405,22.374933149693405 0 0,0 0.09674885734041994,-0.37281281367537816 l 1.3278278542645021 0.356811372527775" fill="#ff0d01" stroke="none" /><path d="M 79.81627453868168 94.20196356495316 l -26.63938578156217 -7.652508436303211 a48.71674151458985,48.71674151458985 0 0,0 0.2384663685539584,-0.8039900467819874 l 26.5037135158965 8.109927869831738" fill="#a3ff22" stroke="none" /><path d="M 80.14247586403 93.16781622104843 l -2.8445784396975498 -0.9787062345024626 a24.008237422984784,24.008237422984784 0 0,0 0.13781519316797394,-0.3896221094793656 l 2.827310165719766 1.0275259704084392" fill="#ff2403" stroke="none" /><path d="M 80.2630227832202 92.82701384747504 l -11.790089004144576 -4.284858022325056 a33.544568824680034,33.544568824680034 0 0,0 0.2018990276252813,-0.5409890161545707 l 11.714585388017667 4.487170175508968" fill="#ffa50f" stroke="none" /><path d="M 80.38941819471856 92.48833698450439 l -1.1347067462493727 -0.4346395626538353 a22.21510120953267,22.21510120953267 0 0,0 0.13985617475863163,-0.3559187099185046 l 1.12705702160905 0.4541072774681033" fill="#ff0a01" stroke="none" /><path d="M 80.65960295795068 91.81776055985345 l -58.02119112614798 -24.546718320439627 a84.0,84.0 0 0,0 0.574837160629277,-1.3268034216536029 l 57.59006325567602 25.54182088667983" fill="#4dd2ff" stroke="none" /><path d="M 80.803312248108 91.48605970444005 l -8.772950573314818 -3.890899219827083 a30.597070308207385,30.597070308207385 0 0,0 0.21767292436931485,-0.4796134352082678 l 8.704675331982152 4.0413346638774215" fill="#ff7f0b" stroke="none" /><path d="M 81.26839172434947 90.50648371742162 l -12.695636066901697 -6.434376906946868 a35.233073502369976,35.233073502369976 0 0,0 0.2788287836604873,-0.5386084606127305 l 12.582997850081094 6.651958089819934" fill="#ffbb11" stroke="none" /><line stroke="#e1ed5e" stroke-width="0.3" x1="26.266209847984243" x2="21.928928074336255" y1="57.711370442889674" y2="55.22380399835377" /><path d="M 25.398753493254645 57.213857153982495 a86.0,86.0 0 0,1 29.58750427330803,-30.492523968695096" fill="none" id="id47" stroke="none" /><text fill="#e1ed5e" style="font-size:6.75px; font-family:Arial;" text-anchor="middle"><textPath startOffset="21.46611528233685" xlink:href="#id47">November</textPath></text><path d="M 81.78341655067845 89.55222093294921 l -32.70673393560287 -18.75833254433438 a58.704183913435266,58.704183913435266 0 0,0 0.5102800400720183,-0.8722339981883468 l 32.37899422106053 19.318545954876615" fill="#3bff2e" stroke="none" /><path d="M 82.34701348167596 88.62581576622439 l -18.24455342307879 -11.755343022646851 a42.703728232441264,42.703728232441264 0 0,0 0.4034553982893962,-0.614490251078603 l 18.039501389431475 12.067651337703122" fill="#e7ff1a" stroke="none" /><path d="M 83.17141714833178 87.43820079747576 l -1.1636218106279186 -0.8685926593834722 a22.452056791624848,22.452056791624848 0 0,0 0.23384785770395505,-0.3077163694006393 l 1.1484980126998545 0.888493804665138" fill="#ff0e01" stroke="none" /><path d="M 83.39014120810768 87.1503855733568 l -49.06869324803631 -37.96021366324117 a83.03800833705742,83.03800833705742 0 0,0 0.8843386533422241,-1.1230202837483116 l 48.40800051410012 38.79922634094253" fill="#4cdbff" stroke="none" /><path d="M 83.84228863543731 86.58626213691792 l -1.0926244073543347 -0.9070701321723436 a22.420071941918987,22.420071941918987 0 0,0 0.2490649918526105,-0.29481439121106173 l 1.0768488020146 0.9257434730125211" fill="#ff0d01" stroke="none" /><path d="M 84.80347519578584 85.50635884689758 l -42.76867795560486 -40.79050170136536 a80.10181759573331,80.10181759573331 0 0,0 0.960213811008592,-0.9895847374212539 l 42.060199880893144 41.52065063433674" fill="#48f6ff" stroke="none" /><path d="M 86.65592168130627 83.78471172551755 l -25.113182149889536 -30.51671897635481 a60.5214126110814,60.5214126110814 0 0,0 0.8101125428119316,-0.6550546700695395 l 24.584166208513103 30.944479743688483" fill="#30ff36" stroke="none" /><path d="M 88.70189139769569 82.29822771554957 l -29.48927273095901 -46.203520349505446 a75.81224770877442,75.81224770877442 0 0,0 1.1060676530276115,-0.6926194628550519 l 28.689585925559154 46.70428415368343" fill="#43ffde" stroke="none" /><line stroke="#e1ed5e" stroke-width="0.3" x1="56.762969772571076" x2="54.21961505331055" y1="26.818313649435495" y2="22.513508569990535" /><path d="M 56.25429882871897 25.957352633546506 a86.0,86.0 0 0,1 42.265352541879196,-11.944610805530505" fill="none" id="id48" stroke="none" /><text fill="#e1ed5e" style="font-size:6.75px; font-family:Arial;" text-anchor="middle"><textPath startOffset="22.20632615414155" xlink:href="#id48">December</textPath></text><path d="M 91.23893434514133 80.91482961587045 l -17.586706934120112 -38.3110127872737 a63.154785749346146,63.154785749346146 0 0,0 0.9918846497397187,-0.44502972959465104 l 16.92464016591362 38.60806284738487" fill="#33ff55" stroke="none" /><path d="M 93.25333710446033 80.11325718540243 l -0.6809879342864522 -2.007308223144217 a23.11967706723126,23.11967706723126 0 0,0 0.37797058482803464,-0.12461095921757641 l 0.6463345272160083 2.0187329066210276" fill="#ff1702" stroke="none" /><path d="M 93.59665428221793 80.00007090966166 l -0.8091355072890559 -2.5272183454528885 a23.653588670979275,23.653588670979275 0 0,0 0.3888364189098019,-0.12081336811397458 l 0.7655137156685252 2.5407718484493884" fill="#ff1f03" stroke="none" /></svg>