<?xml version="1.0" encoding="utf-8" ?>
<svg baseProfile="full" height="200mm" version="1.1" viewBox="0,0,200,200" width="200mm" xmlns="http://www.w3.org/2000/svg" xmlns:ev="http://www.w3.org/2001/xml-events" xmlns:xlink="http://www.w3.org/1999/xlink"><defs /><rect fill="#1a1a1a" height="200" width="200" x="0" y="0" /><rect fill="#1a1a1a" height="200" width="180" x="10" y="0" /><text alignment-baseline="middle" fill="#e1ed5e" style="dominant-baseline: central; font-size:9.0px; font-family:Arial;" text-anchor="middle" x="100.0" y="100.0">2026</text><line stroke="#e1ed5e" stroke-width="0.3" x1="100.0" x2="100.0" y1="15.0" y2="10.0" /><path d="M 100.0 14.0 a86.0,86.0 0 0,1 42.46469731375804,11.215312516191453" fill="none" id="id49" stroke="none" /><text fill="#e1ed5e" style="font-size:6.75px; font-family:Arial;" text-anchor="middle"><textPath startOffset="22.20632615414155" xlink:href="#id49">January</textPath></text><path d="M 100.36148047927253 79.00311137660856 l 0.6778956050500323 -39.37611941360455 a60.3819542750965,60.3819542750965 0 0,0 1.0390680947572029,0.02683606333809578 l -1.355590335002103 39.3586165581241" fill="#30ff32" stroke="none" /><path d="M 100.72285384407766 79.0124445844662 l 0.08435014164329363 -2.449047323398554 a23.45049948758225,23.45049948758225 0 0,0 0.4033029940471244,0.01736707529405284 l -0.12649396807974955 2.4472325215803066" fill="#ff1402" stroke="none" /><path d="M 102.16513564639614 79.11191278185805 l 0.17685110486874311 -1.7061662207039414 a22.715307402760352,22.715307402760352 0 0,0 0.3885759409087401,0.043661034520696404 l -0.2061937492872085 1.702869232712644" fill="#ff0901" stroke="none" /><path d="M 102.88285421437855 79.19881850522331 l 0.25663965807812644 -1.8517787267266674 a22.869478100127385,22.869478100127385 0 0,0 0.38946832238157547,0.05739750667793512 l -0.28847696088835767 1.8470867358877634" fill="#ff0b01" stroke="none" /><path d="M 103.59715602781102 79.31037775812273 l 6.865001408395116 -39.48516125837396 a61.07750246630973,61.07750246630973 0 0,0 1.034259898469969,0.1890043856224866 l -7.543656427967986 39.36114139140073" fill="#30ff3a" stroke="none" /><path d="M 105.01212808612495 79.60689891045804 l 0.41152861415715564 -1.674407454386185 a22.724237838459107,22.724237838459107 0 0,0 0.37905231077236407,0.09662887396764006 l -0.4402898136145447 1.6670755842496774" fill="#ff0901" stroke="none" /><path d="M 105.36241919743992 79.69619591428918 l 0.45686905559002156 -1.7298498039750547 a22.789164519620332,22.789164519620332 0 0,0 0.37841094146760607,0.1034340048592243 l -0.48657788628133847 1.7217292582895367" fill="#ff0a01" stroke="none" /><path d="M 106.0581310904928 79.89281104454417 l 4.751414837903252 -15.770143386531744 a37.47037842290268,37.47037842290268 0 0,0 0.615967748650033,0.1913841778829263 l -5.022167959264003 15.686019073766296" fill="#ffd213" stroke="none" /><path d="M 107.4271985657038 80.35727306442388 l 0.3884079053008209 -1.027223165767101 a22.098202227819975,22.098202227819975 0 0,0 0.3546412463817712,0.13759529391379213 l -0.40603231668225914 1.020385167962762" fill="#ff0000" stroke="none" /><path d="M 107.76421540070413 80.48803036053334 l 0.5531632578097039 -1.3901346285514653 a22.496149683450344,22.496149683450344 0 0,0 0.3585630557716629,0.14626687343142206 l -0.5770101831697543 1.380406868936464" fill="#ff0600" stroke="none" /><path d="M 108.43124777332544 80.76684994638697 l 25.2937433199763 -57.69945016083909 a84.0,84.0 0 0,0 1.3192715261328791,0.591918677933875 l -26.283196964575957 57.255511152388685" fill="#4dd2ff" stroke="none" /><path d="M 109.41281617654863 81.2277094730956 l 1.5656683062286438 -3.122464070478345 a24.493007173848497,24.493007173848497 0 0,0 0.37525562788567274,0.19222050761070375 l -1.6191844217030722 3.0950510375551405" fill="#ff2303" stroke="none" /><path d="M 109.73455568895987 81.39251694778311 l 0.7620974770888937 -1.4567399213865968 a22.64404493951555,22.64404493951555 0 0,0 0.34381742360000295,0.1836553605357047 l -0.7870599472172078 1.4434058343491378" fill="#ff0801" stroke="none" /><line stroke="#e1ed5e" stroke-width="0.3" x1="143.23703022742887" x2="145.7803849466894" y1="26.81831364943548" y2="22.513508569990506" /><path d="M 143.74570117128098 25.957352633546492 a86.0,86.0 0 0,1 28.547481713284135,27.462654790039103" fill="none" id="id50" stroke="none" /><text fill="#e1ed5e" style="font-size:6.75px; font-family:Arial;" text-anchor="middle"><textPath startOffset="19.985693538727396" xlink:href="#id50">February</textPath></text><line stroke="#e1ed5e" stroke-width="0.3" x1="172.23445277983987" x2="176.4835382374775" y1="55.19839476539836" y2="52.563006222186495" /><path d="M 173.08426987136738 54.67131705675599 a86.0,86.0 0 0,1 12.851231095245387,41.99856678651699" fill="none" id="id51" stroke="none" /><text fill="#e1ed5e" style="font-size:6.75px; font-family:Arial;" text-anchor="middle"><textPath startOffset="22.20632615414155" xlink:href="#id51">March</textPath></text><line stroke="#e1ed5e" stroke-width="0.3" x1="184.98032266829074" x2="189.97916517819016" y1="98.17113171792111" y2="98.06355123074" /><path d="M 185.9800911702706 98.14961562048488 a86.0,86.0 0 0,1 -9.607161424134198,41.387399972396054" fill="none" id="id52" stroke="none" /><text fill="#e1ed5e" style="font-size:6.75px; font-family:Arial;" text-anchor="middle"><textPath startOffset="21.466115282336823" xlink:href="#id52">April</textPath></text><line stroke="#e1ed5e" stroke-width="0.3" x1="174.80103733775053" x2="179.2010983576182" y1="140.37084112569926" y2="142.7455964860345" /><path d="M 175.68104954172406 140.8457921977663 a86.0,86.0 0 0,1 -30.038265399797805,32.042727171017184" fill="none" id="id53" stroke="none" /><text fill="#e1ed5e" style="font-size:6.75px; font-family:Arial;" text-anchor="middle"><textPath startOffset="22.206326154141568" xlink:href="#id53">May</textPath></text><line stroke="#e1ed5e" stroke-width="0.3" x1="143.8653032363475" x2="146.44561519142675" y1="172.8068346515853" y2="177.08958963109032" /><path d="M 144.38136562736335 173.6633856474863 a86.0,86.0 0 0,1 -40.68145358897372,12.25698825130547" fill="none" id="id54" stroke="none" /><text fill="#e1ed5e" style="font-size:6.75px; font-family:Arial;" text-anchor="middle"><textPath startOffset="21.466115282336833" xlink:href="#id54">June</textPath></text><line stroke="#e1ed5e" stroke-width="0.3" x1="102.19456741930631" x2="102.32365962044197" y1="184.97166512339345" y2="189.96999836594603" /><path d="M 102.22038585953345 185.97133177190398 a86.0,86.0 0 0,1 -42.740103519485714,-10.115201625700543" fill="none" id="id55" stroke="none" /><text fill="#e1ed5e" style="font-size:6.75px; font-family:Arial;" text-anchor="middle"><textPath startOffset="22.20632615414155" xlink:href="#id55">July</textPath></text><line stroke="#e1ed5e" stroke-width="0.3" x1="58.666819895761336" x2="56.23545636021788" y1="174.27360380694188" y2="178.64263932499728" /><path d="M 58.180547188652646 175.14741091055294 a86.0,86.0 0 0,1 -31.652253787137756,-30.449443065178592" fill="none" id="id56" stroke="none" /><text fill="#e1ed5e" style="font-size:6.75px; font-family:Arial;" text-anchor="middle"><textPath startOffset="22.20632615414155" xlink:href="#id56">August</textPath></text><line stroke="#e1ed5e" stroke-width="0.3" x1="26.63291911575756" x2="22.317208475507996" y1="142.92168965132927" y2="145.44649492493687" /><path d="M 25.769776987707644 143.4266507060508 a86.0,86.0 0 0,1 -11.730757126820373,-40.83630448921669" fill="none" id="id57" stroke="none" /><text fill="#e1ed5e" style="font-size:6.75px; font-family:Arial;" text-anchor="middle"><textPath startOffset="21.46611528233685" xlink:href="#id57">September</textPath></text><line stroke="#e1ed5e" stroke-width="0.3" x1="15.007084014347285" x2="10.007500721073583" y1="101.09737516637583" y2="101.16192664675087" /><path d="M 14.007167355692545 101.11028546245083 a86.0,86.0 0 0,1 10.666146001902534,-42.60595125391555" fill="none" id="id58" stroke="none" /><text fill="#e1ed5e" style="font-size:6.75px; font-family:Arial;" text-anchor="middle"><textPath startOffset="22.20632615414155" xlink:href="#id58">October</textPath></text><line stroke="#e1ed5e" stroke-width="0.3" x1="26.266209847984243" x2="21.928928074336255" y1="57.711370442889674" y2="55.22380399835377" /><path d="M 25.398753493254645 57.213857153982495 a86.0,86.0 0 0,1 29.58750427330803,-30.492523968695096" fill="none" id="id59" stroke="none" /><text fill="#e1ed5e" style="font-size:6.75px; font-family:Arial;" text-anchor="middle"><textPath startOffset="21.46611528233685" xlink:href="#id59">November</textPath></text><line stroke="#e1ed5e" stroke-width="0.3" x1="56.762969772571076" x2="54.21961505331055" y1="26.818313649435495" y2="22.513508569990535" /><path d="M 56.25429882871897 25.957352633546506 a86.0,86.0 0 0,1 42.265352541879196,-11.944610805530505" fill="none" id="id60" stroke="none" /><text fill="#e1ed5e" style="font-size:6.75px; font-family:Arial;" text-anchor="middle"><textPath startOffset="22.20632615414155" xlink:href="#id60">December</textPath></text></svg>