<?xml version="1.0" encoding="utf-8" ?>
<svg baseProfile="full" height="200mm" version="1.1" viewBox="0,0,200,200" width="200mm" xmlns="http://www.w3.org/2000/svg" xmlns:ev="http://www.w3.org/2001/xml-events" xmlns:xlink="http://www.w3.org/1999/xlink"><defs /><rect fill="#1a1a1a" height="200" width="200" x="0" y="0" /><text alignment-baseline="middle" fill="#e1ed5e" style="dominant-baseline: central; font-size:9.0px; font-family:Arial;" text-anchor="middle" x="100.0" y="100.0">2025</text><line stroke="#e1ed5e" stroke-width="0.3" x1="100.0" x2="100.0" y1="15.0" y2="10.0" /><path d="M 100.0 14.0 a86.0,86.0 0 0,1 42.46469731375804,11.215312516191453" fill="none" id="id37" stroke="none" /><text fill="#e1ed5e" style="font-size:6.75px; font-family:Arial;" text-anchor="middle"><textPath startOffset="22.20632615414155" xlink:href="#id37">January</textPath></text><path d="M 106.0581310904928 79.89281104454417 l 1.4607552999098623 -4.848307571136093 a26.063584930713645,26.063584930713645 0 0,0 0.4284538456037548,0.1331226954355388 l -1.5439945182243353 4.8224447408180335" fill="#ff2b04" stroke="none" /><line stroke="#e1ed5e" stroke-width="0.3" x1="143.23703022742887" x2="145.7803849466894" y1="26.81831364943548" y2="22.513508569990506" /><path d="M 143.74570117128098 25.957352633546492 a86.0,86.0 0 0,1 28.547481713284135,27.462654790039103" fill="none" id="id38" stroke="none" /><text fill="#e1ed5e" style="font-size:6.75px; font-family:Arial;" text-anchor="middle"><textPath startOffset="19.985693538727396" xlink:href="#id38">February</textPath></text><path d="M 116.38621287248628 86.86637796730983 l 6.780956684499777 -5.434966749626455 a29.69023803624546,29.69023803624546 0 0,0 0.3161952658571512,0.40153587750659603 l -6.8735060309508915 5.317438478166821" fill="#ff5f08" stroke="none" /><line stroke="#e1ed5e" stroke-width="0.3" x1="172.23445277983987" x2="176.4835382374775" y1="55.19839476539836" y2="52.563006222186495" /><path d="M 173.08426987136738 54.67131705675599 a86.0,86.0 0 0,1 12.851231095245387,41.99856678651699" fill="none" id="id39" stroke="none" /><text fill="#e1ed5e" style="font-size:6.75px; font-family:Arial;" text-anchor="middle"><textPath startOffset="22.20632615414155" xlink:href="#id39">March</textPath></text><path d="M 118.03404312379186 89.2402003453031 l 3.5530954824188226 -2.1199126165112965 a25.137452961524616,25.137452961524616 0 0,0 0.2185047069801685,0.37349537357053453 l -3.589059863869318 2.0584378305868665" fill="#ff1e03" stroke="none" /><path d="M 120.08093135843002 93.85539295169968 l 9.769799357571385 -2.989481758664129 a31.21694576047988,31.21694576047988 0 0,0 0.15280561592196085,0.515184573148087 l -9.819810870605048 2.820867798769512" fill="#ff740a" stroke="none" /><path d="M 120.73433829027371 96.67025291283417 l 5.6022128889131375 -0.89966469088101 a26.673992052225884,26.673992052225884 0 0,0 0.06890032701334327,0.453967068357718 l -5.61686910936578 0.8030985101312098" fill="#ff3404" stroke="none" /><path d="M 120.96714384426684 98.82574320788733 l 2.129810325212377 -0.11927920459114752 a23.13314780313722,23.13314780313722 0 0,0 0.018844032814899794,0.397767749550543 l -2.131547966260773 0.08260034841760476" fill="#ff0000" stroke="none" /><line stroke="#e1ed5e" stroke-width="0.3" x1="184.98032266829074" x2="189.97916517819016" y1="98.17113171792111" y2="98.06355123074" /><path d="M 185.9800911702706 98.14961562048488 a86.0,86.0 0 0,1 -9.607161424134198,41.387399972396054" fill="none" id="id40" stroke="none" /><text fill="#e1ed5e" style="font-size:6.75px; font-family:Arial;" text-anchor="middle"><textPath startOffset="21.466115282336823" xlink:href="#id40">April</textPath></text><path d="M 120.89721153311464 102.0752229133903 l 3.3258742057326023 0.3302799681121549 a24.342233398446858,24.342233398446858 0 0,0 -0.04499568937390168,0.4166042008066988 l -3.3196962148576485 -0.38748049080364505" fill="#ff1202" stroke="none" /><path d="M 120.5718875245553 104.21870165774334 l 3.2866854069037172 0.6740045199078192 a24.35508316689915,24.35508316689915 0 0,0 -0.08775479903664567,0.40996120602232067 l -3.274596569142629 -0.7304795453463089" fill="#ff1202" stroke="none" /><path d="M 118.81262510543309 109.33194174019688 l 7.544014117204331 3.742183764063952 a29.42116905925787,29.42116905925787 0 0,0 -0.22895459924318973,0.4517491452352716 l -7.478480848174873 -3.871487121001918" fill="#ff5b08" stroke="none" /><line stroke="#e1ed5e" stroke-width="0.3" x1="174.80103733775053" x2="179.2010983576182" y1="140.37084112569926" y2="142.7455964860345" /><path d="M 175.68104954172406 140.8457921977663 a86.0,86.0 0 0,1 -30.038265399797805,32.042727171017184" fill="none" id="id41" stroke="none" /><text fill="#e1ed5e" style="font-size:6.75px; font-family:Arial;" text-anchor="middle"><textPath startOffset="22.206326154141568" xlink:href="#id41">May</textPath></text><path d="M 117.94076556474637 110.91462005526583 l 53.8222966942391 32.74386016579747 a84.0,84.0 0 0,0 -0.7621414413281484,1.228814674538906 l -53.25069061324299 -33.665471171701654" fill="#4dd2ff" stroke="none" /><path d="M 117.75023020441432 111.22182372390056 l 3.028540589510205 1.9146652322125612 a24.583015636828062,24.583015636828062 0 0,0 -0.22920166215318374,0.35572606956310554 l -2.9951340639799713 -1.9665129016971197" fill="#ff1502" stroke="none" /><path d="M 117.35343817320211 111.8261652097733 l 3.7516658671029157 2.5567164220368204 a25.540021546325285,25.540021546325285 0 0,0 -0.25070461298185664,0.36115869343395623 l -3.707100346958923 -2.620916377657796" fill="#ff2303" stroke="none" /><path d="M 116.93607887273984 112.41649034213515 l 6.1868982030223965 4.535852859616101 a28.67148424613186,28.67148424613186 0 0,0 -0.295232639778818,0.3955123672121894 l -6.107904296548487 -4.641678106337606" fill="#ff5007" stroke="none" /><path d="M 116.71984013943494 112.70617746262583 l 41.90006554975533 31.8417917953155 a73.62618357633409,73.62618357633409 0 0,0 -0.7755052324445768,1.0024450520919683 l -41.34575350009269 -32.55831484152072" fill="#40ffc5" stroke="none" /><path d="M 115.80600337817218 113.82643327865902 l 10.267598350074527 8.9816672894949 a34.64162465315755,34.64162465315755 0 0,0 -0.39646704377097,0.4454349265949588 l -10.11147245665522 -9.157076385830726" fill="#ffa20f" stroke="none" /><path d="M 115.07121518719521 114.62390073753431 l 14.517813734007369 14.086924268224662 a41.22889890612017,41.22889890612017 0 0,0 -0.49859359027841865,0.505072674586171 l -14.273179518673414 -14.334737436791498" fill="#fff717" stroke="none" /><path d="M 114.55890576462653 115.13401014063108 l 25.15486286743256 26.14852763501448 a57.28377906666357,57.28377906666357 0 0,0 -0.7164950491184051,0.677490790307537 l -24.701031983923347 -26.57765306206794" fill="#50ff2b" stroke="none" /><path d="M 114.0293411484842 115.62618273729858 l 17.47382450944906 19.46272259076394 a47.15591928478247,47.15591928478247 0 0,0 -0.6086653584695239,0.5370764105416099 l -17.136216798072947 -19.76062214307784" fill="#bfff1e" stroke="none" /><path d="M 113.20401910651253 116.32954008644616 l 39.231346818591724 48.517791844415925 a83.3945085617212,83.3945085617212 0 0,0 -1.1240090855673284,0.892980796844774 l -38.390380240307046 -49.185906555265824" fill="#4cd8ff" stroke="none" /><path d="M 112.92097659922987 116.55440617244103 l 21.152335523158765 27.100455685911065 a55.37813253317163,55.37813253317163 0 0,0 -0.7564950139736555,0.5800481181127374 l -20.682711780691616 -27.460543145851176" fill="#64ff29" stroke="none" /><path d="M 112.34349029814194 116.9893568818739 l 22.14298666965329 30.477206517344978 a58.67189901973802,58.67189901973802 0 0,0 -0.8221684049866055,0.5865953270328821 l -21.615090936817797 -30.85384610622208" fill="#42ff2d" stroke="none" /><path d="M 111.1453310114006 117.79835938074945 l 13.37670403122951 21.36171509255368 a46.20434649885903,46.20434649885903 0 0,0 -0.6777095131039709,0.4163045352496179 l -13.00701531819323 -21.588808094631677" fill="#caff1d" stroke="none" /><line stroke="#e1ed5e" stroke-width="0.3" x1="143.8653032363475" x2="146.44561519142675" y1="172.8068346515853" y2="177.08958963109032" /><path d="M 144.38136562736335 173.6633856474863 a86.0,86.0 0 0,1 -40.68145358897372,12.25698825130547" fill="none" id="id42" stroke="none" /><text fill="#e1ed5e" style="font-size:6.75px; font-family:Arial;" text-anchor="middle"><textPath startOffset="21.466115282336833" xlink:href="#id42">June</textPath></text><line stroke="#e1ed5e" stroke-width="0.3" x1="102.19456741930631" x2="102.32365962044197" y1="184.97166512339345" y2="189.96999836594603" /><path d="M 102.22038585953345 185.97133177190398 a86.0,86.0 0 0,1 -42.740103519485714,-10.115201625700543" fill="none" id="id43" stroke="none" /><text fill="#e1ed5e" style="font-size:6.75px; font-family:Arial;" text-anchor="middle"><textPath startOffset="22.20632615414155" xlink:href="#id43">July</textPath></text><line stroke="#e1ed5e" stroke-width="0.3" x1="58.666819895761336" x2="56.23545636021788" y1="174.27360380694188" y2="178.64263932499728" /><path d="M 58.180547188652646 175.14741091055294 a86.0,86.0 0 0,1 -31.652253787137756,-30.449443065178592" fill="none" id="id44" stroke="none" /><text fill="#e1ed5e" style="font-size:6.75px; font-family:Arial;" text-anchor="middle"><textPath startOffset="22.20632615414155" xlink:href="#id44">August</textPath></text><line stroke="#e1ed5e" stroke-width="0.3" x1="26.63291911575756" x2="22.317208475507996" y1="142.92168965132927" y2="145.44649492493687" /><path d="M 25.769776987707644 143.4266507060508 a86.0,86.0 0 0,1 -11.730757126820373,-40.83630448921669" fill="none" id="id45" stroke="none" /><text fill="#e1ed5e" style="font-size:6.75px; font-family:Arial;" text-anchor="middle"><textPath startOffset="21.46611528233685" xlink:href="#id45">September</textPath></text><line stroke="#e1ed5e" stroke-width="0.3" x1="15.007084014347285" x2="10.007500721073583" y1="101.09737516637583" y2="101.16192664675087" /><path d="M 14.007167355692545 101.11028546245083 a86.0,86.0 0 0,1 10.666146001902534,-42.60595125391555" fill="none" id="id46" stroke="none" /><text fill="#e1ed5e" style="font-size:6.75px; font-family:Arial;" text-anchor="middle"><textPath startOffset="22.20632615414155" xlink:href="#id46">October</textPath></text><line stroke="#e1ed5e" stroke-width="0.3" x1="26.266209847984243" x2="21.928928074336255" y1="57.711370442889674" y2="55.22380399835377" /><path d="M 25.398753493254645 57.213857153982495 a86.0,86.0 0 0,1 29.58750427330803,-30.492523968695096" fill="none" id="id47" stroke="none" /><text fill="#e1ed5e" style="font-size:6.75px; font-family:Arial;" text-anchor="middle"><textPath startOffset="21.46611528233685" xlink:href="#id47">November</textPath></text><line stroke="#e1ed5e" stroke-width="0.3" x1="56.762969772571076" x2="54.21961505331055" y1="26.818313649435495" y2="22.513508569990535" /><path d="M 56.25429882871897 25.957352633546506 a86.0,86.0 0 0,1 42.265352541879196,-11.944610805530505" fill="none" id="id48" stroke="none" /><text fill="#e1ed5e" style="font-size:6.75px; font-family:Arial;" text-anchor="middle"><textPath startOffset="22.20632615414155" xlink:href="#id48">December</textPath></text></svg>