<?xml version="1.0" encoding="utf-8" ?>
<svg baseProfile="full" height="200mm" version="1.1" viewBox="0,0,200,200" width="200mm" xmlns="http://www.w3.org/2000/svg" xmlns:ev="http://www.w3.org/2001/xml-events" xmlns:xlink="http://www.w3.org/1999/xlink"><defs /><rect fill="#1a1a1a" height="200" width="200" x="0" y="0" /><rect fill="#1a1a1a" height="200" width="180" x="10" y="0" /><text alignment-baseline="middle" fill="#e1ed5e" style="dominant-baseline: central; font-size:9.0px; font-family:Arial;" text-anchor="middle" x="100.0" y="100.0">2024</text><line stroke="#e1ed5e" stroke-width="0.3" x1="100.0" x2="100.0" y1="15.0" y2="10.0" /><path d="M 100.0 14.0 a86.0,86.0 0 0,1 42.35913384403234,11.155469271406648" fill="none" id="id25" stroke="none" /><text fill="#e1ed5e" style="font-size:6.75px; font-family:Arial;" text-anchor="middle"><textPath startOffset="22.145653131862478" xlink:href="#id25">January</textPath></text><line stroke="#e1ed5e" stroke-width="0.3" x1="143.13028292997686" x2="145.6673583964461" y1="26.7553504044142" y2="22.446841604673864" /><path d="M 143.63769802327073 25.89364864446614 a86.0,86.0 0 0,1 29.32050498858742,28.57503671076993" fill="none" id="id26" stroke="none" /><text fill="#e1ed5e" style="font-size:6.75px; font-family:Arial;" text-anchor="middle"><textPath startOffset="20.669276256404974" xlink:href="#id26">February</textPath></text><path d="M 114.91283532996326 85.21462403516908 l 3.4818049935678714 -3.4520461553472765 a25.903018322613335,25.903018322613335 0 0,0 0.3103591095238988,0.3184557875167745 l -3.540550904242582 3.39176767576276" fill="#ff2d04" stroke="none" /><path d="M 115.16444852881244 85.47280134310134 l 1.2976889078707197 -1.2431566188294572 a22.79706284824716,22.79706284824716 0 0,0 0.26829338528057745,0.2849182777478355 l -1.318838126887557 1.2206968811371268" fill="#ff0000" stroke="none" /><line stroke="#e1ed5e" stroke-width="0.3" x1="172.87174338648825" x2="177.1583165268699" y1="56.24261187166439" y2="53.66864786411523" /><path d="M 173.72905801456457 55.72781907015455 a86.0,86.0 0 0,1 12.242430191666344,42.057860355516425" fill="none" id="id27" stroke="none" /><text fill="#e1ed5e" style="font-size:6.75px; font-family:Arial;" text-anchor="middle"><textPath startOffset="22.145653131862474" xlink:href="#id27">March</textPath></text><path d="M 120.77682067341334 96.94652285012252 l 7.410435965697764 -1.0890788945800252 a28.490036985244238,28.490036985244238 0 0,0 0.06695902613174307,0.4844821574877477 l -7.428039508384719 0.9617084288921918" fill="#ff5207" stroke="none" /><line stroke="#e1ed5e" stroke-width="0.3" x1="184.99686870605535" x2="189.99668451229388" y1="99.2704041080226" y2="99.22748670261217" /><path d="M 185.99683186730306 99.26182062694052 a86.0,86.0 0 0,1 -10.086455211305974,41.156179273409016" fill="none" id="id28" stroke="none" /><text fill="#e1ed5e" style="font-size:6.75px; font-family:Arial;" text-anchor="middle"><textPath startOffset="21.40746469413373" xlink:href="#id28">April</textPath></text><path d="M 120.82617615685814 102.69636545807757 l 7.792099877392331 1.0088433324027362 a28.857135952024187,28.857135952024187 0 0,0 -0.06782180455924658,0.4907247923965479 l -7.773633556277874 -1.1424564329993692" fill="#ff5708" stroke="none" /><path d="M 119.71291397450082 107.23885506374661 l 2.6195873542783086 0.9619487615566632 a23.790624182249417,23.790624182249417 0 0,0 -0.1440684480421091,0.38215867479298227 l -2.6026882224217585 -1.0067757165438043" fill="#ff0f01" stroke="none" /><line stroke="#e1ed5e" stroke-width="0.3" x1="174.33088141563837" x2="178.70328620479359" y1="141.23008692659167" y2="143.65538615756765" /><path d="M 175.20536237346943 141.71514677278685 a86.0,86.0 0 0,1 -30.301960400862466,31.631185727798858" fill="none" id="id29" stroke="none" /><text fill="#e1ed5e" style="font-size:6.75px; font-family:Arial;" text-anchor="middle"><textPath startOffset="22.145653131862474" xlink:href="#id29">May</textPath></text><path d="M 116.57777611688842 112.89097897827486 l 8.907699338736647 6.926680883539396 a32.2838830006217,32.2838830006217 0 0,0 -0.3439518274513954,0.4345718979651218 l -8.787481080643689 -7.0785727254192" fill="#ff860c" stroke="none" /><path d="M 114.91283532996324 114.78537596483092 l 5.397084826943127 5.350956173981653 a28.600082670938,28.600082670938 0 0,0 -0.34865963089100493,0.3456796519522339 l -5.3044332759221575 -5.4428158361625485" fill="#ff5407" stroke="none" /><line stroke="#e1ed5e" stroke-width="0.3" x1="143.1302829299769" x2="145.66735839644613" y1="173.24464959558577" y2="177.55315839532614" /><path d="M 143.63769802327073 174.10635135553383 a86.0,86.0 0 0,1 -40.68552437913181,11.842963189579606" fill="none" id="id30" stroke="none" /><text fill="#e1ed5e" style="font-size:6.75px; font-family:Arial;" text-anchor="middle"><textPath startOffset="21.407464694133747" xlink:href="#id30">June</textPath></text><path d="M 106.72888874123015 119.89276391827305 l 1.3405311869184477 3.963042257342471 a25.183626154017958,25.183626154017958 0 0,0 -0.41070568292052334,0.1350071156273977 l -1.2723027663501902 -3.9854702943718876" fill="#ff2303" stroke="none" /><line stroke="#e1ed5e" stroke-width="0.3" x1="101.45913802915013" x2="101.54496967792366" y1="184.9874750549273" y2="189.98673829345242" /><path d="M 101.47630435890484 185.9873277026323 a86.0,86.0 0 0,1 -42.54439059252881,-10.42667462771756" fill="none" id="id31" stroke="none" /><text fill="#e1ed5e" style="font-size:6.75px; font-family:Arial;" text-anchor="middle"><textPath startOffset="22.145653131862474" xlink:href="#id31">July</textPath></text><path d="M 97.48249496171623 120.84855314841334 l -0.9424515293601636 7.8048506361932555 a28.861546179885963,28.861546179885963 0 0,0 -0.4913639454205839,-0.06361690018359287 l 1.0762932966715415 -7.7875221398092656" fill="#ff5708" stroke="none" /><path d="M 95.00130118170881 120.39639698878247 l -0.9648237146495476 3.9368100026700974 a25.053314421245098,25.053314421245098 0 0,0 -0.4168331164734915,-0.10595734819434025 l 1.0322621243484178 -3.919667422640494" fill="#ff2103" stroke="none" /><line stroke="#e1ed5e" stroke-width="0.3" x1="58.13341422392154" x2="55.67067388415222" y1="173.97424548756322" y2="178.32567169271397" /><path d="M 57.64086615596768 174.84453072859336 a86.0,86.0 0 0,1 -31.369924170532247,-30.572349798747897" fill="none" id="id32" stroke="none" /><text fill="#e1ed5e" style="font-size:6.75px; font-family:Arial;" text-anchor="middle"><textPath startOffset="22.145653131862474" xlink:href="#id32">August</textPath></text><path d="M 82.98947788004972 112.3143062007846 l -3.467689045475281 2.510339448370437 a25.2809661832528,25.2809661832528 0 0,0 -0.2514672442979123,-0.3537201712107897 l 3.510271388303154 -2.450442050450143" fill="#ff2403" stroke="none" /><line stroke="#e1ed5e" stroke-width="0.3" x1="26.387840678322732" x2="22.057713659400548" y1="142.50000000000003" y2="145.00000000000006" /><path d="M 25.521815274538298 143.00000000000003 a86.0,86.0 0 0,1 -11.493303480769221,-40.785679425670985" fill="none" id="id33" stroke="none" /><text fill="#e1ed5e" style="font-size:6.75px; font-family:Arial;" text-anchor="middle"><textPath startOffset="21.40746469413373" xlink:href="#id33">September</textPath></text><path d="M 81.81346652052679 110.50000000000001 l -30.346344600976472 17.520470224294932 a56.040940448589836,56.040940448589836 0 0,0 -0.4738572007854013,-0.837260269667779 l 30.64263516678325 -16.99695318452803" fill="#5cff2a" stroke="none" /><path d="M 80.83023694016515 108.57439118712176 l -57.50928917950453 25.7231735613653 a84.0,84.0 0 0,0 -0.577464471932128,-1.3213517208966026 l 57.942387533453626 -24.73215977069285" fill="#4dd2ff" stroke="none" /><path d="M 79.03789590574601 101.26102812881392 l -3.2270730363763387 0.19413270033913207 a24.232907033530065,24.232907033530065 0 0,0 -0.021415439875664695,-0.41545381240715407 l 3.229930065708576 -0.13870709455524718" fill="#ff1502" stroke="none" /><line stroke="#e1ed5e" stroke-width="0.3" x1="15.003131293944662" x2="10.003315487706104" y1="100.72959589197737" y2="100.7725132973878" /><path d="M 14.003168132696942 100.73817937305945 a86.0,86.0 0 0,1 10.791469493833604,-42.45332614584628" fill="none" id="id34" stroke="none" /><text fill="#e1ed5e" style="font-size:6.75px; font-family:Arial;" text-anchor="middle"><textPath startOffset="22.145653131862435" xlink:href="#id34">October</textPath></text><path d="M 79.94057633289273 93.78553927170692 l -10.99473698487904 -3.4061976228400503 a32.51027469752604,32.51027469752604 0 0,0 0.1697272955534625,-0.5316683359204604 l 10.93464497354832 3.594434992451902" fill="#ff8a0c" stroke="none" /><path d="M 80.05021161711548 93.44210830539832 l -11.630729054571344 -3.8232516558708305 a33.243002555132016,33.243002555132016 0 0,0 0.18285959170594612,-0.5405918908585119 l 11.563384041293032 4.022345221203504" fill="#ff930d" stroke="none" /><line stroke="#e1ed5e" stroke-width="0.3" x1="26.387840678322718" x2="22.05771365940052" y1="57.49999999999999" y2="54.99999999999999" /><path d="M 25.521815274538284 56.99999999999999 a86.0,86.0 0 0,1 29.574782752854787,-30.34633250058573" fill="none" id="id35" stroke="none" /><text fill="#e1ed5e" style="font-size:6.75px; font-family:Arial;" text-anchor="middle"><textPath startOffset="21.40746469413373" xlink:href="#id35">November</textPath></text><path d="M 81.99639281039701 89.18935116829357 l -2.6802454636292046 -1.6094103912021906 a24.126326526870557,24.126326526870557 0 0,0 0.21625464535079492,-0.35323571101297896 l 2.652222853823017 1.6551832183397126" fill="#ff1402" stroke="none" /><path d="M 82.18462484594161 88.88188828441811 l -10.29398838945441 -6.424210095109061 a33.13411192911634,33.13411192911634 0 0,0 0.3052792600938841,-0.47994970240492757 l 10.182191437734636 6.5999734721926595" fill="#ff920d" stroke="none" /><line stroke="#e1ed5e" stroke-width="0.3" x1="56.869717070023135" x2="54.33264160355391" y1="26.7553504044142" y2="22.446841604673864" /><path d="M 56.362301976729285 25.89364864446614 a86.0,86.0 0 0,1 42.16139366436587,-11.88097634709845" fill="none" id="id36" stroke="none" /><text fill="#e1ed5e" style="font-size:6.75px; font-family:Arial;" text-anchor="middle"><textPath startOffset="22.145653131862474" xlink:href="#id36">December</textPath></text><path d="M 89.34428304082924 81.90426304109057 l -7.193246991458795 -12.215705985497086 a35.17625743996773,35.17625743996773 0 0,0 0.5229663107256942,-0.3019347402745834 l 6.982488212872702 12.337387623047844" fill="#ffad10" stroke="none" /><path d="M 91.26138138417902 80.90454125486306 l -3.500915191209176 -7.650131507390136 a29.41313967888341,29.41313967888341 0 0,0 0.4609271451550533,-0.2061668492712584 l 3.3690746431985037 7.7091021075712405" fill="#ff5f08" stroke="none" /><path d="M 98.5590905019552 79.04949213459386 l -0.13746986872335895 -1.9987817207486516 a23.003503514348242,23.003503514348242 0 0,0 0.394187650494213,-0.02371335019944469 l 0.10313786609666217 2.0008470487727905" fill="#ff0300" stroke="none" /><path d="M 98.9189461498227 79.02784411241856 l -0.3233869412595812 -6.27362026691992 a27.281949567394314,27.281949567394314 0 0,0 0.4679169254649063,-0.02009436610207937 l 0.2156442551938548 6.2782472014478286" fill="#ff4106" stroke="none" /><path d="M 99.63950707515114 79.00309439819443 l -0.12865575730493917 -7.493552869014586 a28.494657223956573,28.494657223956573 0 0,0 0.4891486821537895,-0.004198753136421567 l 1.835661596005001e-15 7.4946572239565725" fill="#ff5207" stroke="none" /></svg>