<?xml version="1.0" encoding="utf-8" ?>
<svg baseProfile="full" height="200mm" version="1.1" viewBox="0,0,200,200" width="200mm" xmlns="http://www.w3.org/2000/svg" xmlns:ev="http://www.w3.org/2001/xml-events" xmlns:xlink="http://www.w3.org/1999/xlink"><defs /><rect fill="#1a1a1a" height="200" width="200" x="0" y="0" /><text alignment-baseline="middle" fill="#e1ed5e" style="dominant-baseline: central; font-size:9.0px; font-family:Arial;" text-anchor="middle" x="100.0" y="100.0">2023</text><line stroke="#e1ed5e" stroke-width="0.3" x1="100.0" x2="100.0" y1="15.0" y2="10.0" /><path d="M 100.0 14.0 a86.0,86.0 0 0,1 42.46469731375804,11.215312516191453" fill="none" id="id13" stroke="none" /><text fill="#e1ed5e" style="font-size:6.75px; font-family:Arial;" text-anchor="middle"><textPath startOffset="22.20632615414155" xlink:href="#id13">January</textPath></text><line stroke="#e1ed5e" stroke-width="0.3" x1="143.23703022742887" x2="145.7803849466894" y1="26.81831364943548" y2="22.513508569990506" /><path d="M 143.74570117128098 25.957352633546492 a86.0,86.0 0 0,1 28.547481713284135,27.462654790039103" fill="none" id="id14" stroke="none" /><text fill="#e1ed5e" style="font-size:6.75px; font-family:Arial;" text-anchor="middle"><textPath startOffset="19.985693538727396" xlink:href="#id14">February</textPath></text><line stroke="#e1ed5e" stroke-width="0.3" x1="172.23445277983987" x2="176.4835382374775" y1="55.19839476539836" y2="52.563006222186495" /><path d="M 173.08426987136738 54.67131705675599 a86.0,86.0 0 0,1 12.851231095245387,41.99856678651699" fill="none" id="id15" stroke="none" /><text fill="#e1ed5e" style="font-size:6.75px; font-family:Arial;" text-anchor="middle"><textPath startOffset="22.20632615414155" xlink:href="#id15">March</textPath></text><line stroke="#e1ed5e" stroke-width="0.3" x1="184.98032266829074" x2="189.97916517819016" y1="98.17113171792111" y2="98.06355123074" /><path d="M 185.9800911702706 98.14961562048488 a86.0,86.0 0 0,1 -9.607161424134198,41.387399972396054" fill="none" id="id16" stroke="none" /><text fill="#e1ed5e" style="font-size:6.75px; font-family:Arial;" text-anchor="middle"><textPath startOffset="21.466115282336823" xlink:href="#id16">April</textPath></text><line stroke="#e1ed5e" stroke-width="0.3" x1="174.80103733775053" x2="179.2010983576182" y1="140.37084112569926" y2="142.7455964860345" /><path d="M 175.68104954172406 140.8457921977663 a86.0,86.0 0 0,1 -30.038265399797805,32.042727171017184" fill="none" id="id17" stroke="none" /><text fill="#e1ed5e" style="font-size:6.75px; font-family:Arial;" text-anchor="middle"><textPath startOffset="22.206326154141568" xlink:href="#id17">May</textPath></text><path d="M 117.94076556474637 110.91462005526583 l 1.5117738763484294 0.9197175789556556 a22.76955945880595,22.76955945880595 0 0,0 -0.20659077219453978,0.33309010471151074 l -1.4957184644859267 -0.9456040150324398" fill="#ff0000" stroke="none" /><line stroke="#e1ed5e" stroke-width="0.3" x1="143.8653032363475" x2="146.44561519142675" y1="172.8068346515853" y2="177.08958963109032" /><path d="M 144.38136562736335 173.6633856474863 a86.0,86.0 0 0,1 -40.68145358897372,12.25698825130547" fill="none" id="id18" stroke="none" /><text fill="#e1ed5e" style="font-size:6.75px; font-family:Arial;" text-anchor="middle"><textPath startOffset="21.466115282336833" xlink:href="#id18">June</textPath></text><path d="M 109.2508944713604 118.85261126421891 l 0.9122325897826031 1.8590598402095957 a23.07081428122891,23.07081428122891 0 0,0 -0.358023148246277,0.17187286818910186 l -0.8800967735360934 -1.8744869848982577" fill="#ff0400" stroke="none" /><path d="M 105.53697534728816 120.25689768951611 l 0.7078306738194847 2.589582333626443 a23.68457835151629,23.68457835151629 0 0,0 -0.3941898329445168,0.10410911761628638 l -0.6631503980634704 -2.6013828005463133" fill="#ff0d01" stroke="none" /><path d="M 104.48393922423573 120.51570834832081 l 1.3577019277154503 6.2119969473294505 a27.358636693360666,27.358636693360666 0 0,0 -0.4609390126553586,0.09659425172800432 l -1.2505714536307138 -6.234447179783996" fill="#ff4306" stroke="none" /><path d="M 102.70371172650421 120.8252237178851 l 0.4624902298115408 3.56231117716626 a24.592207974997383,24.592207974997383 0 0,0 -0.4202604308973194,0.0508876854776057 l -0.40110237586284114 -3.5697443913692166" fill="#ff1b02" stroke="none" /><line stroke="#e1ed5e" stroke-width="0.3" x1="102.19456741930631" x2="102.32365962044197" y1="184.97166512339345" y2="189.96999836594603" /><path d="M 102.22038585953345 185.97133177190398 a86.0,86.0 0 0,1 -42.740103519485714,-10.115201625700543" fill="none" id="id19" stroke="none" /><text fill="#e1ed5e" style="font-size:6.75px; font-family:Arial;" text-anchor="middle"><textPath startOffset="22.20632615414155" xlink:href="#id19">July</textPath></text><path d="M 98.01472825383883 120.90594882070398 l -0.8873614671914785 9.344379908917391 a30.386418180308993,30.386418180308993 0 0,0 -0.5202840706452522,-0.0539295712355938 l 1.048078134442324 -9.327720969226036" fill="#ff6d0a" stroke="none" /><path d="M 97.65516085044442 120.86867818915974 l -1.3943445261370753 12.409434227625388 a33.48752395422443,33.48752395422443 0 0,0 -0.5722740008133738,-0.06929441179657364 l 1.6077459500018385 -12.383594287103465" fill="#ff970d" stroke="none" /><path d="M 92.40401165467489 119.57807347666478 l -1.6161805648216205 4.165580621132585 a25.46812058132527,25.46812058132527 0 0,0 -0.4073430921948447,-0.16209022298766307 l 1.6876447330583233 -4.137143553738856" fill="#ff2703" stroke="none" /><line stroke="#e1ed5e" stroke-width="0.3" x1="58.666819895761336" x2="56.23545636021788" y1="174.27360380694188" y2="178.64263932499728" /><path d="M 58.180547188652646 175.14741091055294 a86.0,86.0 0 0,1 -31.652253787137756,-30.449443065178592" fill="none" id="id20" stroke="none" /><text fill="#e1ed5e" style="font-size:6.75px; font-family:Arial;" text-anchor="middle"><textPath startOffset="22.20632615414155" xlink:href="#id20">August</textPath></text><path d="M 86.79598089348748 116.32954008644616 l -2.152858725846657 2.6624615263415556 a24.423959998700788,24.423959998700788 0 0,0 -0.32464080070795304,-0.2671572775494542 l 2.198369655099299 -2.6250091299349205" fill="#ff1802" stroke="none" /><line stroke="#e1ed5e" stroke-width="0.3" x1="26.63291911575756" x2="22.317208475507996" y1="142.92168965132927" y2="145.44649492493687" /><path d="M 25.769776987707644 143.4266507060508 a86.0,86.0 0 0,1 -11.730757126820373,-40.83630448921669" fill="none" id="id21" stroke="none" /><text fill="#e1ed5e" style="font-size:6.75px; font-family:Arial;" text-anchor="middle"><textPath startOffset="21.46611528233685" xlink:href="#id21">September</textPath></text><line stroke="#e1ed5e" stroke-width="0.3" x1="15.007084014347285" x2="10.007500721073583" y1="101.09737516637583" y2="101.16192664675087" /><path d="M 14.007167355692545 101.11028546245083 a86.0,86.0 0 0,1 10.666146001902534,-42.60595125391555" fill="none" id="id22" stroke="none" /><text fill="#e1ed5e" style="font-size:6.75px; font-family:Arial;" text-anchor="middle"><textPath startOffset="22.20632615414155" xlink:href="#id22">October</textPath></text><path d="M 79.05617556472873 98.46500227214037 l -15.182762912318962 -1.112762697427532 a36.22348614715021,36.22348614715021 0 0,0 0.05092938696913842,-0.6214675204302407 l 15.161359041530327 1.373944135065551" fill="#ffbb11" stroke="none" /><path d="M 79.32604984820605 96.31383870115002 l -19.2045672620955 -3.424170614852482 a40.50744340306975,40.50744340306975 0 0,0 0.1283011082960684,-0.685389650812132 l 19.142780429889573 3.7542383431271866" fill="#fff216" stroke="none" /><path d="M 79.46518482838121 95.60439243477599 l -9.589684798911039 -2.0527329171419115 a30.806924439985423,30.806924439985423 0 0,0 0.11546085107766489,-0.5175883557834169 l 9.552929560831336 2.2174994424752876" fill="#ff730a" stroke="none" /><path d="M 80.14247586403 93.16781622104843 l -59.572572407909995 -20.496551336854708 a84.0,84.0 0 0,0 0.4821876767607618,-1.3632094942935558 l 59.210931650339425 21.518958457574875" fill="#4dd2ff" stroke="none" /><path d="M 80.52162464483688 92.15188598940014 l -13.72152359699196 -5.528596693757842 a35.793430678008306,35.793430678008306 0 0,0 0.2351770088336826,-0.5694997809637691 l 13.624324901272077 5.763971045174922" fill="#ffb510" stroke="none" /><path d="M 80.803312248108 91.48605970444005 l -11.292051083377427 -5.008147758657632 a33.352811892122084,33.352811892122084 0 0,0 0.23727775330667672,-0.5228100770531922 l 11.204171013107397 5.201779844552895" fill="#ff950d" stroke="none" /><path d="M 81.10775173730289 90.83032412892265 l -16.238077299026678 -7.88142859077147 a39.04971110573783,39.04971110573783 0 0,0 0.29871167077136657,-0.6021845006418481 l 16.1000056153019 8.15977267991228" fill="#ffdf14" stroke="none" /><path d="M 81.6062741919709 89.86733742301443 l -14.599290907896115 -8.042399358176327 a37.6679177598695,37.6679177598695 0 0,0 0.31774208569457263,-0.5652277158359652 l 14.458691180909112 8.292510583947077" fill="#ffce13" stroke="none" /><line stroke="#e1ed5e" stroke-width="0.3" x1="26.266209847984243" x2="21.928928074336255" y1="57.711370442889674" y2="55.22380399835377" /><path d="M 25.398753493254645 57.213857153982495 a86.0,86.0 0 0,1 29.58750427330803,-30.492523968695096" fill="none" id="id23" stroke="none" /><text fill="#e1ed5e" style="font-size:6.75px; font-family:Arial;" text-anchor="middle"><textPath startOffset="21.46611528233685" xlink:href="#id23">November</textPath></text><path d="M 81.96595687620814 89.24020034530311 l -3.142262357991537 -1.8747938663781691 a24.65905244125576,24.65905244125576 0 0,0 0.22062125633065008,-0.3626433369541211 l 3.10952530337467 1.9286049765393647" fill="#ff1c02" stroke="none" /><path d="M 82.15384107792192 88.93136811851018 l -15.892614085095019 -9.856994757839647 a39.70121728962687,39.70121728962687 0 0,0 0.36519902741897947,-0.5776571586406927 l 15.720587461430078 10.129099564194554" fill="#ffe815" stroke="none" /><path d="M 82.54541684631803 88.32363383020206 l -2.450177716480112 -1.6390636170916617 a23.94786369820745,23.94786369820745 0 0,0 0.23215234040260746,-0.3406549134466276 l 2.4216009104087646 1.680996553808705" fill="#ff1101" stroke="none" /><path d="M 83.17141714833178 87.43820079747576 l -20.50405622073716 -15.305378911132461 a46.58653835743492,46.58653835743492 0 0,0 0.48521889525921147,-0.6384911894415373 l 20.237561385253837 15.656054876455025" fill="#c3ff1e" stroke="none" /><path d="M 85.83668400450813 84.49514656593479 l -12.704155713406545 -13.90748271115376 a39.836497757054545,39.836497757054545 0 0,0 0.5102657233002573,-0.4581216045470988 l 12.462879002510316 14.124103324470138" fill="#ffe915" stroke="none" /><line stroke="#e1ed5e" stroke-width="0.3" x1="56.762969772571076" x2="54.21961505331055" y1="26.818313649435495" y2="22.513508569990535" /><path d="M 56.25429882871897 25.957352633546506 a86.0,86.0 0 0,1 42.265352541879196,-11.944610805530505" fill="none" id="id24" stroke="none" /><text fill="#e1ed5e" style="font-size:6.75px; font-family:Arial;" text-anchor="middle"><textPath startOffset="22.20632615414155" xlink:href="#id24">December</textPath></text><path d="M 92.23578459929587 80.48803036053334 l -5.372991954352615 -13.502672256738153 a35.53241895261846,35.53241895261846 0 0,0 0.570239208348428,-0.22124395364154822 l 5.1397695810045105 13.593158914270253" fill="#ffb210" stroke="none" /></svg>