<?xml version="1.0" encoding="utf-8" ?>
<svg baseProfile="full" height="200mm" version="1.1" viewBox="0,0,200,200" width="200mm" xmlns="http://www.w3.org/2000/svg" xmlns:ev="http://www.w3.org/2001/xml-events" xmlns:xlink="http://www.w3.org/1999/xlink"><defs /><rect fill="#1a1a1a" height="200" width="200" x="0" y="0" /><rect fill="#1a1a1a" height="200" width="180" x="10" y="0" /><text alignment-baseline="middle" fill="#e1ed5e" style="dominant-baseline: central; font-size:9.0px; font-family:Arial;" text-anchor="middle" x="100.0" y="100.0">2025</text><line stroke="#e1ed5e" stroke-width="0.3" x1="100.0" x2="100.0" y1="15.0" y2="10.0" /><path d="M 100.0 14.0 a86.0,86.0 0 0,1 42.46469731375804,11.215312516191453" fill="none" id="id37" stroke="none" /><text fill="#e1ed5e" style="font-size:6.75px; font-family:Arial;" text-anchor="middle"><textPath startOffset="22.20632615414155" xlink:href="#id37">January</textPath></text><path d="M 106.0581310904928 79.89281104454417 l 1.1776495786332641 -3.9086679121309387 a25.082222847588937,25.082222847588937 0 0,0 0.41232143866272014,0.1281102780704262 l -1.2447563900067025 3.887817499177992" fill="#ff2b04" stroke="none" /><line stroke="#e1ed5e" stroke-width="0.3" x1="143.23703022742887" x2="145.7803849466894" y1="26.81831364943548" y2="22.513508569990506" /><path d="M 143.74570117128098 25.957352633546492 a86.0,86.0 0 0,1 28.547481713284135,27.462654790039103" fill="none" id="id38" stroke="none" /><text fill="#e1ed5e" style="font-size:6.75px; font-family:Arial;" text-anchor="middle"><textPath startOffset="19.985693538727396" xlink:href="#id38">February</textPath></text><path d="M 116.38621287248628 86.86637796730983 l 5.466754618466447 -4.3816279858634415 a28.006002416858415,28.006002416858415 0 0,0 0.2982584837812364,0.37875798577892283 l -5.541367182841648 4.286877606131481" fill="#ff5407" stroke="none" /><line stroke="#e1ed5e" stroke-width="0.3" x1="172.23445277983987" x2="176.4835382374775" y1="55.19839476539836" y2="52.563006222186495" /><path d="M 173.08426987136738 54.67131705675599 a86.0,86.0 0 0,1 12.851231095245387,41.99856678651699" fill="none" id="id39" stroke="none" /><text fill="#e1ed5e" style="font-size:6.75px; font-family:Arial;" text-anchor="middle"><textPath startOffset="22.20632615414155" xlink:href="#id39">March</textPath></text><path d="M 118.03404312379186 89.2402003453031 l 2.8644779847606765 -1.7090570882939249 a24.335582446324224,24.335582446324224 0 0,0 0.2115345305574387,0.36158108264820543 l -2.893472189788443 1.6594965932918242" fill="#ff2003" stroke="none" /><path d="M 120.08093135843002 93.85539295169968 l 7.876336370291061 -2.4100969776661985 a29.23682232779884,29.23682232779884 0 0,0 0.1431129963090778,0.4825058782727615 l -7.91665526371184 2.274161712646907" fill="#ff6509" stroke="none" /><path d="M 120.73433829027371 96.67025291283417 l 4.51646052453104 -0.7253026870363735 a25.574328328560313,25.574328328560313 0 0,0 0.0660598376701313,0.4352517926001797 l -4.528276255640471 0.6474517820441116" fill="#ff3204" stroke="none" /><path d="M 120.96714384426684 98.82574320788733 l 1.7170365441836153 -0.09616196842492619 a22.719727192967934,22.719727192967934 0 0,0 0.018507264485285377,0.390659102377911 l -1.7184374169023973 0.06659175942401542" fill="#ff0901" stroke="none" /><line stroke="#e1ed5e" stroke-width="0.3" x1="184.98032266829074" x2="189.97916517819016" y1="98.17113171792111" y2="98.06355123074" /><path d="M 185.9800911702706 98.14961562048488 a86.0,86.0 0 0,1 -9.607161424134198,41.387399972396054" fill="none" id="id40" stroke="none" /><text fill="#e1ed5e" style="font-size:6.75px; font-family:Arial;" text-anchor="middle"><textPath startOffset="21.466115282336823" xlink:href="#id40">April</textPath></text><path d="M 120.89721153311464 102.0752229133903 l 2.681293956085545 0.26626914535397406 a23.69448261020709,23.69448261020709 0 0,0 -0.04379834676436133,0.40551829529263217 l -2.676313307820132 -0.3123837625313977" fill="#ff1702" stroke="none" /><path d="M 120.5718875245553 104.21870165774334 l 2.649700250807989 0.5433772096636156 a23.704841993742654,23.704841993742654 0 0,0 -0.08541188839722509,0.3990159075100617 l -2.639954323686321 -0.5889069365898463" fill="#ff1702" stroke="none" /><path d="M 118.81262510543309 109.33194174019688 l 6.081925594846233 3.0169194889726523 a27.789081097187506,27.789081097187506 0 0,0 -0.21625374277712514,0.42668915049716105 l -6.029093182282838 -3.1211628511725076" fill="#ff5107" stroke="none" /><line stroke="#e1ed5e" stroke-width="0.3" x1="174.80103733775053" x2="179.2010983576182" y1="140.37084112569926" y2="142.7455964860345" /><path d="M 175.68104954172406 140.8457921977663 a86.0,86.0 0 0,1 -30.038265399797805,32.042727171017184" fill="none" id="id41" stroke="none" /><text fill="#e1ed5e" style="font-size:6.75px; font-family:Arial;" text-anchor="middle"><textPath startOffset="22.206326154141568" xlink:href="#id41">May</textPath></text><path d="M 117.94076556474637 110.91462005526583 l 43.39111761357728 26.39784577845266 a71.79011074508765,71.79011074508765 0 0,0 -0.6513597437662916,1.0501993044087725 l -42.93029323014302 -27.140841414226706" fill="#3effb4" stroke="none" /><path d="M 117.75023020441432 111.22182372390056 l 2.441585903765341 1.5435882410134132 a23.888599380886955,23.888599380886955 0 0,0 -0.2227272180719844,0.345677588570538 l -2.4146538223163065 -1.585387429505404" fill="#ff1a02" stroke="none" /><path d="M 117.35343817320211 111.8261652097733 l 3.024563886805115 2.061204924111655 a24.66013011306262,24.66013011306262 0 0,0 -0.24206746908430554,0.3487162434609022 l -2.988635510558673 -2.112962429759577" fill="#ff2503" stroke="none" /><path d="M 116.93607887273984 112.41649034213515 l 4.987829284128433 3.6567693502114964 a27.184691022860832,27.184691022860832 0 0,0 -0.27992300724136804,0.37500261256388234 l -4.924145010191973 -3.7420848422846937" fill="#ff4906" stroke="none" /><path d="M 116.71984013943494 112.70617746262583 l 33.77950745235723 25.670605263588854 a63.426820506878116,63.426820506878116 0 0,0 -0.6680752524597455,0.8635773212545367 l -33.33262538267942 -26.248260578956643" fill="#33ff56" stroke="none" /><path d="M 115.80600337817218 113.82643327865902 l 8.277658052164517 7.240950417602814 a31.997771855187143,31.997771855187143 0 0,0 -0.3662086331602715,0.4114392815066306 l -8.151790569355908 -7.3823638688503115" fill="#ff8b0c" stroke="none" /><path d="M 115.07121518719521 114.62390073753431 l 11.704148687726804 11.356768946679258 a37.3083812014766,37.3083812014766 0 0,0 -0.4511815795293716,0.4570445580129965 l -11.506926483141896 -11.55655399867292" fill="#ffd013" stroke="none" /><path d="M 114.55890576462653 115.13401014063108 l 20.279655092291947 21.08073991116461 a50.25170090549422,50.25170090549422 0 0,0 -0.6285390994659207,0.5943229499775419 l -19.91378015843522 -21.426697497888075" fill="#96ff23" stroke="none" /><path d="M 114.0293411484842 115.62618273729858 l 14.087261618653086 15.69069580612412 a42.08669900180437,42.08669900180437 0 0,0 -0.5432343621598932,0.4793411638298532 l -13.815084903586605 -15.930860111726263" fill="#f3ff19" stroke="none" /><path d="M 113.20401910651253 116.32954008644616 l 31.628007136432 39.11466699817453 a71.30196824976412,71.30196824976412 0 0,0 -0.9610232317905267,0.7634949773359635 l -30.95002641192412 -39.65329588951562" fill="#3dffaf" stroke="none" /><path d="M 112.92097659922987 116.55440617244103 l 17.052848630769606 21.848176913170846 a48.7153834693506,48.7153834693506 0 0,0 -0.6654782856085544,0.5102603719547784 l -16.674241616667558 -22.138476626952997" fill="#a7ff21" stroke="none" /><path d="M 112.34349029814194 116.9893568818739 l 17.851503891725237 24.570487209791402 a51.37079243159131,51.37079243159131 0 0,0 -0.7198581123506986,0.5135996497439118 l -17.425918451525654 -24.874131121379534" fill="#89ff24" stroke="none" /><path d="M 111.1453310114006 117.79835938074945 l 10.78419490714932 17.221648813584313 a41.31954841166051,41.31954841166051 0 0,0 -0.6060609695331131,0.37229214785377807 l -10.486154737683899 -17.404729428266467" fill="#fdff18" stroke="none" /><line stroke="#e1ed5e" stroke-width="0.3" x1="143.8653032363475" x2="146.44561519142675" y1="172.8068346515853" y2="177.08958963109032" /><path d="M 144.38136562736335 173.6633856474863 a86.0,86.0 0 0,1 -40.68145358897372,12.25698825130547" fill="none" id="id42" stroke="none" /><text fill="#e1ed5e" style="font-size:6.75px; font-family:Arial;" text-anchor="middle"><textPath startOffset="21.466115282336833" xlink:href="#id42">June</textPath></text><path d="M 106.91757812671514 119.82793768551818 l 12.24151041797746 35.08798907624885 a58.16209836282673,58.16209836282673 0 0,0 -0.9481260316894167,0.32165582759982214 l -11.635714653350817 -35.293507890746795" fill="#43ff2d" stroke="none" /><path d="M 106.57524785965236 119.94407469862006 l 4.864784352305893 14.755888232051591 a36.53712857355692,36.53712857355692 0 0,0 -0.5989977847401688,0.1917801749472131 l -4.610065222474783 -14.83744125365851" fill="#ffc612" stroke="none" /><path d="M 105.88484417918355 120.15858648285463 l 0.8127863219818241 2.7842068311186945 a23.900418811766457,23.900418811766457 0 0,0 -0.3959147987552335,0.11188947681426283 l -0.7647403551219849 -2.7977851012714763" fill="#ff1a02" stroke="none" /><path d="M 105.53697534728816 120.25689768951611 l 3.3077032254751217 12.101156610449497 a33.5450744094423,33.5450744094423 0 0,0 -0.5583011477475975,0.1474524074403092 l -3.0989116349160266 -12.15630036719339" fill="#ff9f0e" stroke="none" /><path d="M 104.48393922423573 120.51570834832081 l 1.6790592859274536 7.682327722784608 a28.863675942326473,28.863675942326473 0 0,0 -0.48629595252050234,0.1019080450176535 l -1.5465718719775732 -7.710091748528803" fill="#ff6008" stroke="none" /><path d="M 104.13013068566511 120.58985236759428 l 7.684699912537597 38.310370477522376 a60.07350891423464,60.07350891423464 0 0,0 -1.015621008136605,0.19464618340775233 l -7.024111289829287 -38.436973859278595" fill="#30ff2f" stroke="none" /><path d="M 103.06178313531738 120.77559828337769 l 2.187460041118187 14.842916387839301 a36.00323792812329,36.00323792812329 0 0,0 -0.6138919107980403,0.08507982504077759 l -1.931639539133316 -14.87837077837268" fill="#ffbf11" stroke="none" /><line stroke="#e1ed5e" stroke-width="0.3" x1="102.19456741930631" x2="102.32365962044197" y1="184.97166512339345" y2="189.96999836594603" /><path d="M 102.22038585953345 185.97133177190398 a86.0,86.0 0 0,1 -42.740103519485714,-10.115201625700543" fill="none" id="id43" stroke="none" /><text fill="#e1ed5e" style="font-size:6.75px; font-family:Arial;" text-anchor="middle"><textPath startOffset="22.20632615414155" xlink:href="#id43">July</textPath></text><path d="M 100.54218724476979 120.99299961872073 l 0.6270646030498357 24.27937414560114 a45.28747041003824,45.28747041003824 0 0,0 -0.7794627309038498,0.013419157790278453 l -0.20904218225331794 -24.286570780670576" fill="#ceff1d" stroke="none" /><path d="M 99.09653310690486 120.98055641714683 l -1.7938025651447755 41.65617601139881 a62.69478057905279,62.69478057905279 0 0,0 -1.077788754154111,-0.05570936764792747 l 2.5105793877123754 -41.619126836988684" fill="#32ff4e" stroke="none" /><path d="M 97.65516085044442 120.86867818915974 l -3.907231997915789 34.77371451698352 a55.992537535797645,55.992537535797645 0 0,0 -0.9568660112077862,-0.11586314828305522 l 4.5052254321749645 -34.70130583997511" fill="#59ff2a" stroke="none" /><path d="M 96.58105272829116 120.7198165907248 l -2.5175436827228923 15.2570482138744 a36.46336141965601,36.46336141965601 0 0,0 -0.6184030320569934,-0.10751729385749535 l 2.7797956862519357 -15.211452341495898" fill="#ffc512" stroke="none" /><path d="M 96.22490169976321 120.6578951692458 l -6.132458430695046 33.557717790582984 a55.11344998261848,55.11344998261848 0 0,0 -0.9317647436434576,-0.17857493073804437 l 6.709190788910198 -33.44718566149647" fill="#62ff29" stroke="none" /><path d="M 95.16358092515715 120.4354850818985 l -8.025482190014436 33.910341314748685 a55.84708900991574,55.84708900991574 0 0,0 -0.9335684358849746,-0.22944840793332844 l 8.608003910642623 -33.767171648501325" fill="#5aff2a" stroke="none" /><path d="M 94.11515582081647 120.15858648285463 l -0.935161154504963 3.203402916797355 a24.33711201973216,24.33711201973216 0 0,0 -0.40112778666097115,-0.1208565116195418 l 0.9901639156061799 -3.1868310360720877" fill="#ff2003" stroke="none" /><path d="M 93.76903079525671 120.05430185196036 l -8.222643136909513 26.464481217946773 a48.71246337466272,48.71246337466272 0 0,0 -0.798602922282653,-0.2556874366658274 l 8.676967404283106 -26.31902093462124" fill="#a7ff21" stroke="none" /><path d="M 93.08242187328487 119.8279376855182 l -12.985680545181513 37.221012894605536 a60.42120876028407,60.42120876028407 0 0,0 -0.9790550221063082,-0.35105429781810965 l 13.624455127917546 -36.99197105574747" fill="#30ff33" stroke="none" /><path d="M 92.7421414339146 119.70592522655815 l -7.113419863770383 19.313757448456077 a41.58207882931352,41.58207882931352 0 0,0 -0.66953043499449,-0.25315912107293587 l 7.444820519525156 -19.18845007727651" fill="#faff18" stroke="none" /><path d="M 92.40401165467489 119.57807347666478 l -0.585835052738329 1.509944616328382 a22.61960966081213,22.61960966081213 0 0,0 -0.3617833406298462,-0.14396105759383634 l 0.6117394694100333 -1.499636714328479" fill="#ff0801" stroke="none" /><path d="M 92.06813273071674 119.44442032107085 l -0.525158442123281 1.287389354502721 a22.390382227813735,22.390382227813735 0 0,0 -0.35561102408269873,-0.1486454369074766 l 0.5472409257034421 -1.2781588745752712" fill="#ff0400" stroke="none" /><path d="M 91.7346041902142 119.30500536409082 l -1.3727816921111566 3.2063265377509325 a24.487844526477843,24.487844526477843 0 0,0 -0.38606757356725513,-0.16924067877173168 l 1.427769940336155 -3.1822213056847484" fill="#ff2303" stroke="none" /><path d="M 91.40352486487194 119.15986991738527 l -11.069016568901992 24.6706835348027 a48.04007680974689,48.04007680974689 0 0,0 -0.7515572722758695,-0.3450030821454297 l 11.492041836945281 -24.476493382323195" fill="#aeff20" stroke="none" /><path d="M 91.07499286063937 119.00905698771935 l -9.08495371568323 19.349721542585428 a42.37634458441623,42.37634458441623 0 0,0 -0.6576149465008475,-0.31569513751489753 l 9.416681330184321 -19.190472128570967" fill="#f0ff19" stroke="none" /><path d="M 90.10565033884886 118.52300852407294 l -0.5177708313137281 0.9693081253836252 a22.09892896753795,22.09892896753795 0 0,0 -0.3339855207824686,-0.1821155354252071 l 0.5343791639648373 -0.9602519381986523" fill="#ff0000" stroke="none" /><line stroke="#e1ed5e" stroke-width="0.3" x1="58.666819895761336" x2="56.23545636021788" y1="174.27360380694188" y2="178.64263932499728" /><path d="M 58.180547188652646 175.14741091055294 a86.0,86.0 0 0,1 -31.652253787137756,-30.449443065178592" fill="none" id="id44" stroke="none" /><text fill="#e1ed5e" style="font-size:6.75px; font-family:Arial;" text-anchor="middle"><textPath startOffset="22.20632615414155" xlink:href="#id44">August</textPath></text><path d="M 89.7882731507175 118.34994917583269 l -0.9010337276241216 1.6191113757391027 a22.852939131586353,22.852939131586353 0 0,0 -0.3420880759756555,-0.1942465374893386 l 0.9287705705209843 -1.603361672455131" fill="#ff0b01" stroke="none" /><path d="M 89.4739219176387 118.17145234162733 l -10.447562450850882 18.035908690430695 a41.84335777781456,41.84335777781456 0 0,0 -0.6201427297385872,-0.36639125562895153 l 10.756473051617851 -17.853398862507994" fill="#f6ff19" stroke="none" /><path d="M 89.1626897886671 117.98757091392108 l -4.991595942990727 8.284960405054548 a30.67246602327468,30.67246602327468 0 0,0 -0.44989321545419736,-0.27636115821039436 l 5.1334683583772325 -8.197810780015775" fill="#ff790b" stroke="none" /><path d="M 88.8546689885994 117.79835938074946 l -15.316716847437618 24.45978775372561 a49.859712956678635,49.859712956678635 0 0,0 -0.7234838991722273,-0.46176165490765786 l 15.735482548656769 -24.192511669994147" fill="#9aff23" stroke="none" /><path d="M 88.54995079064634 117.60387380957326 l -11.092951877657695 17.05485465253977 a41.345064477147446,41.345064477147446 0 0,0 -0.5932530480567695,-0.39317577115206565 l 11.384879624454426 -16.86138086029639" fill="#fcff18" stroke="none" /><path d="M 87.95078237400918 117.19931262002967 l -0.8998068260419764 1.2844036334234608 a22.568229899518283,22.568229899518283 0 0,0 -0.31624825325009004,-0.2256347317820344 l 0.9217824071409534 -1.268724639797207" fill="#ff0701" stroke="none" /><path d="M 87.36589467227662 116.77436683061367 l -15.595315917439635 20.70598140925746 a46.92202817460975,46.92202817460975 0 0,0 -0.6409800897197494,-0.4914762000039048 l 15.94942473565287 -20.43446586742619" fill="#bbff1f" stroke="none" /><path d="M 87.07902340077011 116.55440617244103 l -13.382126850813915 17.14523369330354 a42.7494909698886,42.7494909698886 0 0,0 -0.5761868147225679,-0.45775765298437426 l 13.67527115825384 -16.912342126314034" fill="#ebff1a" stroke="none" /><path d="M 86.51685102203217 116.09983520530335 l -17.37357391374844 20.74527822807345 a48.05933552947408,48.05933552947408 0 0,0 -0.629656303663104,-0.5366067620834861 l 17.7280956939886 -20.443147075767012" fill="#aeff20" stroke="none" /><path d="M 85.97065885151581 115.62618273729859 l -0.8967222109706695 0.9987885378876874 a22.342270191527753,22.342270191527753 0 0,0 -0.28396009428819147,-0.2593908135034092 l 0.9137818547257156 -0.9832049577977022" fill="#ff0400" stroke="none" /><path d="M 85.70375840098266 115.38237550388516 l -1.7054957822092451 1.8350680743978338 a23.505232664007018,23.505232664007018 0 0,0 -0.29399915834005325,-0.2779945547127389 l 1.7368307749401155 -1.805438882939164" fill="#ff1402" stroke="none" /><path d="M 85.44109423537348 115.13401014063109 l -20.84375274053449 21.66712048583332 a51.06536443245212,51.06536443245212 0 0,0 -0.6282256825272109,-0.6148510543317615 l 21.213628375437498 -21.30511932857899" fill="#8dff24" stroke="none" /><path d="M 85.18274418774928 114.88116024355367 l -22.0623049817443 22.15745614002589 a52.26816533960172,52.26816533960172 0 0,0 -0.6320947904352046,-0.640308685514423 l 22.440440397235037 -21.7744069605308" fill="#80ff26" stroke="none" /><path d="M 84.43433777217949 114.09645910891817 l -13.290218999138727 12.035789157436854 a38.930146170272636,38.930146170272636 0 0,0 -0.44554838637722205,-0.500578335320828 l 13.495426235164286 -11.80523665237516" fill="#ffe415" stroke="none" /><path d="M 84.19399662182784 113.82643327865904 l -1.8478232888696635 1.6163988329643901 a23.455034845801123,23.455034845801123 0 0,0 -0.2632073642710204,-0.3061696281523044 l 1.8753731627114627 -1.5843521056505554" fill="#ff1402" stroke="none" /><path d="M 83.72743513129214 113.27417163493432 l -16.743967946398904 13.658713679350472 a42.608353059974505,42.608353059974505 0 0,0 -0.45871359160489006,-0.5723157359661619 l 16.976599450058654 -13.368470109806049" fill="#edff1a" stroke="none" /><path d="M 83.50135304334701 112.99209946851258 l -1.87324603529758 1.4751148311449302 a23.384326838716085,23.384326838716085 0 0,0 -0.24630731812707404,-0.3183854112398573 l 1.8983601706427224 -1.4426514257918204" fill="#ff1302" stroke="none" /><path d="M 82.6465618267979 111.8261652097733 l -52.06031451960629 35.47849562931989 a84.0,84.0 0 0,0 -0.8039875783570785,-1.2018523431767165 l 52.6633052033741 -34.57710637193735" fill="#4dd2ff" stroke="none" /><path d="M 82.44556493220864 111.52570212397912 l -2.1371374673072694 1.4031787266895996 a23.556612425300866,23.556612425300866 0 0,0 -0.21963191181836986,-0.3408736045271885 l 2.160974242502685 -1.3661835222409628" fill="#ff1502" stroke="none" /><path d="M 82.24976979558568 111.22182372390057 l -5.244235272828633 3.3154434123174963 a27.204366898972005,27.204366898972005 0 0,0 -0.24682827855717923,-0.3979657768690272 l 5.300528191053768 -3.2246813040832047" fill="#ff4906" stroke="none" /><path d="M 82.05923443525364 110.91462005526583 l -19.868872936155366 12.087622361590993 a44.256885563409426,44.256885563409426 0 0,0 -0.39034388516086943,-0.6542388040679438 l 20.073997697014466 -11.74382146363694" fill="#daff1c" stroke="none" /><line stroke="#e1ed5e" stroke-width="0.3" x1="26.63291911575756" x2="22.317208475507996" y1="142.92168965132927" y2="145.44649492493687" /><path d="M 25.769776987707644 143.4266507060508 a86.0,86.0 0 0,1 -11.730757126820373,-40.83630448921669" fill="none" id="id45" stroke="none" /><text fill="#e1ed5e" style="font-size:6.75px; font-family:Arial;" text-anchor="middle"><textPath startOffset="21.46611528233685" xlink:href="#id45">September</textPath></text><path d="M 81.51974371655577 109.97397251340807 l -3.0700799542805375 1.656951754797431 a24.488678839245807,24.488678839245807 0 0,0 -0.1970143269893756,-0.37267685987624155 l 3.098146789494799 -1.6038598798350634" fill="#ff2303" stroke="none" /><path d="M 81.35079622478065 109.6543875284942 l -1.1200203826664206 0.5798162186657111 a22.26120280090715,22.26120280090715 0 0,0 -0.17323597018485387,-0.34181100407547155 l 1.1298350226375413 -0.5604510028875545" fill="#ff0200" stroke="none" /><path d="M 81.02952815118164 109.00673069616217 l -17.198190319145784 8.165293404419865 a40.03811352613022,40.03811352613022 0 0,0 -0.29022938916789,-0.6251282842490599 l 17.3361943251535 -7.868045052891977" fill="#fff216" stroke="none" /><path d="M 80.87730276802145 108.67885076344099 l -27.54707964014949 12.502263162211088 a51.25141617970833,51.25141617970833 0 0,0 -0.35768342672779924,-0.8064817016042752 l 27.75820415160857 -12.026233124114116" fill="#8bff24" stroke="none" /><path d="M 80.58989483394504 108.01547362559985 l -17.730417275739462 7.321840393379721 a40.18272773924416,40.18272773924416 0 0,0 -0.2585038795037634,-0.6415854291794765 l 17.85382376950061 -7.015555596357439" fill="#fff316" stroke="none" /><path d="M 80.20201598880116 107.00284435728193 l -7.143123380861878 2.526630046409872 a28.576811402274494,28.576811402274494 0 0,0 -0.16004262111017037,-0.4651587712364976 l 7.185556832915277 -2.4032985720840774" fill="#ff5c08" stroke="none" /><path d="M 80.0844068197444 106.66101706037122 l -24.207489392042586 8.096494960994258 a46.52559055769836,46.52559055769836 0 0,0 -0.2474889995876252,-0.7616928196628104 l 24.34327064264646 -7.678603241353644" fill="#bfff1e" stroke="none" /><path d="M 79.97269907076064 106.31721596034903 l -33.22233136119956 10.479327327057094 a55.83589531361221,55.83589531361221 0 0,0 -0.2812353741585997,-0.9190934749201553 l 33.39779350786429 -9.905906879584892" fill="#5aff2a" stroke="none" /><path d="M 79.86692584326677 105.97154293290107 l -25.642915547485348 7.60578190516195 a47.74709397606317,47.74709397606317 0 0,0 -0.22692912124296427,-0.7899700413506041 l 25.770037305614416 -7.1632543883067505" fill="#b1ff20" stroke="none" /><path d="M 79.76711848015287 105.62410040840567 l -22.42159237677071 6.23249272327348 a44.27169461504081,44.27169461504081 0 0,0 -0.19777203978316493,-0.7359833330378293 l 22.52555249289565 -5.845618457060112" fill="#d9ff1c" stroke="none" /><path d="M 79.58551787078972 104.9243191809786 l -1.9263804057234912 0.4646756122308007 a22.98163187604496,22.98163187604496 0 0,0 -0.089452646835249,-0.385359661372977 l 1.9340936184892954 -0.4314472935092495" fill="#ff0d01" stroke="none" /><path d="M 79.4281124754447 104.21870165774334 l -29.782020565271203 6.107434691137897 a51.40180105613402,51.40180105613402 0 0,0 -0.17028698784031918,-0.868289682316545 l 29.88273748608719 -5.593881281753397" fill="#89ff24" stroke="none" /><line stroke="#e1ed5e" stroke-width="0.3" x1="15.007084014347285" x2="10.007500721073583" y1="101.09737516637583" y2="101.16192664675087" /><path d="M 14.007167355692545 101.11028546245083 a86.0,86.0 0 0,1 10.666146001902534,-42.60595125391555" fill="none" id="id46" stroke="none" /><text fill="#e1ed5e" style="font-size:6.75px; font-family:Arial;" text-anchor="middle"><textPath startOffset="22.20632615414155" xlink:href="#id46">October</textPath></text><line stroke="#e1ed5e" stroke-width="0.3" x1="26.266209847984243" x2="21.928928074336255" y1="57.711370442889674" y2="55.22380399835377" /><path d="M 25.398753493254645 57.213857153982495 a86.0,86.0 0 0,1 29.58750427330803,-30.492523968695096" fill="none" id="id47" stroke="none" /><text fill="#e1ed5e" style="font-size:6.75px; font-family:Arial;" text-anchor="middle"><textPath startOffset="21.46611528233685" xlink:href="#id47">November</textPath></text><line stroke="#e1ed5e" stroke-width="0.3" x1="56.762969772571076" x2="54.21961505331055" y1="26.818313649435495" y2="22.513508569990535" /><path d="M 56.25429882871897 25.957352633546506 a86.0,86.0 0 0,1 42.265352541879196,-11.944610805530505" fill="none" id="id48" stroke="none" /><text fill="#e1ed5e" style="font-size:6.75px; font-family:Arial;" text-anchor="middle"><textPath startOffset="22.20632615414155" xlink:href="#id48">December</textPath></text></svg>