<?xml version="1.0" encoding="utf-8" ?>
<svg baseProfile="full" height="200mm" version="1.1" viewBox="0,0,200,200" width="200mm" xmlns="http://www.w3.org/2000/svg" xmlns:ev="http://www.w3.org/2001/xml-events" xmlns:xlink="http://www.w3.org/1999/xlink"><defs /><rect fill="#1a1a1a" height="200" width="200" x="0" y="0" /><rect fill="#1a1a1a" height="200" width="180" x="10" y="0" /><text alignment-baseline="middle" fill="#e1ed5e" style="dominant-baseline: central; font-size:9.0px; font-family:Arial;" text-anchor="middle" x="100.0" y="100.0">2025</text><line stroke="#e1ed5e" stroke-width="0.3" x1="100.0" x2="100.0" y1="15.0" y2="10.0" /><path d="M 100.0 14.0 a86.0,86.0 0 0,1 42.46469731375804,11.215312516191453" fill="none" id="id37" stroke="none" /><text fill="#e1ed5e" style="font-size:6.75px; font-family:Arial;" text-anchor="middle"><textPath startOffset="22.20632615414155" xlink:href="#id37">January</textPath></text><path d="M 106.0581310904928 79.89281104454417 l 0.7569677161462682 -2.5124073207360684 a23.623964685085507,23.623964685085507 0 0,0 0.3883494363741404,0.1206620602696366 l -0.8001025252311268 2.499005125583911" fill="#ff1f03" stroke="none" /><line stroke="#e1ed5e" stroke-width="0.3" x1="143.23703022742887" x2="145.7803849466894" y1="26.81831364943548" y2="22.513508569990506" /><path d="M 143.74570117128098 25.957352633546492 a86.0,86.0 0 0,1 28.547481713284135,27.462654790039103" fill="none" id="id38" stroke="none" /><text fill="#e1ed5e" style="font-size:6.75px; font-family:Arial;" text-anchor="middle"><textPath startOffset="19.985693538727396" xlink:href="#id38">February</textPath></text><path d="M 116.38621287248628 86.86637796730983 l 3.5139118064944244 -2.8164158418932392 a25.50330704907939,25.50330704907939 0 0,0 0.2716052644231332,0.34491110387093515 l -3.5618711515115216 2.7555123440692655" fill="#ff3905" stroke="none" /><line stroke="#e1ed5e" stroke-width="0.3" x1="172.23445277983987" x2="176.4835382374775" y1="55.19839476539836" y2="52.563006222186495" /><path d="M 173.08426987136738 54.67131705675599 a86.0,86.0 0 0,1 12.851231095245387,41.99856678651699" fill="none" id="id39" stroke="none" /><text fill="#e1ed5e" style="font-size:6.75px; font-family:Arial;" text-anchor="middle"><textPath startOffset="22.20632615414155" xlink:href="#id39">March</textPath></text><path d="M 118.03404312379186 89.2402003453031 l 1.8412245861727565 -1.0985449868634636 a23.144040359902277,23.144040359902277 0 0,0 0.20117717435087834,0.34387700350485106 l -1.8598614349939622 1.0666885710047174" fill="#ff1802" stroke="none" /><path d="M 120.08093135843002 93.85539295169968 l 5.062738918259913 -1.5491582878094319 a26.294451506544583,26.294451506544583 0 0,0 0.12871021683595707,0.4339468658946089 l -5.088655032207572 1.461782035168293" fill="#ff4406" stroke="none" /><path d="M 120.73433829027371 96.67025291283417 l 2.903083285850439 -0.4662089032952061 a23.940279460543827,23.940279460543827 0 0,0 0.06183900334050855,0.4074417680371414 l -2.9106781826302472 0.4161680228659826" fill="#ff2303" stroke="none" /><path d="M 120.96714384426684 98.82574320788733 l 1.1036740087817825 -0.06181083655056794 a22.105403499711997,22.105403499711997 0 0,0 0.018006842496319595,0.3800959851125273 l -1.1045744595115985 0.04280374481504088" fill="#ff0901" stroke="none" /><line stroke="#e1ed5e" stroke-width="0.3" x1="184.98032266829074" x2="189.97916517819016" y1="98.17113171792111" y2="98.06355123074" /><path d="M 185.9800911702706 98.14961562048488 a86.0,86.0 0 0,1 -9.607161424134198,41.387399972396054" fill="none" id="id40" stroke="none" /><text fill="#e1ed5e" style="font-size:6.75px; font-family:Arial;" text-anchor="middle"><textPath startOffset="21.466115282336823" xlink:href="#id40">April</textPath></text><path d="M 120.89721153311464 102.0752229133903 l 1.7234778486571598 0.17115205617679266 a22.73195523069895,22.73195523069895 0 0,0 -0.0420191516398504,0.3890451581268313 l -1.7202763955162574 -0.2007935361884154" fill="#ff1202" stroke="none" /><path d="M 120.5718875245553 104.21870165774334 l 1.7031700972152528 0.3492711353765867 a22.73861401871015,22.73861401871015 0 0,0 -0.08193043275235991,0.38275170577351464 l -1.6969056257384498 -0.3785366605662704" fill="#ff1202" stroke="none" /><path d="M 118.81262510543309 109.33194174019688 l 3.9093304246287826 1.9392106928914996 a25.363874709515958,25.363874709515958 0 0,0 -0.1973808640192146,0.38945117023733183 l -3.8753708908232993 -2.0062160748315256" fill="#ff3705" stroke="none" /><line stroke="#e1ed5e" stroke-width="0.3" x1="174.80103733775053" x2="179.2010983576182" y1="140.37084112569926" y2="142.7455964860345" /><path d="M 175.68104954172406 140.8457921977663 a86.0,86.0 0 0,1 -30.038265399797805,32.042727171017184" fill="none" id="id41" stroke="none" /><text fill="#e1ed5e" style="font-size:6.75px; font-family:Arial;" text-anchor="middle"><textPath startOffset="22.206326154141568" xlink:href="#id41">May</textPath></text><path d="M 117.94076556474637 110.91462005526583 l 27.8908733097864 16.967965167777198 a53.64678630305678,53.64678630305678 0 0,0 -0.486743321852796,0.7847852172743923 l -27.59466534826564 -17.445546716416864" fill="#6eff28" stroke="none" /><path d="M 117.75023020441432 111.22182372390056 l 1.5693986894583078 0.992185185364066 a22.85672929866725,22.85672929866725 0 0,0 -0.21310649694220624,0.3307460157289264 l -1.5520873291390513 -1.0190528010144453" fill="#ff1402" stroke="none" /><path d="M 117.35343817320211 111.8261652097733 l 1.9441243467266849 1.3248980105992385 a23.352652591018334,23.352652591018334 0 0,0 -0.22923307716525282,0.33022734466732534 l -1.921030362399296 -1.3581666174535836" fill="#ff1b02" stroke="none" /><path d="M 116.93607887273984 112.41649034213515 l 3.2060689446482256 2.35049236523803 a24.975385822392596,24.975385822392596 0 0,0 -0.2571736092397872,0.3445260762872757 l -3.1651340687133462 -2.4053313210346206" fill="#ff3204" stroke="none" /><path d="M 116.71984013943494 112.70617746262583 l 21.71273787439578 16.500510670604637 a48.27104395495263,48.27104395495263 0 0,0 -0.5084393261239281,0.6572263673260669 l -21.425491731053782 -16.87181503204396" fill="#a8ff21" stroke="none" /><path d="M 115.80600337817218 113.82643327865902 l 5.32069982826193 4.654326549925323 a28.069130236161044,28.069130236161044 0 0,0 -0.3212460500156931,0.3609233426986254 l -5.239794928597899 -4.745224062364815" fill="#ff5d08" stroke="none" /><path d="M 115.07121518719521 114.62390073753431 l 7.523174008916212 7.299885813525 a31.482675233876893,31.482675233876893 0 0,0 -0.3807295487607117,0.38567702280163485 l -7.396403835099965 -7.4283033303073" fill="#ff8a0c" stroke="none" /><path d="M 114.55890576462653 115.13401014063108 l 13.035324325647125 13.550244346664961 a39.80236161042366,39.80236161042366 0 0,0 -0.49784067150844197,0.4707394285591935 l -12.800147819747874 -13.772618411970075" fill="#fff417" stroke="none" /><path d="M 114.0293411484842 115.62618273729858 l 9.054987534239672 10.085640401529298 a34.55407472143325,34.55407472143325 0 0,0 -0.44600696149912633,0.39354928718276094 l -8.880038219833956 -10.240012830484348" fill="#ffb210" stroke="none" /><path d="M 113.20401910651253 116.32954008644616 l 20.32979993599477 25.14206321017203 a53.333018849186644,53.333018849186644 0 0,0 -0.7188338750488839,0.5710851049003542 l -19.894008568228536 -25.48828222907751" fill="#71ff27" stroke="none" /><path d="M 112.92097659922987 116.55440617244103 l 10.961202819605091 14.04353627767299 a38.814849941406635,38.814849941406635 0 0,0 -0.5302316836202648,0.4065590447611246 l -10.717842407491334 -14.230134664261486" fill="#ffe815" stroke="none" /><path d="M 112.34349029814194 116.9893568818739 l 11.47456117326359 15.793378544220495 a40.5216894750432,40.5216894750432 0 0,0 -0.5678298019951759,0.4051314869072394 l -11.201004043419529 -15.988554292971955" fill="#fffd17" stroke="none" /><path d="M 111.1453310114006 117.79835938074945 l 6.9318475864569535 11.069703931640998 a34.06096688978489,34.06096688978489 0 0,0 -0.49959458440336596,0.3068917984059071 l -6.740273802121279 -11.187384196875284" fill="#ffac0f" stroke="none" /><line stroke="#e1ed5e" stroke-width="0.3" x1="143.8653032363475" x2="146.44561519142675" y1="172.8068346515853" y2="177.08958963109032" /><path d="M 144.38136562736335 173.6633856474863 a86.0,86.0 0 0,1 -40.68145358897372,12.25698825130547" fill="none" id="id42" stroke="none" /><text fill="#e1ed5e" style="font-size:6.75px; font-family:Arial;" text-anchor="middle"><textPath startOffset="21.466115282336833" xlink:href="#id42">June</textPath></text><path d="M 106.91757812671514 119.82793768551818 l 7.8685785240388855 22.553801603732058 a44.886994259836726,44.886994259836726 0 0,0 -0.7317227015530984,0.24824006859326353 l -7.47918608954856 -22.685904659223443" fill="#ceff1d" stroke="none" /><path d="M 106.57524785965236 119.94407469862006 l 3.1269783198010814 9.484766281399992 a30.98693070093551,30.98693070093551 0 0,0 -0.5080066105465867,0.16264767437700306 l -2.9632503641635544 -9.537186802436702" fill="#ff840c" stroke="none" /><path d="M 105.88484417918355 120.15858648285463 l 0.5224414945059859 1.7896280221801688 a22.86432657357936,22.86432657357936 0 0,0 -0.37875174177266063,0.10703902547384529 l -0.49155858462871943 -1.798355840992533" fill="#ff1402" stroke="none" /><path d="M 105.53697534728816 120.25689768951611 l 2.1261201988314666 7.778362127697817 a29.063702901861085,29.063702901861085 0 0,0 -0.48371628245179354,0.1277538666243956 l -1.9919134735681756 -7.813807343625797" fill="#ff6a09" stroke="none" /><path d="M 104.48393922423573 120.51570834832081 l 1.0792630473470355 4.938034349532411 a26.054601068584027,26.054601068584027 0 0,0 -0.43896858700553715,0.09199013541863689 l -0.9941029989121203 -4.955880465677589" fill="#ff4106" stroke="none" /><path d="M 104.13013068566511 120.58985236759428 l 4.939559141874857 24.62507877661156 a46.11560768268219,46.11560768268219 0 0,0 -0.7796444857646712,0.14942072126631445 l -4.514947041538481 -24.706456696226343" fill="#c0ff1e" stroke="none" /><path d="M 103.06178313531738 120.77559828337769 l 1.4060520731541875 9.54070610044489 a30.64375732417026,30.64375732417026 0 0,0 -0.5225073026854536,0.07241475105481864 l -1.2416161792819034 -9.56349541699231" fill="#ff7f0b" stroke="none" /><line stroke="#e1ed5e" stroke-width="0.3" x1="102.19456741930631" x2="102.32365962044197" y1="184.97166512339345" y2="189.96999836594603" /><path d="M 102.22038585953345 185.97133177190398 a86.0,86.0 0 0,1 -42.740103519485714,-10.115201625700543" fill="none" id="id43" stroke="none" /><text fill="#e1ed5e" style="font-size:6.75px; font-family:Arial;" text-anchor="middle"><textPath startOffset="22.20632615414155" xlink:href="#id43">July</textPath></text><path d="M 100.54218724476979 120.99299961872073 l 0.40306358449826984 15.606257353555106 a36.611461457485056,36.611461457485056 0 0,0 -0.6301360944131444,0.010848364322017674 l -0.1343678001924574 -15.610883195156285" fill="#ffcd13" stroke="none" /><path d="M 99.09653310690486 120.98055641714683 l -1.1530175491854113 26.775690316410444 a47.80050449877848,47.80050449877848 0 0,0 -0.8217405933292253,-0.042474602419592576 l 1.6137462109281258 -26.751875907228648" fill="#adff20" stroke="none" /><path d="M 97.65516085044442 120.86867818915974 l -2.5114843460891585 22.351792704237493 a43.492447414940315,43.492447414940315 0 0,0 -0.7432498419810272,-0.08999720508841956 l 2.8958616111215747 -22.305249970423723" fill="#deff1b" stroke="none" /><path d="M 96.58105272829116 120.7198165907248 l -1.6182227093571384 9.806901094460926 a30.939514767513455,30.939514767513455 0 0,0 -0.5247209526955056,-0.09122946353689305 l 1.786792633524694 -9.777593052403025" fill="#ff830c" stroke="none" /><path d="M 96.22490169976321 120.6578951692458 l -3.9418118401847297 21.570176269667023 a42.92738892088903,42.92738892088903 0 0,0 -0.7257434899424677,-0.13909046713153422 l 4.312522944698892 -21.49912860418702" fill="#e5ff1a" stroke="none" /><path d="M 95.16358092515715 120.4354850818985 l -5.158606630164324 21.796835055599704 a43.398956243668934,43.398956243668934 0 0,0 -0.7254790969006244,-0.17830511119943948 l 5.533039011808159 -21.704808686086235" fill="#dfff1b" stroke="none" /><path d="M 94.11515582081647 120.15858648285463 l -0.6011013939952122 2.0590782129252783 a23.14502353665561,23.14502353665561 0 0,0 -0.3814796125336207,-0.11493667793140117 l 0.6364559809690787 -2.0484261658881513" fill="#ff1802" stroke="none" /><path d="M 93.76903079525671 120.05430185196036 l -5.285337428860494 17.010796989197964 a38.81297296760482,38.81297296760482 0 0,0 -0.6363084822051752,-0.2037258820425162 l 5.577367256156609 -16.91729826049574" fill="#ffe815" stroke="none" /><path d="M 93.08242187328487 119.8279376855182 l -8.346915010404967 23.924863248521962 a46.33910163465549,46.33910163465549 0 0,0 -0.7508709459173487,-0.2692356064973156 l 8.757505516952042 -23.77764010098469" fill="#bdff1f" stroke="none" /><path d="M 92.7421414339146 119.70592522655815 l -4.572352664123536 12.414466180107729 a34.22971577253858,34.22971577253858 0 0,0 -0.5511469636955586,-0.2083966218986493 l 4.785369848579378 -12.333921308102445" fill="#ffae10" stroke="none" /><path d="M 92.40401165467489 119.57807347666478 l -0.376562119968168 0.9705597899979279 a22.041050112221185,22.041050112221185 0 0,0 -0.35252972355239687,-0.1402788523858277 l 0.39321291956242305 -0.9639340932060336" fill="#ff0801" stroke="none" /><path d="M 92.06813273071674 119.44442032107085 l -0.33756050506157187 0.827506074090329 a21.893707668778674,21.893707668778674 0 0,0 -0.34772268404556994,-0.14534811013219343 l 0.3517546486046041 -0.8215729209381624" fill="#ff0600" stroke="none" /><path d="M 91.7346041902142 119.30500536409082 l -0.8823944245373837 2.0609574533345296 a23.241911136711224,23.241911136711224 0 0,0 -0.3664245837527159,-0.16062976929129663 l 0.9177396829478429 -2.045463130748781" fill="#ff1902" stroke="none" /><path d="M 91.40352486487194 119.15986991738527 l -7.11492479950714 15.85778257805717 a38.380777404810615,38.380777404810615 0 0,0 -0.6004435107050939,-0.27563416587025 l 7.386836305979653 -15.732961341852846" fill="#ffe315" stroke="none" /><path d="M 91.07499286063937 119.00905698771935 l -5.839612046086321 12.437583123118873 a34.74025264663237,34.74025264663237 0 0,0 -0.5391146784765978,-0.25880780761382827 l 6.05283939256316 -12.335221039005482" fill="#ffb510" stroke="none" /><path d="M 90.10565033884886 118.52300852407294 l -0.33281190837903885 0.6230503294241474 a21.70636780741653,21.70636780741653 0 0,0 -0.3280526656791867,-0.1788804697816336 l 0.3434873859268661 -0.6172292078827479" fill="#ff0300" stroke="none" /><line stroke="#e1ed5e" stroke-width="0.3" x1="58.666819895761336" x2="56.23545636021788" y1="174.27360380694188" y2="178.64263932499728" /><path d="M 58.180547188652646 175.14741091055294 a86.0,86.0 0 0,1 -31.652253787137756,-30.449443065178592" fill="none" id="id44" stroke="none" /><text fill="#e1ed5e" style="font-size:6.75px; font-family:Arial;" text-anchor="middle"><textPath startOffset="22.20632615414155" xlink:href="#id44">August</textPath></text><path d="M 89.7882731507175 118.34994917583269 l -0.5791650210259965 1.04072982533741 a22.19102925695672,22.19102925695672 0 0,0 -0.3321798766767577,-0.18862040333930713 l 0.5969936646239615 -1.03060625620347" fill="#ff0a01" stroke="none" /><path d="M 89.4739219176387 118.17145234162733 l -6.715467513599735 11.593092595390432 a34.397660237948635,34.397660237948635 0 0,0 -0.5097931917856725,-0.3011948035385009 l 6.91402857641379 -11.475779219558182" fill="#ffb010" stroke="none" /><path d="M 89.1626897886671 117.98757091392108 l -3.2084900716186113 5.325393622995059 a27.217252269251397,27.217252269251397 0 0,0 -0.399213324743762,-0.24522943002780292 l 3.299682596294682 -5.269375726138878" fill="#ff5107" stroke="none" /><path d="M 88.8546689885994 117.79835938074946 l -9.845254803487286 15.722223324571864 a39.55040022245615,39.55040022245615 0 0,0 -0.5738917468623712,-0.36628486559578693 l 10.114428352396581 -15.550424030152273" fill="#fff116" stroke="none" /><path d="M 88.54995079064634 117.60387380957326 l -7.130309899058646 10.9624922470761 a34.07736806562457,34.07736806562457 0 0,0 -0.4889701523106442,-0.3240627542240351 l 7.3179547501092514 -10.838131471760745" fill="#ffac10" stroke="none" /><path d="M 87.95078237400918 117.19931262002967 l -0.5783763951856595 0.8255869170614285 a22.00802431127972,22.00802431127972 0 0,0 -0.3083981010879497,-0.22003385664881434 l 0.5925018241224961 -0.815508798568395" fill="#ff0701" stroke="none" /><path d="M 87.36589467227662 116.77436683061367 l -10.024332268945775 13.30935767507605 a37.66211988797744,37.66211988797744 0 0,0 -0.5144847723759443,-0.3944849847017208 l 10.251945769815206 -13.134833348546962" fill="#ffda14" stroke="none" /><path d="M 87.07902340077011 116.55440617244103 l -8.601742133849843 11.020585942616526 a34.980103084592926,34.980103084592926 0 0,0 -0.47146933724135515,-0.37456375563473654 l 8.790168963808556 -10.870888272976659" fill="#ffb811" stroke="none" /><path d="M 86.51685102203217 116.09983520530335 l -11.167358104990255 13.33461682154089 a38.39315649393211,38.39315649393211 0 0,0 -0.5030134673647856,-0.42867898953239914 l 11.395237048932097 -13.140413441785538" fill="#ffe315" stroke="none" /><path d="M 85.97065885151581 115.62618273729859 l -0.5763936712344229 0.6419997019107803 a21.862782290901144,21.862782290901144 0 0,0 -0.27786602111188513,-0.25382402214593375 l 0.5873592418131626 -0.6319829131782705" fill="#ff0500" stroke="none" /><path d="M 85.70375840098266 115.38237550388516 l -1.0962558562236464 1.179542127346558 a22.61030945240034,22.61030945240034 0 0,0 -0.28280562221334093,-0.26741036763963455 l 1.1163973128278042 -1.1604971229609928" fill="#ff1001" stroke="none" /><path d="M 85.44109423537348 115.13401014063109 l -13.397914111455231 13.927157116348665 a40.325366953343796,40.325366953343796 0 0,0 -0.4960981177552354,-0.4855364230363138 l 13.635662181586259 -13.694470590389782" fill="#fffa17" stroke="none" /><path d="M 85.18274418774928 114.88116024355367 l -14.181173175755166 14.242334285375465 a41.098501400282046,41.098501400282046 0 0,0 -0.49701665365571046,-0.5034752461129296 l 14.42423045446641 -13.99611854528187" fill="#faff18" stroke="none" /><path d="M 84.43433777217949 114.09645910891817 l -8.542665751672374 7.736345340603388 a32.52511073152323,32.52511073152323 0 0,0 -0.37224392992997474,-0.41822000140713755 l 8.674568531250687 -7.5881511694553865" fill="#ff980e" stroke="none" /><path d="M 84.19399662182784 113.82643327865904 l -1.1877409037422506 1.0389862614229999 a22.578043378950085,22.578043378950085 0 0,0 -0.25336595435645104,-0.29472184506164767 l 1.2054493676694804 -1.018387317199822" fill="#ff1001" stroke="none" /><path d="M 83.72743513129214 113.27417163493432 l -10.762660986404477 8.77952617395152 a34.88938268417185,34.88938268417185 0 0,0 -0.37561259449307394,-0.46863446470673853 l 10.912191492952411 -8.592963875666523" fill="#ffb711" stroke="none" /><path d="M 83.50135304334701 112.99209946851258 l -1.2040820961061476 0.94817195628021 a22.5325937990347,22.5325937990347 0 0,0 -0.23733600660670953,-0.3067887817548231 l 1.2202249199309256 -0.9273051804121342" fill="#ff0f01" stroke="none" /><path d="M 82.6465618267979 111.8261652097733 l -33.46324585748012 22.804810782507804 a61.49503942638091,61.49503942638091 0 0,0 -0.588586283683203,-0.8798566336707199 l 33.85083524657405 -22.225417234631266" fill="#31ff42" stroke="none" /><path d="M 82.44556493220864 111.52570212397912 l -1.373705809495296 0.9019329818976867 a22.643335253341807,22.643335253341807 0 0,0 -0.211116900929877,-0.327658118534656 l 1.3890275738022189 -0.8781532634415824" fill="#ff1101" stroke="none" /><path d="M 82.24976979558568 111.22182372390057 l -3.3708811767367153 2.131095423773523 a24.988033050628637,24.988033050628637 0 0,0 -0.22671923244240735,-0.3655435916723403 l 3.407065048847078 -2.0727555007359184" fill="#ff3204" stroke="none" /><path d="M 82.05923443525364 110.91462005526583 l -12.771282427101017 7.76966260482271 a35.949023775001486,35.949023775001486 0 0,0 -0.3170688906242485,-0.5314256984547557 l 12.903132193423497 -7.548674812481843" fill="#ffc412" stroke="none" /><line stroke="#e1ed5e" stroke-width="0.3" x1="26.63291911575756" x2="22.317208475507996" y1="142.92168965132927" y2="145.44649492493687" /><path d="M 25.769776987707644 143.4266507060508 a86.0,86.0 0 0,1 -11.730757126820373,-40.83630448921669" fill="none" id="id45" stroke="none" /><text fill="#e1ed5e" style="font-size:6.75px; font-family:Arial;" text-anchor="middle"><textPath startOffset="21.46611528233685" xlink:href="#id45">September</textPath></text><path d="M 81.51974371655577 109.97397251340807 l -1.9733810919163834 1.0650528037798899 a23.242447414940315,23.242447414940315 0 0,0 -0.1869882473080546,-0.3537112955459622 l 1.9914218474493242 -1.0309264931478015" fill="#ff1902" stroke="none" /><path d="M 81.35079622478065 109.6543875284942 l -0.7199249135623311 0.3726933434114766 a21.810673922974555,21.810673922974555 0 0,0 -0.16972996882621363,-0.33489333078043915 l 0.7262335521748114 -0.36024580092835246" fill="#ff0500" stroke="none" /><path d="M 81.02952815118164 109.00673069616217 l -11.054625318035095 5.248474259364293 a33.2372882197549,33.2372882197549 0 0,0 -0.24093137783130023,-0.5189447535870223 l 11.143331312706222 -5.057409438498443" fill="#ffa10e" stroke="none" /><path d="M 80.87730276802145 108.67885076344099 l -17.7066678747541 8.036184756709963 a40.44495699843089,40.44495699843089 0 0,0 -0.2822651917038124,-0.6364334914577557 l 17.842374151189194 -7.73020292875951" fill="#fffc17" stroke="none" /><path d="M 80.58989483394504 108.01547362559985 l -11.396729311543728 4.706320879421908 a33.33024311279719,33.33024311279719 0 0,0 -0.21442041479545743,-0.5321738850320896 l 11.476052340596572 -4.509447626547012" fill="#ffa30f" stroke="none" /><path d="M 80.20201598880116 107.00284435728193 l -4.591445443420717 1.6240632277023246 a25.870210737481877,25.870210737481877 0 0,0 -0.1448844756266101,-0.4211021050906513 l 4.6187207499905565 -1.5447884195223764" fill="#ff3e05" stroke="none" /><path d="M 80.0844068197444 106.66101706037122 l -15.560051386420035 5.204252105729474 a37.407298349454784,37.407298349454784 0 0,0 -0.19898500448481746,-0.6124128724476693 l 15.647328641921101 -4.9356403333040015" fill="#ffd714" stroke="none" /><path d="M 79.97269907076064 106.31721596034903 l -21.35459711600107 6.735885290017905 a43.39176117742865,43.39176117742865 0 0,0 -0.2185565060180867,-0.7142553072619181 l 21.46738039452529 -6.36730301020394" fill="#dfff1b" stroke="none" /><path d="M 79.86692584326677 105.97154293290107 l -16.482712319091668 4.888832351079169 a38.19245436669513,38.19245436669513 0 0,0 -0.18151848386607816,-0.6318896553257178 l 16.56442343984385 -4.604385220248855" fill="#ffe015" stroke="none" /><path d="M 79.76711848015287 105.62410040840567 l -14.412115353961452 4.006111723072884 a35.95854271356784,35.95854271356784 0 0,0 -0.16063524113839298,-0.5977834900524377 l 14.47893867144162 -3.7574372998449075" fill="#ffc412" stroke="none" /><path d="M 79.58551787078972 104.9243191809786 l -1.2382357219044517 0.2986834482184757 a22.27375017379387,22.27375017379387 0 0,0 -0.08669732065762427,-0.37348978831335544 l 1.2431936084926312 -0.2773250025565461" fill="#ff0b01" stroke="none" /><path d="M 79.4281124754447 104.21870165774334 l -19.143239634729284 3.925727120820249 a40.54162114922438,40.54162114922438 0 0,0 -0.1343087286012704,-0.684837313576135 l 19.20797829630622 -3.5956260801761593" fill="#fffd17" stroke="none" /><path d="M 79.35854240842038 103.8639653848113 l -45.83063190798433 8.579237898815824 a67.62671062824,67.62671062824 0 0,0 -0.2043407324885727,-1.1460513458181671 l 45.971519082812094 -7.789067802264444" fill="#39ff88" stroke="none" /><path d="M 79.23777060512086 103.15116336523772 l -14.706110314904942 2.232002892757885 a35.874525791010385,35.874525791010385 0 0,0 -0.08740734078221621,-0.6113267378509032 l 14.742351706703756 -1.9785306829265814" fill="#ffc312" stroke="none" /><path d="M 79.1416061653843 102.43462659150553 l -1.2138923645512336 0.14168754571396325 a22.222133394243947,22.222133394243947 0 0,0 -0.04107676543338896,-0.3803198322599184 l 1.2161514314856743 -0.12077139156926275" fill="#ff0b01" stroke="none" /><path d="M 79.07016306316243 101.71520430193888 l -9.822836901629863 0.8049834387990806 a30.85576598407055,30.85576598407055 0 0,0 -0.03882454868319453,-0.5297301205346142 l 9.835238008977392 -0.6357801817677058" fill="#ff820c" stroke="none" /><path d="M 79.0095281055655 100.63252640178507 l -19.834989088002636 0.5977071092244992 a40.84399269072636,40.84399269072636 0 0,0 -0.015127714992499205,-0.7029254724867641 l 19.842338865680144 -0.2561918209476063" fill="#fdff18" stroke="none" /><line stroke="#e1ed5e" stroke-width="0.3" x1="15.007084014347285" x2="10.007500721073583" y1="101.09737516637583" y2="101.16192664675087" /><path d="M 14.007167355692545 101.11028546245083 a86.0,86.0 0 0,1 10.666146001902534,-42.60595125391555" fill="none" id="id46" stroke="none" /><text fill="#e1ed5e" style="font-size:6.75px; font-family:Arial;" text-anchor="middle"><textPath startOffset="22.20632615414155" xlink:href="#id46">October</textPath></text><path d="M 79.00175016825051 100.2711162175752 l -1.5717451770401791 0.02029338686821882 a22.57187617931555,22.57187617931555 0 0,0 -0.0016721489977696937,-0.3885485379991813 l 1.5718616233274518 0.006764629334637884" fill="#ff1001" stroke="none" /><path d="M 79.01574976396665 99.18683210126434 l -0.4917109105996438 -0.01905445862779082 a21.492079965042603,21.492079965042603 0 0,0 0.017507235226618574,-0.36955006528319195 l 0.49131006713952635 0.027515630533991853" fill="#ff0000" stroke="none" /><path d="M 79.05617556472873 98.46500227214037 l -5.3735297862610825 -0.3938323699183543 a26.387942677815957,26.387942677815957 0 0,0 0.03710083945257327,-0.45272421430171417 l 5.365954462989012 0.4862705014278469" fill="#ff4506" stroke="none" /><path d="M 79.08570108090925 98.10471618934814 l -8.0348895867633 -0.7281332361692046 a29.06781436828411,29.06781436828411 0 0,0 0.04944694663669147,-0.497924004629197 l 8.02116551444438 0.8663327715028318" fill="#ff6a09" stroke="none" /><path d="M 79.12142395522702 97.74499172005258 l -28.574221934776656 -3.0861830288521124 a49.74040161280712,49.74040161280712 0 0,0 0.0992667939548792,-0.8504572693959305 l 28.516864787818186 3.5775840365729046" fill="#98ff23" stroke="none" /><path d="M 79.26566170972629 96.67025291283419 l -4.72780789489789 -0.7592431620593549 a25.78838361769321,25.78838361769321 0 0,0 0.07415773719404141,-0.43768316274805436 l 4.7140382961836265 0.8405121131232374" fill="#ff3d05" stroke="none" /><path d="M 79.32604984820605 96.31383870115002 l -53.92416859210914 -9.614668792245606 a75.77460921206824,75.77460921206824 0 0,0 0.2400044417978024,-1.2821133249883019 l 53.75067842640148 10.54146019469648" fill="#43ffde" stroke="none" /><path d="M 79.62865764111835 94.90015583598534 l -1.2914564824498356 -0.32330843442082613 a22.33131070371621,22.33131070371621 0 0,0 0.09656023457339523,-0.3720859732099628 l 1.2856999160061329 0.34549083317965273" fill="#ff0c01" stroke="none" /><path d="M 79.81627453868168 94.20196356495316 l -25.794199113846016 -7.409717624308387 a47.83737362702843,47.83737362702843 0 0,0 0.2341619003105941,-0.7894775197311511 l 25.662831316423716 7.852624530786078" fill="#acff20" stroke="none" /><path d="M 80.14247586403 93.16781622104843 l -2.754328619667192 -0.9476548631309536 a23.912795201302956,23.912795201302956 0 0,0 0.13726732336871625,-0.38807320777992343 l 2.7376082154886663 0.9949256973374881" fill="#ff2303" stroke="none" /><path d="M 80.2630227832202 92.82701384747504 l -11.416025348202977 -4.148912512799372 a33.146567819333825,33.146567819333825 0 0,0 0.19950352758492418,-0.534570267014103 l 11.342917232116424 4.344805916842816" fill="#ffa00e" stroke="none" /><path d="M 80.38941819471856 92.48833698450439 l -1.098705953229538 -0.4208497716042513 a22.176549744771286,22.176549744771286 0 0,0 0.13961347226801432,-0.35530105855270966 l 1.0912989310798327 0.43969983505272436" fill="#ff0a01" stroke="none" /><path d="M 80.65960295795068 91.81776055985345 l -56.18035524551095 -23.76792562488961 a82.00120166047628,82.00120166047628 0 0,0 0.5611587848892493,-1.2952318445574647 l 55.76290575077902 24.731456614033675" fill="#4be4ff" stroke="none" /><path d="M 80.803312248108 91.48605970444005 l -8.49461154095505 -3.767452824591456 a30.29258446382108,30.29258446382108 0 0,0 0.2155067586708019,-0.4748405762277388 l 8.428502465320896 3.9131154096612657" fill="#ff7b0b" stroke="none" /><path d="M 81.26839172434947 90.50648371742162 l -12.292842157541056 -6.2302337025425025 a34.78150138041988,34.78150138041988 0 0,0 0.2752551157121075,-0.5317052716121228 l 12.183777608668835 6.440911696414961" fill="#ffb510" stroke="none" /><line stroke="#e1ed5e" stroke-width="0.3" x1="26.266209847984243" x2="21.928928074336255" y1="57.711370442889674" y2="55.22380399835377" /><path d="M 25.398753493254645 57.213857153982495 a86.0,86.0 0 0,1 29.58750427330803,-30.492523968695096" fill="none" id="id47" stroke="none" /><text fill="#e1ed5e" style="font-size:6.75px; font-family:Arial;" text-anchor="middle"><textPath startOffset="21.46611528233685" xlink:href="#id47">November</textPath></text><path d="M 81.78341655067845 89.55222093294921 l -31.669048769226258 -18.163187719860584 a57.50794486265319,57.50794486265319 0 0,0 0.4998818559891103,-0.8544601309697636 l 31.351707238766824 18.70562726318424" fill="#47ff2c" stroke="none" /><path d="M 82.34701348167596 88.62581576622439 l -17.66570924708829 -11.382381750992913 a42.01513496335432,42.01513496335432 0 0,0 0.3969497210771705,-0.6045816583555249 l 17.4671628906532 11.684781473326105" fill="#efff19" stroke="none" /><path d="M 83.17141714833178 87.43820079747576 l -1.1267036305816203 -0.8410348567596901 a22.405987447117006,22.405987447117006 0 0,0 0.23336802560576606,-0.30708496660470885 l 1.1120596647517453 0.8603045992454256" fill="#ff0d01" stroke="none" /><path d="M 83.39014120810768 87.1503855733568 l -47.51189288951611 -36.75585156739909 a81.0697310663992,81.0697310663992 0 0,0 0.8633768828735409,-1.0964009639542036 l 46.8721619260486 37.56824492530634" fill="#49edff" stroke="none" /><path d="M 83.84228863543731 86.58626213691792 l -1.057958758923495 -0.878291556394286 a22.375017379387053,22.375017379387053 0 0,0 0.2485644798881971,-0.29422194291479653 l 1.0426836655481737 0.8963724489381986" fill="#ff0d01" stroke="none" /><path d="M 84.80347519578584 85.50635884689758 l -41.411757916219344 -39.49634317646015 a78.22669672473037,78.22669672473037 0 0,0 0.9377359570510885,-0.9664193330589015 l 40.72575769546514 40.20332670506918" fill="#46fff6" stroke="none" /><path d="M 86.65592168130627 83.78471172551755 l -24.31641728034421 -29.548516322106405 a59.26751842215028,59.26751842215028 0 0,0 0.7933284763801097,-0.6414831222685883 l 23.8041854053996 29.962705541639128" fill="#36ff2f" stroke="none" /><path d="M 88.70189139769569 82.29822771554957 l -28.553667820349446 -44.7376232105413 a74.07322184042744,74.07322184042744 0 0,0 1.0806960235232903,-0.6767317507870436 l 27.779352644453915 45.22249930265128" fill="#41ffcd" stroke="none" /><line stroke="#e1ed5e" stroke-width="0.3" x1="56.762969772571076" x2="54.21961505331055" y1="26.818313649435495" y2="22.513508569990535" /><path d="M 56.25429882871897 25.957352633546506 a86.0,86.0 0 0,1 42.265352541879196,-11.944610805530505" fill="none" id="id48" stroke="none" /><text fill="#e1ed5e" style="font-size:6.75px; font-family:Arial;" text-anchor="middle"><textPath startOffset="22.20632615414155" xlink:href="#id48">December</textPath></text><path d="M 91.23893434514133 80.91482961587045 l -17.028734225904092 -37.09552090243759 a61.81734264206407,61.81734264206407 0 0,0 0.9708792853437668,-0.43560523488186303 l 16.38767282209355 37.383146467835985" fill="#32ff46" stroke="none" /><path d="M 93.25333710446033 80.11325718540243 l -0.6593822588533181 -1.94362243991671 a23.052426162432717,23.052426162432717 0 0,0 0.37687113764531655,-0.12424848876736955 l 0.6258282989655923 1.9546846529433133" fill="#ff1602" stroke="none" /><path d="M 93.59665428221793 80.00007090966166 l -19.21003715334623 -59.99978727101503 a84.0,84.0 0 0,0 1.380858509157085,-0.42903946046989905 l 18.17439327147842 60.321566866367455" fill="#4dd2ff" stroke="none" /><path d="M 93.94186890950719 79.89281104454417 l -9.228959677666218 -30.631300863121794 a52.99140961725624,52.99140961725624 0 0,0 0.8756446435149088,-0.2556246831991329 l 8.700324816427887 30.785623875239626" fill="#75ff27" stroke="none" /><path d="M 94.28887869178378 79.79150937346287 l -11.671751410494819 -41.299854484779885 a63.917452877033384,63.917452877033384 0 0,0 1.0613405111268948,-0.2901044540610606 l 10.959113010144202 41.49464547966724" fill="#34ff5e" stroke="none" /><path d="M 96.04723909329186 79.375362276772 l -2.973579743412136 -15.515485605244816 a36.79786283194629,36.79786283194629 0 0,0 0.6231190264774573,-0.11387101921217452 l 2.7060655958317854 15.564372105807726" fill="#ffcf13" stroke="none" /><path d="M 98.19473922651362 79.07773832637324 l -1.7152779267494724 -19.87939590419467 a40.95325937990347,40.95325937990347 0 0,0 0.7028550694336296,-0.05455508065146195 l 1.3728326679535086 19.905976247034594" fill="#fcff18" stroke="none" /></svg>