<?xml version="1.0" encoding="utf-8" ?>
<svg baseProfile="full" height="200mm" version="1.1" viewBox="0,0,200,200" width="200mm" xmlns="http://www.w3.org/2000/svg" xmlns:ev="http://www.w3.org/2001/xml-events" xmlns:xlink="http://www.w3.org/1999/xlink"><defs /><rect fill="#1a1a1a" height="200" width="200" x="0" y="0" /><rect fill="#1a1a1a" height="200" width="180" x="10" y="0" /><text alignment-baseline="middle" fill="#e1ed5e" style="dominant-baseline: central; font-size:9.0px; font-family:Arial;" text-anchor="middle" x="100.0" y="100.0">2025</text><line stroke="#e1ed5e" stroke-width="0.3" x1="100.0" x2="100.0" y1="15.0" y2="10.0" /><path d="M 100.0 14.0 a86.0,86.0 0 0,1 42.46469731375804,11.215312516191453" fill="none" id="id37" stroke="none" /><text fill="#e1ed5e" style="font-size:6.75px; font-family:Arial;" text-anchor="middle"><textPath startOffset="22.20632615414155" xlink:href="#id37">January</textPath></text><path d="M 106.0581310904928 79.89281104454417 l 1.0227821236939558 -3.3946563905905696 a24.545387888895277,24.545387888895277 0 0,0 0.4034965205588492,0.12536833305805337 l -1.0810640169635233 3.3765479226499955" fill="#ff2904" stroke="none" /><line stroke="#e1ed5e" stroke-width="0.3" x1="143.23703022742887" x2="145.7803849466894" y1="26.81831364943548" y2="22.513508569990506" /><path d="M 143.74570117128098 25.957352633546492 a86.0,86.0 0 0,1 28.547481713284135,27.462654790039103" fill="none" id="id38" stroke="none" /><text fill="#e1ed5e" style="font-size:6.75px; font-family:Arial;" text-anchor="middle"><textPath startOffset="19.985693538727396" xlink:href="#id38">February</textPath></text><path d="M 116.38621287248628 86.86637796730983 l 4.747846048463678 -3.8054195899422716 a27.08467421933406,27.08467421933406 0 0,0 0.28844651750456785,0.3662977850283298 l -4.81264664656221 3.723129410960903" fill="#ff4d07" stroke="none" /><line stroke="#e1ed5e" stroke-width="0.3" x1="172.23445277983987" x2="176.4835382374775" y1="55.19839476539836" y2="52.563006222186495" /><path d="M 173.08426987136738 54.67131705675599 a86.0,86.0 0 0,1 12.851231095245387,41.99856678651699" fill="none" id="id39" stroke="none" /><text fill="#e1ed5e" style="font-size:6.75px; font-family:Arial;" text-anchor="middle"><textPath startOffset="22.20632615414155" xlink:href="#id39">March</textPath></text><path d="M 118.03404312379186 89.2402003453031 l 2.487783233386159 -1.4843065967960736 a23.896934843866813,23.896934843866813 0 0,0 0.20772163169337268,0.35506360252019037 l -2.512964539549859 1.441263581921988" fill="#ff2003" stroke="none" /><path d="M 120.08093135843002 93.85539295169968 l 6.840554427984826 -2.0931558503053274 a28.153634481568808,28.153634481568808 0 0,0 0.13781083807513858,0.46462963655196876 l -6.875571163171667 1.9750968270068288" fill="#ff5c08" stroke="none" /><path d="M 120.73433829027371 96.67025291283417 l 3.92252090152389 -0.6299213586344858 a24.972778768186785,24.972778768186785 0 0,0 0.06450600345801491,0.4250139665612439 l -3.932782798421205 0.5623082796811598" fill="#ff2f04" stroke="none" /><path d="M 120.96714384426684 98.82574320788733 l 1.4912367099543964 -0.08351613592761753 a22.49357352349186,22.49357352349186 0 0,0 0.018323041948642996,0.38677045579485086 l -1.4924533601365357 0.057834573509766896" fill="#ff0c01" stroke="none" /><line stroke="#e1ed5e" stroke-width="0.3" x1="184.98032266829074" x2="189.97916517819016" y1="98.17113171792111" y2="98.06355123074" /><path d="M 185.9800911702706 98.14961562048488 a86.0,86.0 0 0,1 -9.607161424134198,41.387399972396054" fill="none" id="id40" stroke="none" /><text fill="#e1ed5e" style="font-size:6.75px; font-family:Arial;" text-anchor="middle"><textPath startOffset="21.466115282336823" xlink:href="#id40">April</textPath></text><path d="M 120.89721153311464 102.0752229133903 l 2.3286889210588826 0.2312532750832166 a23.3401431939732,23.3401431939732 0 0,0 -0.04314336387742512,0.3994539672214105 l -2.3243632556804057 -0.27130356418941853" fill="#ff1802" stroke="none" /><path d="M 120.5718875245553 104.21870165774334 l 2.301249963354128 0.47192009112900873 a23.349140261084592,23.349140261084592 0 0,0 -0.08413024489584636,0.3930284957527117 l -2.2927856797338384 -0.5114624062978895" fill="#ff1802" stroke="none" /><path d="M 118.81262510543309 109.33194174019688 l 5.282118627567226 2.6201778338223725 a26.896279257001552,26.896279257001552 0 0,0 -0.20930598733234157,0.41298056987087317 l -5.236233970448616 -2.71071261539594" fill="#ff4a06" stroke="none" /><line stroke="#e1ed5e" stroke-width="0.3" x1="174.80103733775053" x2="179.2010983576182" y1="140.37084112569926" y2="142.7455964860345" /><path d="M 175.68104954172406 140.8457921977663 a86.0,86.0 0 0,1 -30.038265399797805,32.042727171017184" fill="none" id="id41" stroke="none" /><text fill="#e1ed5e" style="font-size:6.75px; font-family:Arial;" text-anchor="middle"><textPath startOffset="22.206326154141568" xlink:href="#id41">May</textPath></text><path d="M 117.94076556474637 110.91462005526583 l 37.68494484902222 22.926382564128858 a65.11092932313531,65.11092932313531 0 0,0 -0.5907587800065423,0.9524912550611216 l -37.28472142934772 -23.571670150555253" fill="#36ff6b" stroke="none" /><path d="M 117.75023020441432 111.22182372390056 l 2.1205038078751004 1.3405978211998861 a23.5087325320605,23.5087325320605 0 0,0 -0.21918549990224603,0.3401807633198588 l -2.097113444595804 -1.3769001844411979" fill="#ff1b02" stroke="none" /><path d="M 117.35343817320211 111.8261652097733 l 2.6268169509173944 1.7901450379645327 a24.178802691356605,24.178802691356605 0 0,0 -0.2373426882239024,0.34190984424068344 l -2.595613355531356 -1.8350961443922358" fill="#ff2403" stroke="none" /><path d="M 116.93607887273984 112.41649034213515 l 4.331902053380221 3.1758838874709063 a26.371369831502676,26.371369831502676 0 0,0 -0.27154817180378105,0.3637831518991872 l -4.276592614881348 -3.2499799188794087" fill="#ff4306" stroke="none" /><path d="M 116.71984013943494 112.70617746262583 l 29.337314763491975 22.29477821278019 a57.847458163206625,57.847458163206625 0 0,0 -0.6093077803316335,0.7876124415939874 l -28.949200165942273 -22.79646864848743" fill="#44ff2d" stroke="none" /><path d="M 115.80600337817218 113.82643327865902 l 7.189100081563146 6.288725254140093 a30.551503824256713,30.551503824256713 0 0,0 -0.3496563606711929,0.39284262789571484 l -7.079784871243615 -6.411542051776674" fill="#ff7c0b" stroke="none" /><path d="M 115.07121518719521 114.62390073753431 l 10.164988183289557 9.863290805968534 a35.16373857036057,35.16373857036057 0 0,0 -0.4252457651447298,0.43077171497161953 l -9.993701793089292 -10.036803014920817" fill="#ffb911" stroke="none" /><path d="M 114.55890576462653 115.13401014063108 l 17.61276790600759 18.30850562559007 a46.40493990453735,46.40493990453735 0 0,0 -0.5804245152461913,0.5488276074368621 l -17.295007556370592 -18.60896786977285" fill="#beff1f" stroke="none" /><path d="M 114.0293411484842 115.62618273729858 l 12.234708538748837 13.627282232332966 a39.31368106274081,39.31368106274081 0 0,0 -0.5074416136879698,0.4477582248548863 l -11.99832457215428 -13.835863598960142" fill="#ffed16" stroke="none" /><path d="M 113.20401910651253 116.32954008644616 l 27.468748678830302 33.970871221644785 a64.68698027488642,64.68698027488642 0 0,0 -0.8718650040736717,0.6926622890114918 l -26.879926182039277 -34.4386674246614" fill="#35ff67" stroke="none" /><path d="M 112.92097659922987 116.55440617244103 l 14.810304401290486 18.97502040295212 a45.07065673701766,45.07065673701766 0 0,0 -0.6156893621800732,0.47208434857842946 l -14.48148631061692 -19.227144093357918" fill="#cdff1d" stroke="none" /><path d="M 112.34349029814194 116.9893568818739 l 15.50393206330482 21.339331788146087 a47.376864684570705,47.376864684570705 0 0,0 -0.6638912651843063,0.47366879030264675 l -15.134313470271628 -21.603044840292952" fill="#b3ff20" stroke="none" /><path d="M 111.1453310114006 117.79835938074945 l 9.366013430128003 14.956906423310928 a38.64741503249181,38.64741503249181 0 0,0 -0.5668670332788688,0.3482160310198934 l -9.107167196916826 -15.115910921159198" fill="#ffe415" stroke="none" /><line stroke="#e1ed5e" stroke-width="0.3" x1="143.8653032363475" x2="146.44561519142675" y1="172.8068346515853" y2="177.08958963109032" /><path d="M 144.38136562736335 173.6633856474863 a86.0,86.0 0 0,1 -40.68145358897372,12.25698825130547" fill="none" id="id42" stroke="none" /><text fill="#e1ed5e" style="font-size:6.75px; font-family:Arial;" text-anchor="middle"><textPath startOffset="21.466115282336833" xlink:href="#id42">June</textPath></text><path d="M 106.91757812671514 119.82793768551818 l 10.631683863931224 30.473723792442296 a53.27507619759618,53.27507619759618 0 0,0 -0.8684605267863182,0.294628962969701 l -10.10555360420768 -30.652215742310123" fill="#73ff27" stroke="none" /><path d="M 106.57524785965236 119.94407469862006 l 4.225038212928384 12.815407041951875 a34.49390994306746,34.49390994306746 0 0,0 -0.5655008056073096,0.18105550002860804 l -4.003816062230134 -12.88623538864019" fill="#ffb010" stroke="none" /><path d="M 105.88484417918355 120.15858648285463 l 0.705900410095463 2.4180681819116865 a23.51899764218759,23.51899764218759 0 0,0 -0.38959648748277753,0.11010385893676132 l -0.6641727545080798 -2.4298608341869667" fill="#ff1b02" stroke="none" /><path d="M 105.53697534728816 120.25689768951611 l 2.8727218952746947 10.509787360984584 a31.89532750589453,31.89532750589453 0 0,0 -0.5308438949032126,0.14020069740901944 l -2.6913875575599846 -10.557679407697188" fill="#ff8e0d" stroke="none" /><path d="M 104.48393922423573 120.51570834832081 l 1.4582536719131571 6.6720589942736135 a27.829558916556444,27.829558916556444 0 0,0 -0.46887312234913603,0.09825692155623898 l -1.3431890881346429 -6.696171896556393" fill="#ff5708" stroke="none" /><path d="M 104.13013068566511 120.58985236759428 l 6.67411922790965 33.27234415689012 a54.935125654149175,54.935125654149175 0 0,0 -0.9287499383236067,0.1779971361232025 l -6.100401675014339 -33.38229849136179" fill="#62ff29" stroke="none" /><path d="M 103.06178313531738 120.77559828337769 l 1.8997969064337885 12.890990512292033 a34.030228880326646,34.030228880326646 0 0,0 -0.5802500951149129,0.08041737593201878 l -1.677618220132045 -12.921782453716654" fill="#ffaa0f" stroke="none" /><line stroke="#e1ed5e" stroke-width="0.3" x1="102.19456741930631" x2="102.32365962044197" y1="184.97166512339345" y2="189.96999836594603" /><path d="M 102.22038585953345 185.97133177190398 a86.0,86.0 0 0,1 -42.740103519485714,-10.115201625700543" fill="none" id="id43" stroke="none" /><text fill="#e1ed5e" style="font-size:6.75px; font-family:Arial;" text-anchor="middle"><textPath startOffset="22.20632615414155" xlink:href="#id43">July</textPath></text><path d="M 100.54218724476979 120.99299961872073 l 0.5446021278629813 21.086501707424514 a42.09353326815803,42.09353326815803 0 0,0 -0.7244904627598256,0.012472760341026767 l -0.18155197521048774 -21.0927519450447" fill="#f0ff19" stroke="none" /><path d="M 99.09653310690486 120.98055641714683 l -1.5579075731472591 36.17815769556315 a57.211685548335154,57.211685548335154 0 0,0 -0.9835286242440264,-0.05083719560914644 l 2.1804242658047746 -36.1459806931918" fill="#4bff2c" stroke="none" /><path d="M 97.65516085044442 120.86867818915974 l -3.3934093070633002 30.20077808178241 a51.39082465926735,51.39082465926735 0 0,0 -0.8782265560469277,-0.10634100542556096 l 3.912763286161617 -30.1378915476315" fill="#87ff25" stroke="none" /><path d="M 96.58105272829116 120.7198165907248 l -2.186472717373155 13.250661704985024 a34.42984357927425,34.42984357927425 0 0,0 -0.5839154382292838,-0.10152118360609856 l 2.4142371270744887 -13.211061942857919" fill="#ffaf10" stroke="none" /><path d="M 96.22490169976321 120.6578951692458 l -5.326006115070693 29.14469167305952 a50.62734199781471,50.62734199781471 0 0,0 -0.8559212379704173,-0.1640393423667417 l 5.826894967612805 -29.04869513234431" fill="#8fff24" stroke="none" /><path d="M 95.16358092515715 120.4354850818985 l -6.970086744732046 29.450943246918364 a51.26450342170338,51.26450342170338 0 0,0 -0.8569635969266388,-0.21062080230384161 l 7.476003626401896 -29.32660118630049" fill="#88ff25" stroke="none" /><path d="M 94.11515582081647 120.15858648285463 l -0.8121822730244734 2.782137656001083 a23.89826326988326,23.89826326988326 0 0,0 -0.3938946183391465,-0.11867721733876054 l 0.8599518658038658 -2.7677450695565966" fill="#ff2003" stroke="none" /><path d="M 93.76903079525671 120.05430185196036 l -7.14131993296864 22.984255073537103 a45.06812065098626,45.06812065098626 0 0,0 -0.7388567598571791,-0.23655860217881464 l 7.53589803791676 -22.857923624698582" fill="#cdff1d" stroke="none" /><path d="M 93.08242187328487 119.8279376855182 l -11.277991489646759 32.32624314150075 a55.23710104088792,55.23710104088792 0 0,0 -0.8950526196063584,-0.3209340249439544 l 11.832763669882844 -32.12732157551684" fill="#5eff29" stroke="none" /><path d="M 92.7421414339146 119.70592522655815 l -6.177965675865562 16.773891162570923 a38.87542124331474,38.87542124331474 0 0,0 -0.6259494096596676,-0.23668050637140733 l 6.465785306285512 -16.665062406092883" fill="#ffe715" stroke="none" /><path d="M 92.40401165467489 119.57807347666478 l -0.5087944922202207 1.3113785198657355 a22.406622002415318,22.406622002415318 0 0,0 -0.35837676608133734,-0.14260551127729842 l 0.531292334343416 -1.3024261641823704" fill="#ff0b01" stroke="none" /><path d="M 92.06813273071674 119.44442032107085 l -0.4560971926250117 1.1180905100373073 a22.207539248950486,22.207539248950486 0 0,0 -0.35270705494548943,-0.14743157757260425 l 0.4752757070679634 -1.11007388944473" fill="#ff0801" stroke="none" /><path d="M 91.7346041902142 119.30500536409082 l -1.1922532813667104 2.7846768045746764 a24.029173615504057,24.029173615504057 0 0,0 -0.3788363137691923,-0.16607070698339735 l 1.240010269793646 -2.7637415442968267" fill="#ff2203" stroke="none" /><path d="M 91.40352486487194 119.15986991738527 l -9.61337946274657 21.42635174038036 a44.484156650756226,44.484156650756226 0 0,0 -0.6959271019556676,-0.31946599943897697 l 9.980774560469657 -21.257698670607308" fill="#d4ff1c" stroke="none" /><path d="M 91.07499286063937 119.00905698771935 l -7.890231885253729 16.805125778740056 a39.565236643855314,39.565236643855314 0 0,0 -0.6139909242764316,-0.2947529558197129 l 8.178335477530403 -16.66681854642078" fill="#fff016" stroke="none" /><path d="M 90.10565033884886 118.52300852407294 l -0.44968109363435105 0.8418387277344767 a21.95441370981655,21.95441370981655 0 0,0 -0.3318014328711497,-0.18092459655320542 l 0.4641053383741413 -0.8339734794215053" fill="#ff0400" stroke="none" /><line stroke="#e1ed5e" stroke-width="0.3" x1="58.666819895761336" x2="56.23545636021788" y1="174.27360380694188" y2="178.64263932499728" /><path d="M 58.180547188652646 175.14741091055294 a86.0,86.0 0 0,1 -31.652253787137756,-30.449443065178592" fill="none" id="id44" stroke="none" /><text fill="#e1ed5e" style="font-size:6.75px; font-family:Arial;" text-anchor="middle"><textPath startOffset="22.20632615414155" xlink:href="#id44">August</textPath></text><path d="M 89.7882731507175 118.34994917583269 l -0.7825427921681174 1.4061892445946211 a22.609267352924263,22.609267352924263 0 0,0 -0.33844052720951595,-0.19217536410474936 l 0.8066320862988405 -1.3925107146952387" fill="#ff0e01" stroke="none" /><path d="M 89.4739219176387 118.17145234162733 l -9.07365000996968 15.664086607628791 a39.10234056012422,39.10234056012422 0 0,0 -0.5795192714428907,-0.342390200421508 l 9.341937152440954 -15.505577834913533" fill="#ffea16" stroke="none" /><path d="M 89.1626897886671 117.98757091392108 l -4.335173375699103 7.195442134523839 a29.400483064005982,29.400483064005982 0 0,0 -0.43123620551198716,-0.26490049888223216 l 4.458388781143398 -7.1197531688132285" fill="#ff6d0a" stroke="none" /><path d="M 88.8546689885994 117.79835938074946 l -13.302483582104479 21.243189924877946 a46.064500546322385,46.064500546322385 0 0,0 -0.6684138855278031,-0.42661336665227106 l 13.666179269679207 -21.01106212940187" fill="#c2ff1e" stroke="none" /><path d="M 88.54995079064634 117.60387380957326 l -9.63416714557225 14.812046620065482 a38.66957559376617,38.66957559376617 0 0,0 -0.5548629293042577,-0.3677328937920933 l 9.88770477361647 -14.64401570518207" fill="#ffe515" stroke="none" /><path d="M 87.95078237400918 117.19931262002967 l -0.7814772349526976 1.1154974278491856 a22.361998964862845,22.361998964862845 0 0,0 -0.31335834238241017,-0.2235728571098373 l 0.8005629051839948 -1.101880308895129" fill="#ff0a01" stroke="none" /><path d="M 87.36589467227662 116.77436683061367 l -13.544445328319782 17.98302994640051 a43.51313761573409,43.51313761573409 0 0,0 -0.5944128150030251,-0.4557703994815826 l 13.851986871816294 -17.747220205091562" fill="#dfff1b" stroke="none" /><path d="M 87.07902340077011 116.55440617244103 l -11.622302906015552 14.89054031541166 a39.88931220886768,39.88931220886768 0 0,0 -0.5376367114941908,-0.4271311194969253 l 11.876897110227102 -14.688275281909604" fill="#fff417" stroke="none" /><path d="M 86.51685102203217 116.09983520530335 l -15.088852529697359 18.01715901546508 a44.50088274196331,44.50088274196331 0 0,0 -0.5830347221481125,-0.4968748388827991 l 15.396752728422529 -17.75475978635933" fill="#d4ff1c" stroke="none" /><path d="M 85.97065885151581 115.62618273729859 l -0.7787982638812915 0.8674423023931399 a22.165754212433146,22.165754212433146 0 0,0 -0.28171665646216054,-0.2573414862407274 l 0.7936144698103067 -0.8539080495658365" fill="#ff0701" stroke="none" /><path d="M 85.70375840098266 115.38237550388516 l -1.4812136222249463 1.593746438931204 a23.175780665938237,23.175780665938237 0 0,0 -0.2898784329028621,-0.2740981516091612 l 1.5084278895186254 -1.5680136505761122" fill="#ff1602" stroke="none" /><path d="M 85.44109423537348 115.13401014063109 l -18.10268358305463 18.81777390057946 a47.1116021622865,47.1116021622865 0 0,0 -0.5795849839180645,-0.5672458932327137 l 18.42391851934849 -18.503377904424177" fill="#b6ff1f" stroke="none" /><path d="M 85.18274418774928 114.88116024355367 l -19.160989442207594 19.2436276951352 a48.15622807521997,48.15622807521997 0 0,0 -0.5823678848412402,-0.5899355926850256 l 19.489397952104365 -18.91095160846951" fill="#aaff21" stroke="none" /><path d="M 84.43433777217949 114.09645910891817 l -11.542481446876927 10.453016090798824 a36.57223244579907,36.57223244579907 0 0,0 -0.4185624960453197,-0.47025940145747613 l 11.720702792570584 -10.252782519600483" fill="#ffca12" stroke="none" /><path d="M 84.19399662182784 113.82643327865904 l -1.6048242719151125 1.4038334162480002 a23.132184139398472,23.132184139398472 0 0,0 -0.25958440297320373,-0.3019553056676928 l 1.628751184459095 -1.376001011418777" fill="#ff1502" stroke="none" /><path d="M 83.72743513129214 113.27417163493432 l -14.54204324104335 11.86251703168501 a39.76673471735005,39.76673471735005 0 0,0 -0.42812125788852134,-0.5341470958686458 l 14.744082410986733 -11.610442102238105" fill="#fff216" stroke="none" /><path d="M 83.50135304334701 112.99209946851258 l -1.6269037861045996 1.2811290447212909 a23.070774627638162,23.070774627638162 0 0,0 -0.2430046699586627,-0.3141162932807324 l 1.6487152732813308 -1.252934757327306" fill="#ff1402" stroke="none" /><path d="M 82.6465618267979 111.8261652097733 l -45.21409425232756 30.812876566674117 a75.71515038242566,75.71515038242566 0 0,0 -0.7246909571536718,-1.083314653584473 l 45.737788314891965 -30.03002499888382" fill="#43ffdd" stroke="none" /><path d="M 82.44556493220864 111.52570212397912 l -1.856092030343391 1.2186529372101913 a23.220403703490714,23.220403703490714 0 0,0 -0.216497243598339,-0.3360085298378493 l 1.8767941373187755 -1.1865228074508938" fill="#ff1602" stroke="none" /><path d="M 82.24976979558568 111.22182372390057 l -4.554589231645078 2.879444204593245 a26.388458220714245,26.388458220714245 0 0,0 -0.23942544741385144,-0.38603005595323187 l 4.603479318726886 -2.8006178172747487" fill="#ff4306" stroke="none" /><path d="M 82.05923443525364 110.91462005526583 l -17.256005883032515 10.498032940959089 a41.19847604807637,41.19847604807637 0 0,0 -0.36336884077105114,-0.609027078068954 l 17.4341555995018 -10.199443769004024" fill="#fbff18" stroke="none" /><line stroke="#e1ed5e" stroke-width="0.3" x1="26.63291911575756" x2="22.317208475507996" y1="142.92168965132927" y2="145.44649492493687" /><path d="M 25.769776987707644 143.4266507060508 a86.0,86.0 0 0,1 -11.730757126820373,-40.83630448921669" fill="none" id="id45" stroke="none" /><text fill="#e1ed5e" style="font-size:6.75px; font-family:Arial;" text-anchor="middle"><textPath startOffset="21.46611528233685" xlink:href="#id45">September</textPath></text><path d="M 81.51974371655577 109.97397251340807 l -2.6663474029290497 1.4390534038121516 a24.029898211513025,24.029898211513025 0 0,0 -0.19332338240221056,-0.3656949836861102 l 2.6907232935561463 -1.3929434050399152" fill="#ff2203" stroke="none" /><path d="M 81.35079622478065 109.6543875284942 l -0.9727314868091281 0.5035671682295833 a22.095347633561445,22.095347633561445 0 0,0 -0.1719452905624512,-0.33926437073366356 l 0.9812554471578461 -0.48674858579323477" fill="#ff0601" stroke="none" /><path d="M 81.02952815118164 109.00673069616217 l -14.936532851073629 7.0915120085628764 a37.534495945712806,37.534495945712806 0 0,0 -0.2720810965266716,-0.5860384764477834 l 15.056388564440127 -6.833353464836266" fill="#ffd714" stroke="none" /><path d="M 80.87730276802145 108.67885076344099 l -23.92448579535612 10.858146175254607 a47.27318707228708,47.27318707228708 0 0,0 -0.32991938183855607,-0.7438811098728214 l 24.107846261925957 -10.44471672888909" fill="#b4ff20" stroke="none" /><path d="M 80.58989483394504 108.01547362559985 l -15.398769009289563 6.358977749204604 a37.66009258726781,37.66009258726781 0 0,0 -0.2422752407316481,-0.6013072786480655 l 15.505946864278597 -6.092971102713733" fill="#ffd814" stroke="none" /><path d="M 80.20201598880116 107.00284435728193 l -6.203763015620295 2.194364173810656 a27.58041865547185,27.58041865547185 0 0,0 -0.15446238668132975,-0.448939997936451 l 6.240616233244853 -2.087251472784908" fill="#ff5407" stroke="none" /><path d="M 80.0844068197444 106.66101706037122 l -21.02407019788229 7.0317609422436895 a43.168833745471275,43.168833745471275 0 0,0 -0.22963301161716054,-0.7067377394461117 l 21.141995460515698 -6.6688243028197745" fill="#e3ff1b" stroke="none" /><path d="M 79.97269907076064 106.31721596034903 l -28.85341042036207 9.10123762867606 a51.254781758583015,51.254781758583015 0 0,0 -0.2581611281475829,-0.8436855038892127 l 29.005798321015785 -8.603225152234799" fill="#88ff25" stroke="none" /><path d="M 79.86692584326677 105.97154293290107 l -22.27072984800797 6.605579376458225 a44.229702685605844,44.229702685605844 0 0,0 -0.21021190458866287,-0.7317752170841927 l 22.38113438948274 -6.2212466838694365" fill="#d7ff1c" stroke="none" /><path d="M 79.76711848015287 105.62410040840567 l -19.473028550927907 5.4128853430362245 a41.21133762723561,41.21133762723561 0 0,0 -0.18410070758759842,-0.6851072200777154 l 19.56331733485728 -5.07688718978297" fill="#faff18" stroke="none" /><path d="M 79.58551787078972 104.9243191809786 l -1.673050691951093 0.4035681905119674 a22.721036287308067,22.721036287308067 0 0,0 -0.08843831655218483,-0.38098995306102645 l 1.679749574433833 -0.3747095801023667" fill="#ff0f01" stroke="none" /><path d="M 79.4281124754447 104.21870165774334 l -25.865519586052503 5.304273136134182 a47.40379550290413,47.40379550290413 0 0,0 -0.15704215382594483,-0.8007545590253835 l 25.952991672854115 -4.858254850040844" fill="#b2ff20" stroke="none" /><path d="M 79.35854240842038 103.8639653848113 l -61.92437277473888 11.591896154433886 a84.0,84.0 0 0,0 -0.25381423064324515,-1.4235249970671453 l 62.11473344772131 -10.524252406633527" fill="#4dd2ff" stroke="none" /><path d="M 79.23777060512086 103.15116336523772 l -19.87026185968768 3.015786023699922 a41.09781758583013,41.09781758583013 0 0,0 -0.1001337541869383,-0.7003352435625159 l 19.91922966489122 -2.6733053081570053" fill="#fcff18" stroke="none" /><path d="M 79.1416061653843 102.43462659150553 l -1.6401589976284872 0.19144209959716418 a22.65129392144459,22.65129392144459 0 0,0 -0.041870052288271065,-0.38766468330647924 l 1.6432113514178102 -0.1631810944059029" fill="#ff0e01" stroke="none" /><path d="M 79.07016306316243 101.71520430193888 l -13.272193480186754 1.087658896821827 a34.31668583587326,34.31668583587326 0 0,0 -0.04317928261993482,-0.5891470052492107 l 13.288949321471023 -0.8590387550758557" fill="#ffae10" stroke="none" /><path d="M 79.0095281055655 100.63252640178507 l -26.800181606362962 0.8075960618662414 a47.8123468859624,47.8123468859624 0 0,0 -0.017708639855318786,-0.8228509093124728 l 26.81011230890329 -0.34615533676363974" fill="#aeff20" stroke="none" /><line stroke="#e1ed5e" stroke-width="0.3" x1="15.007084014347285" x2="10.007500721073583" y1="101.09737516637583" y2="101.16192664675087" /><path d="M 14.007167355692545 101.11028546245083 a86.0,86.0 0 0,1 10.666146001902534,-42.60595125391555" fill="none" id="id46" stroke="none" /><text fill="#e1ed5e" style="font-size:6.75px; font-family:Arial;" text-anchor="middle"><textPath startOffset="22.20632615414155" xlink:href="#id46">October</textPath></text><path d="M 79.00175016825051 100.2711162175752 l -2.123674280672049 0.027419548912452314 a23.123851285295302,23.123851285295302 0 0,0 -0.0017130399105553871,-0.39805014605057193 l 2.1238316178721073 0.009140075341794994" fill="#ff1502" stroke="none" /><path d="M 79.01574976396665 99.18683210126434 l -0.6643785707888978 -0.02574556251934634 a21.664877221231812,21.664877221231812 0 0,0 0.017647994158073294,-0.37252126385537965 l 0.6638369683973258 0.03717793299773509" fill="#ff0000" stroke="none" /><path d="M 79.05617556472873 98.46500227214037 l -7.260481641812669 -0.5321293089422651 a28.279955719132786,28.279955719132786 0 0,0 0.039760966198531485,-0.4851844984563732 l 7.25024619179464 0.6570277246064167" fill="#ff5d08" stroke="none" /><path d="M 79.08570108090925 98.10471618934814 l -10.856396197494211 -0.9838222182217744 a31.90088274196331,31.90088274196331 0 0,0 0.05426624880081503,-0.5464537197339501 l 10.837852823011167 1.1705514686601548" fill="#ff8e0d" stroke="none" /><path d="M 79.12142395522702 97.74499172005258 l -38.608256032554685 -4.1699173756410035 a59.832790844786935,59.832790844786935 0 0,0 0.11940814967214845,-1.0230161050628397 l 38.53075752987895 4.833877219028705" fill="#31ff2f" stroke="none" /><path d="M 79.26566170972629 96.67025291283419 l -6.388010077600662 -1.0258566080526632 a27.469857381102997,27.469857381102997 0 0,0 0.07899302626427483,-0.4662213125505933 l 6.369405189816164 1.1356637089190844" fill="#ff5207" stroke="none" /><path d="M 79.32604984820605 96.31383870115002 l -2.4136649548947298 -0.43035599291852844 a23.451730979354764,23.451730979354764 0 0,0 0.0742797575786883,-0.39680543516261324 l 2.40589947340618 0.4718395055437144" fill="#ff1a02" stroke="none" /><line stroke="#e1ed5e" stroke-width="0.3" x1="26.266209847984243" x2="21.928928074336255" y1="57.711370442889674" y2="55.22380399835377" /><path d="M 25.398753493254645 57.213857153982495 a86.0,86.0 0 0,1 29.58750427330803,-30.492523968695096" fill="none" id="id47" stroke="none" /><text fill="#e1ed5e" style="font-size:6.75px; font-family:Arial;" text-anchor="middle"><textPath startOffset="21.46611528233685" xlink:href="#id47">November</textPath></text><line stroke="#e1ed5e" stroke-width="0.3" x1="56.762969772571076" x2="54.21961505331055" y1="26.818313649435495" y2="22.513508569990535" /><path d="M 56.25429882871897 25.957352633546506 a86.0,86.0 0 0,1 42.265352541879196,-11.944610805530505" fill="none" id="id48" stroke="none" /><text fill="#e1ed5e" style="font-size:6.75px; font-family:Arial;" text-anchor="middle"><textPath startOffset="22.20632615414155" xlink:href="#id48">December</textPath></text></svg>